{"glyphs":{"0":{"ha":850,"x_min":47,"x_max":799,"o":"m 333 486 q 360 549 333 522 q 422 575 386 575 q 485 549 458 575 q 511 486 511 522 q 485 424 511 450 q 422 397 458 397 q 360 424 386 397 q 333 486 333 450 m 104 594 q 247 890 144 789 q 521 992 349 992 q 727 915 656 992 q 799 701 799 838 q 795 642 799 674 q 785 579 792 611 l 742 378 q 599 82 701 183 q 325 -19 497 -19 q 119 58 190 -19 q 47 271 47 135 q 51 330 47 299 q 61 393 54 361 l 104 594 m 342 86 q 445 108 399 86 q 527 169 492 129 q 587 263 563 208 q 626 386 611 318 l 671 594 q 682 692 682 650 q 638 834 682 782 q 504 886 593 886 q 319 804 389 886 q 219 586 249 722 l 175 378 q 164 281 164 322 q 208 138 164 190 q 342 86 253 86 z "},"1":{"ha":850,"x_min":33,"x_max":700,"o":"m 308 108 l 481 921 l 464 921 l 219 556 l 93 556 l 93 564 l 372 972 l 608 972 l 425 108 l 700 108 l 700 0 l 33 0 l 33 108 l 308 108 z "},"2":{"ha":850,"x_min":0,"x_max":818,"o":"m 679 108 l 679 0 l 0 0 l 33 167 q 79 284 47 235 q 160 369 111 333 q 272 428 208 404 q 414 467 336 451 q 519 496 468 476 q 609 547 569 515 q 673 622 649 578 q 697 728 697 667 q 687 788 697 760 q 655 838 676 817 q 599 871 633 858 q 517 883 564 883 q 338 818 410 883 q 243 644 267 753 l 231 583 l 113 583 l 126 653 q 172 785 140 724 q 254 893 204 847 q 373 965 304 939 q 531 992 442 992 q 653 972 599 992 q 743 917 707 951 q 799 839 779 883 q 818 747 818 794 q 721 492 818 585 q 451 367 624 400 q 331 335 382 353 q 242 292 279 317 q 183 232 206 267 q 149 150 160 197 l 139 108 l 679 108 z "},"3":{"ha":850,"x_min":44,"x_max":814,"o":"m 332 483 l 332 647 l 722 847 l 722 864 l 201 864 l 201 972 l 814 972 l 814 783 l 443 592 l 443 575 l 501 575 q 598 559 554 575 q 674 514 642 543 q 724 443 706 485 q 742 350 742 401 q 708 199 742 267 q 619 82 675 131 q 490 7 564 33 q 336 -19 417 -19 q 210 1 265 -19 q 119 56 156 21 q 63 138 82 90 q 44 238 44 185 q 47 269 44 253 q 51 303 49 286 l 67 378 l 183 378 l 169 311 q 165 279 167 294 q 163 249 163 264 q 214 127 163 165 q 351 89 265 89 q 464 108 414 89 q 549 160 514 126 q 603 238 585 193 q 622 333 622 282 q 577 445 622 407 q 460 483 532 483 l 332 483 z "},"4":{"ha":850,"x_min":26,"x_max":761,"o":"m 521 972 l 761 972 l 617 292 l 743 292 l 743 183 l 593 183 l 554 0 l 438 0 l 476 183 l 26 183 l 26 367 l 521 972 m 115 308 l 115 292 l 500 292 l 633 922 l 617 922 l 115 308 z "},"5":{"ha":850,"x_min":44,"x_max":796,"o":"m 101 458 l 210 972 l 796 972 l 796 864 l 301 864 l 228 517 l 244 517 q 285 570 261 544 q 340 615 308 596 q 412 647 371 635 q 506 658 453 658 q 606 640 560 658 q 688 590 653 622 q 742 513 722 557 q 761 417 761 468 q 731 244 761 324 q 646 106 701 164 q 513 14 590 47 q 339 -19 435 -19 q 212 0 267 -19 q 119 53 157 19 q 63 134 82 88 q 44 236 44 181 q 53 311 44 271 l 61 350 l 178 350 l 171 319 q 164 281 167 299 q 161 246 161 263 q 214 126 161 163 q 356 89 267 89 q 470 115 418 89 q 560 185 522 142 q 619 283 599 228 q 640 393 640 338 q 598 506 640 461 q 478 550 556 550 q 422 542 447 550 q 378 520 397 533 q 344 490 358 507 q 322 458 331 474 l 101 458 z "},"6":{"ha":850,"x_min":44,"x_max":799,"o":"m 675 689 q 681 743 681 715 q 635 851 681 814 q 507 889 590 889 q 417 872 460 889 q 339 824 374 856 q 278 750 304 793 q 242 656 253 707 l 213 519 l 229 519 q 334 609 269 576 q 478 642 399 642 q 579 625 532 642 q 662 577 626 608 q 717 501 697 546 q 738 400 738 456 q 710 235 738 311 q 631 102 683 158 q 502 13 579 46 q 325 -19 425 -19 q 211 0 263 -19 q 123 54 160 19 q 65 137 86 89 q 44 242 44 185 q 47 274 44 258 q 51 308 49 290 l 125 656 q 181 803 143 740 q 270 908 218 867 q 387 971 322 950 q 525 992 451 992 q 637 974 586 992 q 724 925 688 957 q 779 849 760 893 q 799 754 799 806 q 797 722 799 739 q 792 689 796 706 l 675 689 m 342 83 q 451 106 400 83 q 538 167 501 128 q 597 259 575 207 q 618 372 618 311 q 572 495 618 451 q 439 539 526 539 q 332 516 382 539 q 244 454 282 493 q 183 363 206 415 q 161 253 161 311 q 209 127 161 171 q 342 83 257 83 z "},"7":{"ha":850,"x_min":51,"x_max":839,"o":"m 165 972 l 839 972 l 839 781 l 276 183 q 214 108 236 140 q 185 36 192 76 l 178 0 l 51 0 l 60 50 q 98 144 68 100 q 186 250 128 188 l 747 847 l 747 864 l 165 864 l 165 972 z "},"8":{"ha":850,"x_min":25,"x_max":790,"o":"m 314 -19 q 192 -3 246 -19 q 101 42 139 13 q 44 111 64 71 q 25 200 25 151 q 44 308 25 258 q 94 394 63 357 q 171 458 126 432 q 268 496 215 483 l 268 513 q 187 573 222 531 q 151 678 151 615 q 181 808 151 750 q 260 906 210 865 q 377 969 310 947 q 522 992 444 992 q 633 976 583 992 q 718 934 683 961 q 772 869 753 907 q 790 786 790 831 q 776 694 790 738 q 734 615 761 651 q 667 553 707 579 q 578 513 628 526 l 578 496 q 628 472 604 488 q 672 435 653 457 q 702 383 690 413 q 714 317 714 353 q 684 174 714 236 q 601 68 654 111 q 474 3 547 25 q 314 -19 400 -19 m 333 86 q 431 100 383 86 q 515 142 478 114 q 575 213 553 171 q 597 310 597 254 q 548 415 597 381 q 411 450 499 450 q 313 435 360 450 q 228 392 265 421 q 169 322 192 364 q 147 224 147 279 q 197 122 147 157 q 333 86 246 86 m 435 558 q 522 572 479 558 q 597 612 564 586 q 649 675 629 638 q 669 760 669 713 q 626 853 669 819 q 504 886 582 886 q 419 873 461 886 q 343 835 376 860 q 290 773 310 810 q 269 689 269 736 q 314 594 269 629 q 435 558 358 558 z "},"9":{"ha":850,"x_min":46,"x_max":801,"o":"m 171 283 q 164 228 164 251 q 209 121 164 158 q 339 83 254 83 q 429 100 386 83 q 507 148 472 117 q 567 222 542 179 q 604 317 593 264 l 633 453 l 617 453 q 516 363 579 396 q 369 331 453 331 q 267 348 314 331 q 184 397 219 365 q 128 474 149 429 q 108 575 108 519 q 137 738 108 663 q 218 870 165 814 q 347 959 271 926 q 517 992 422 992 q 632 972 579 992 q 722 918 685 953 q 781 835 760 883 q 801 731 801 788 q 794 664 801 703 l 721 317 q 666 167 703 231 q 578 63 629 104 q 462 1 526 21 q 322 -19 397 -19 q 208 -2 260 -19 q 121 47 157 15 q 65 122 85 78 q 46 217 46 165 q 54 283 46 247 l 171 283 m 504 889 q 395 867 446 889 q 308 805 344 844 q 249 713 271 765 q 228 600 228 660 q 274 477 228 521 q 407 433 319 433 q 513 456 463 433 q 602 518 564 479 q 663 609 640 557 q 685 719 685 661 q 637 845 685 801 q 504 889 589 889 z "},"\u0000":{"ha":850,"x_min":0,"x_max":0,"o":""}," ":{"ha":850,"x_min":0,"x_max":0,"o":""},"A":{"ha":850,"x_min":-58,"x_max":715,"o":"m 582 242 l 192 242 l 74 0 l -58 0 l 424 972 l 646 972 l 715 0 l 597 0 l 582 242 m 244 350 l 575 350 l 539 921 l 522 921 l 244 350 z "},"B":{"ha":850,"x_min":3,"x_max":799,"o":"m 3 108 l 94 108 l 254 864 l 163 864 l 163 972 l 546 972 q 735 908 672 972 q 799 743 799 843 q 783 661 799 701 q 740 588 768 621 q 672 531 713 556 q 581 496 631 507 l 581 479 q 671 415 639 463 q 703 304 703 367 q 676 181 703 238 q 604 85 650 125 q 494 22 558 44 q 356 0 431 0 l 3 0 l 3 108 m 211 108 l 371 108 q 458 122 417 108 q 529 162 499 136 q 577 223 560 188 q 594 300 594 258 q 554 399 594 364 q 443 433 514 433 l 279 433 l 211 108 m 303 542 l 467 542 q 548 555 508 542 q 618 593 588 568 q 667 655 649 618 q 685 739 685 692 q 644 831 685 797 q 531 864 604 864 l 371 864 l 303 542 z "},"C":{"ha":850,"x_min":53,"x_max":810,"o":"m 344 89 q 449 107 404 89 q 526 157 494 125 q 580 234 558 189 q 615 333 601 279 l 619 350 l 736 350 l 732 333 q 680 184 711 250 q 602 73 649 118 q 489 4 556 28 q 331 -19 422 -19 q 211 0 263 -19 q 124 55 160 19 q 71 139 89 90 q 53 247 53 188 q 56 309 53 276 q 67 378 60 342 l 113 594 q 258 892 154 792 q 531 992 361 992 q 649 972 597 992 q 737 919 701 953 q 791 837 772 885 q 810 733 810 789 q 797 639 810 689 l 793 622 l 676 622 l 681 639 q 690 685 688 665 q 692 725 692 706 q 649 842 692 799 q 513 886 607 886 q 411 864 457 886 q 329 802 365 842 q 267 708 293 763 q 228 586 242 653 l 185 386 q 174 326 178 354 q 171 274 171 299 q 213 135 171 181 q 344 89 254 89 z "},"D":{"ha":850,"x_min":0,"x_max":794,"o":"m 160 972 l 497 972 q 719 906 644 972 q 794 715 794 840 q 791 661 794 689 q 781 603 788 633 l 728 361 q 676 194 707 263 q 599 82 646 125 q 483 19 551 39 q 315 0 414 0 l 0 0 l 0 108 l 92 108 l 251 864 l 160 864 l 160 972 m 314 108 q 427 121 378 108 q 513 163 476 133 q 574 243 549 193 q 614 369 599 293 l 663 603 q 672 663 669 639 q 675 708 675 686 q 625 831 675 797 q 474 864 575 864 l 368 864 l 208 108 l 314 108 z "},"E":{"ha":850,"x_min":39,"x_max":794,"o":"m 246 972 l 794 972 l 794 864 l 339 864 l 271 542 l 694 542 l 694 433 l 247 433 l 179 108 l 619 108 l 619 0 l 39 0 l 246 972 z "},"F":{"ha":850,"x_min":35,"x_max":799,"o":"m 242 972 l 799 972 l 799 864 l 335 864 l 267 542 l 699 542 l 699 433 l 243 433 l 151 0 l 35 0 l 242 972 z "},"G":{"ha":850,"x_min":44,"x_max":807,"o":"m 336 467 l 761 467 l 661 0 l 550 0 l 578 117 l 561 117 q 460 18 525 56 q 310 -19 394 -19 q 203 -2 251 -19 q 119 50 154 15 q 64 136 83 85 q 44 254 44 188 q 47 311 44 282 q 58 378 50 340 l 104 594 q 251 890 144 789 q 528 992 358 992 q 647 972 594 992 q 734 915 699 951 q 788 830 769 879 q 807 722 807 781 q 797 639 807 678 l 793 622 l 676 622 l 681 639 q 690 717 690 678 q 647 838 690 790 q 508 886 603 886 q 405 864 451 886 q 322 802 358 842 q 259 708 285 763 q 219 586 233 653 l 176 386 q 164 275 164 324 q 207 135 164 183 q 340 86 250 86 q 517 151 446 86 q 615 325 588 217 l 624 358 l 336 358 l 336 467 z "},"H":{"ha":850,"x_min":11,"x_max":839,"o":"m 217 972 l 336 972 l 244 542 l 628 542 l 719 972 l 839 972 l 632 0 l 513 0 l 604 433 l 221 433 l 129 0 l 11 0 l 217 972 z "},"I":{"ha":850,"x_min":44,"x_max":804,"o":"m 204 972 l 804 972 l 804 864 l 563 864 l 403 108 l 644 108 l 644 0 l 44 0 l 44 108 l 286 108 l 446 864 l 204 864 l 204 972 z "},"J":{"ha":850,"x_min":42,"x_max":864,"o":"m 864 864 l 772 864 l 649 286 q 606 158 633 214 q 537 62 579 101 q 436 1 494 22 q 300 -19 378 -19 q 110 44 178 -19 q 42 215 42 108 q 50 292 42 251 l 67 367 l 183 367 l 167 292 q 158 222 158 254 q 315 89 158 89 q 463 145 413 89 q 533 292 514 201 l 656 864 l 547 864 l 547 972 l 864 972 l 864 864 z "},"K":{"ha":850,"x_min":7,"x_max":850,"o":"m 126 0 l 7 0 l 214 972 l 333 972 l 242 542 l 278 542 l 715 972 l 850 972 l 850 956 l 382 494 l 382 478 l 685 8 l 685 0 l 553 0 l 274 433 l 218 433 l 126 0 z "},"L":{"ha":850,"x_min":33,"x_max":674,"o":"m 240 972 l 357 972 l 174 108 l 674 108 l 674 0 l 33 0 l 240 972 z "},"M":{"ha":850,"x_min":-22,"x_max":872,"o":"m 183 972 l 404 972 l 324 50 l 340 50 l 644 972 l 872 972 l 665 0 l 557 0 l 753 922 l 736 922 l 432 0 l 218 0 l 297 922 l 281 922 l 85 0 l -22 0 l 183 972 z "},"N":{"ha":850,"x_min":14,"x_max":835,"o":"m 506 50 l 522 50 l 718 972 l 835 972 l 628 0 l 399 0 l 343 922 l 326 922 l 131 0 l 14 0 l 221 972 l 450 972 l 506 50 z "},"O":{"ha":850,"x_min":50,"x_max":801,"o":"m 107 594 q 249 890 147 789 q 524 992 351 992 q 730 915 658 992 q 801 701 801 838 q 798 642 801 674 q 788 579 794 611 l 744 378 q 602 82 704 183 q 328 -19 500 -19 q 122 58 193 -19 q 50 271 50 135 q 53 330 50 299 q 64 393 57 361 l 107 594 m 344 86 q 448 108 401 86 q 530 169 494 129 q 590 263 565 208 q 629 386 614 318 l 674 594 q 685 692 685 650 q 640 834 685 782 q 507 886 596 886 q 322 804 392 886 q 222 586 251 722 l 178 378 q 167 281 167 322 q 211 138 167 190 q 344 86 256 86 z "},"P":{"ha":850,"x_min":17,"x_max":807,"o":"m 218 400 l 133 0 l 17 0 l 224 972 l 540 972 q 652 955 603 972 q 735 907 701 938 q 788 833 769 876 q 807 740 807 790 q 782 606 807 668 q 709 497 757 543 q 593 426 661 451 q 440 400 525 400 l 218 400 m 242 508 l 450 508 q 545 523 501 508 q 620 565 589 538 q 669 631 651 592 q 688 719 688 671 q 645 828 688 793 q 524 864 603 864 l 317 864 l 242 508 z "},"Q":{"ha":850,"x_min":50,"x_max":801,"o":"m 107 594 q 249 890 147 789 q 524 992 351 992 q 730 915 658 992 q 801 701 801 838 q 798 642 801 674 q 788 579 794 611 l 744 378 q 613 93 706 193 q 364 -18 519 -7 l 351 -75 q 350 -84 350 -82 q 350 -89 350 -86 q 381 -117 350 -117 l 497 -117 l 497 -217 l 339 -217 q 265 -189 294 -217 q 236 -118 236 -161 q 236 -107 236 -111 q 239 -92 236 -103 l 256 -12 q 103 80 156 7 q 50 271 50 153 q 53 330 50 299 q 64 393 57 361 l 107 594 m 344 86 q 448 108 401 86 q 530 169 494 129 q 590 263 565 208 q 629 386 614 318 l 674 594 q 685 692 685 650 q 640 834 685 782 q 507 886 596 886 q 322 804 392 886 q 222 586 251 722 l 178 378 q 167 281 167 322 q 211 138 167 190 q 344 86 256 86 z "},"R":{"ha":850,"x_min":11,"x_max":808,"o":"m 622 0 l 506 0 l 575 325 q 578 351 578 336 q 565 388 578 375 q 519 400 551 400 l 213 400 l 128 0 l 11 0 l 218 972 l 547 972 q 740 910 671 972 q 808 735 808 847 q 760 576 808 643 q 628 475 711 510 l 628 458 q 682 435 663 456 q 701 381 701 415 q 697 350 701 368 l 622 0 m 236 508 l 450 508 q 546 524 501 508 q 622 569 590 540 q 672 638 654 599 q 690 722 690 676 q 649 828 690 792 q 525 864 607 864 l 311 864 l 236 508 z "},"S":{"ha":850,"x_min":26,"x_max":815,"o":"m 690 678 q 696 725 696 706 q 681 795 696 765 q 638 844 665 825 q 576 874 611 864 q 500 883 540 883 q 410 872 454 883 q 331 839 365 861 q 274 785 296 817 q 253 713 253 754 q 269 645 253 672 q 315 599 285 618 q 390 569 346 581 q 490 547 433 557 q 678 465 618 526 q 738 301 738 403 q 708 164 738 224 q 625 63 678 104 q 501 1 572 22 q 346 -19 429 -19 q 206 1 267 -19 q 106 57 146 21 q 47 142 67 93 q 26 251 26 192 q 35 336 26 292 l 43 378 l 160 378 l 153 344 q 144 268 144 303 q 200 133 144 176 q 360 89 256 89 q 456 103 410 89 q 538 142 503 117 q 595 205 574 168 q 617 288 617 242 q 605 353 617 326 q 567 399 593 381 q 498 431 540 418 q 396 453 456 443 q 290 481 338 463 q 207 528 242 499 q 153 598 172 557 q 133 694 133 639 q 163 821 133 765 q 242 914 192 876 q 362 972 293 951 q 510 992 431 992 q 639 972 582 992 q 735 919 696 953 q 794 842 774 886 q 815 747 815 797 q 814 719 815 733 q 810 692 813 706 l 799 642 l 682 642 l 690 678 z "},"T":{"ha":850,"x_min":143,"x_max":842,"o":"m 143 972 l 842 972 l 842 864 l 560 864 l 376 0 l 260 0 l 443 864 l 143 864 l 143 972 z "},"U":{"ha":850,"x_min":51,"x_max":856,"o":"m 314 972 l 178 328 q 171 285 174 306 q 168 247 168 265 q 339 86 168 86 q 510 147 443 86 q 603 328 578 208 l 739 972 l 856 972 l 719 328 q 588 67 683 154 q 322 -19 493 -19 q 213 -3 263 -19 q 127 47 163 14 q 72 126 92 79 q 51 236 51 174 q 53 284 51 260 q 63 336 56 308 l 197 972 l 314 972 z "},"V":{"ha":850,"x_min":142,"x_max":882,"o":"m 142 972 l 258 972 l 300 50 l 317 50 l 750 972 l 882 972 l 417 0 l 193 0 l 142 972 z "},"W":{"ha":850,"x_min":17,"x_max":922,"o":"m 625 0 l 411 0 l 524 922 l 507 922 l 231 0 l 17 0 l 132 972 l 238 972 l 128 50 l 144 50 l 417 972 l 633 972 l 517 50 l 533 50 l 814 972 l 922 972 l 625 0 z "},"X":{"ha":850,"x_min":-26,"x_max":881,"o":"m 293 972 l 419 542 l 444 542 l 749 972 l 881 972 l 881 964 l 538 486 l 538 469 l 679 0 l 560 0 l 433 433 l 408 433 l 104 0 l -26 0 l -26 8 l 315 486 l 315 503 l 174 972 l 293 972 z "},"Y":{"ha":850,"x_min":133,"x_max":903,"o":"m 328 342 l 303 342 l 133 972 l 254 972 l 390 442 l 407 442 l 768 972 l 903 972 l 903 964 l 469 342 l 444 342 l 372 0 l 256 0 l 328 342 z "},"Z":{"ha":850,"x_min":7,"x_max":822,"o":"m 186 972 l 822 972 l 822 797 l 107 125 l 107 108 l 693 108 l 693 0 l 7 0 l 7 175 l 722 847 l 722 864 l 186 864 l 186 972 z "},"a":{"ha":850,"x_min":17,"x_max":754,"o":"m 482 108 q 380 8 439 35 q 256 -19 321 -19 q 156 1 200 -19 q 81 57 111 21 q 33 144 50 93 q 17 256 17 194 q 42 425 17 343 q 115 569 67 507 q 233 670 163 632 q 397 708 304 708 q 518 676 468 708 q 583 581 568 643 l 600 581 l 622 689 l 731 689 l 608 117 q 611 98 606 104 q 626 92 617 92 q 646 99 636 92 l 696 135 l 754 53 l 692 6 q 653 -12 676 -6 q 607 -19 631 -19 q 567 -14 586 -19 q 531 3 547 -8 q 506 34 515 15 q 496 81 496 53 q 497 94 496 88 q 499 108 497 101 l 482 108 m 289 83 q 394 109 344 83 q 480 179 443 135 q 538 284 517 224 q 558 415 558 344 q 519 553 558 501 q 399 606 481 606 q 284 578 333 606 q 200 503 235 550 q 148 396 165 457 q 131 269 131 335 q 171 131 131 178 q 289 83 211 83 z "},"b":{"ha":850,"x_min":50,"x_max":792,"o":"m 367 992 l 279 581 l 296 581 q 396 673 335 638 q 539 708 457 708 q 640 690 593 708 q 719 635 686 671 q 772 551 753 600 q 792 442 792 501 q 761 250 792 335 q 678 105 731 165 q 553 13 625 44 q 400 -19 482 -19 q 276 12 335 -19 q 196 106 218 43 l 179 106 l 157 0 l 50 0 l 260 992 l 367 992 m 397 83 q 506 108 454 83 q 595 176 557 132 q 656 283 633 221 q 678 421 678 346 q 633 556 678 506 q 504 606 588 606 q 392 579 443 606 q 303 507 340 553 q 244 401 265 461 q 224 275 224 342 q 269 133 224 183 q 397 83 315 83 z "},"c":{"ha":850,"x_min":36,"x_max":750,"o":"m 708 236 q 658 137 690 183 q 578 56 626 90 q 467 1 531 21 q 325 -19 404 -19 q 206 1 260 -19 q 115 58 153 21 q 57 149 78 96 q 36 267 36 201 q 67 438 36 357 q 156 578 99 518 q 293 674 213 639 q 472 708 374 708 q 588 690 536 708 q 675 640 639 672 q 731 562 711 607 q 750 463 750 517 q 750 456 750 460 q 749 442 750 453 l 638 425 q 639 438 639 433 q 639 447 639 442 q 628 509 639 481 q 595 559 618 538 q 537 593 572 581 q 453 606 501 606 q 333 579 388 606 q 237 508 278 553 q 173 403 196 463 q 150 278 150 343 q 203 131 150 179 q 347 83 256 83 q 446 99 403 83 q 521 141 489 115 q 574 200 553 167 q 606 269 594 233 l 708 236 z "},"d":{"ha":850,"x_min":6,"x_max":800,"o":"m 488 108 q 382 8 443 35 q 253 -19 321 -19 q 151 0 197 -19 q 74 55 106 19 q 24 141 42 90 q 6 253 6 192 q 32 421 6 339 q 108 567 58 503 q 231 669 158 631 q 399 708 304 708 q 522 678 472 708 q 589 581 571 647 l 606 581 l 692 992 l 800 992 l 614 117 q 632 92 610 92 q 650 99 640 92 l 700 135 l 760 53 l 697 6 q 660 -12 682 -6 q 613 -19 639 -19 q 572 -14 592 -19 q 537 3 553 -8 q 511 34 521 15 q 501 81 501 53 q 502 94 501 88 q 504 108 503 101 l 488 108 m 286 83 q 392 109 342 83 q 481 179 443 135 q 542 284 519 224 q 564 415 564 344 q 521 553 564 501 q 396 606 478 606 q 280 577 331 606 q 193 502 229 549 q 138 394 157 456 q 119 268 119 333 q 286 83 119 83 z "},"e":{"ha":850,"x_min":44,"x_max":732,"o":"m 156 311 q 151 286 153 300 q 150 257 150 272 q 194 131 150 181 q 336 82 239 82 q 423 93 385 82 q 489 124 461 104 q 537 170 517 144 q 571 225 557 196 l 660 175 q 611 99 640 135 q 542 38 582 64 q 449 -4 501 11 q 328 -19 396 -19 q 213 -1 265 -19 q 124 53 161 18 q 65 140 86 89 q 44 257 44 192 q 72 426 44 344 q 153 569 100 507 q 283 670 206 632 q 460 708 361 708 q 581 687 529 708 q 665 628 632 665 q 715 545 699 592 q 732 449 732 499 q 724 376 732 411 l 708 311 l 156 311 m 446 606 q 355 591 397 606 q 278 550 313 576 q 218 488 243 524 q 179 411 193 453 l 621 411 q 625 453 625 433 q 574 567 625 528 q 446 606 522 606 z "},"f":{"ha":850,"x_min":7,"x_max":797,"o":"m 731 689 l 731 589 l 468 589 l 301 -192 q 258 -269 290 -244 q 186 -294 225 -294 q 115 -276 142 -294 q 68 -228 88 -258 l 7 -129 l 92 -75 l 150 -168 q 175 -185 160 -185 q 191 -178 186 -185 q 199 -164 196 -172 l 360 589 l 147 589 l 147 689 l 382 689 l 418 864 q 465 942 429 911 q 549 972 501 972 l 797 972 l 797 872 l 567 872 q 519 831 528 872 l 490 689 l 731 689 z "},"g":{"ha":850,"x_min":33,"x_max":782,"o":"m 549 97 l 532 97 q 431 10 492 39 q 299 -19 371 -19 q 190 1 239 -19 q 106 57 140 21 q 52 144 71 93 q 33 258 33 196 q 62 436 33 354 q 142 578 90 518 q 267 674 194 639 q 428 708 340 708 q 563 673 510 708 q 633 581 617 638 l 650 581 l 674 689 l 782 689 l 600 -169 q 553 -247 589 -217 q 469 -278 517 -278 l 50 -278 l 50 -178 l 451 -178 q 499 -136 490 -178 l 549 97 m 322 83 q 439 112 386 83 q 530 187 492 140 q 589 293 568 233 q 610 414 610 353 q 561 553 610 500 q 431 606 513 606 q 313 578 365 606 q 223 503 260 550 q 166 396 186 457 q 146 269 146 335 q 191 133 146 183 q 322 83 236 83 z "},"h":{"ha":850,"x_min":31,"x_max":783,"o":"m 594 408 q 601 442 599 428 q 603 472 603 457 q 560 575 603 544 q 456 606 518 606 q 299 538 361 606 q 214 358 238 471 l 138 0 l 31 0 l 242 992 l 346 992 l 263 586 l 279 586 q 369 680 314 651 q 494 708 425 708 q 647 651 586 708 q 707 489 707 593 q 697 400 707 444 l 636 110 q 654 89 632 89 q 671 96 663 89 l 725 135 l 783 53 l 719 7 q 635 -19 682 -19 q 559 6 592 -19 q 526 83 526 31 q 531 119 526 99 l 594 408 z "},"i":{"ha":850,"x_min":135,"x_max":660,"o":"m 421 894 q 449 963 421 935 q 518 992 478 992 q 587 963 558 992 q 615 894 615 935 q 587 826 615 854 q 518 797 558 797 q 449 826 478 797 q 421 894 421 854 m 399 568 q 395 592 401 582 q 374 603 389 603 q 353 597 363 603 l 190 486 l 135 568 l 299 679 q 392 708 342 708 q 474 681 439 708 q 508 594 508 653 q 503 550 508 572 l 400 121 q 403 94 396 104 q 424 85 411 85 q 444 92 433 85 l 604 200 l 660 118 l 500 10 q 407 -19 456 -19 q 325 8 360 -19 q 290 94 290 36 q 296 139 290 117 l 399 568 z "},"j":{"ha":850,"x_min":0,"x_max":696,"o":"m 501 894 q 530 963 501 935 q 599 992 558 992 q 667 963 639 992 q 696 894 696 935 q 667 826 696 854 q 599 797 639 797 q 530 826 558 797 q 501 894 501 854 m 439 -169 q 393 -247 429 -217 q 310 -278 357 -278 l 0 -278 l 0 -178 l 292 -178 q 338 -136 329 -178 l 489 572 q 485 595 492 588 q 468 603 478 603 q 451 597 460 603 l 289 486 l 233 568 l 397 679 q 485 708 440 708 q 564 677 531 708 q 597 593 597 646 q 593 557 597 578 l 439 -169 z "},"k":{"ha":850,"x_min":69,"x_max":725,"o":"m 388 990 l 264 403 l 281 403 l 625 706 l 692 635 l 385 365 l 385 340 l 564 96 q 582 86 572 86 q 600 93 590 86 l 667 142 l 725 60 l 663 13 q 622 -11 643 -3 q 578 -19 601 -19 q 524 -6 550 -19 q 475 40 499 8 l 283 303 l 242 303 l 178 0 l 69 0 l 279 990 l 388 990 z "},"l":{"ha":850,"x_min":158,"x_max":618,"o":"m 422 853 q 419 878 426 869 q 397 888 411 888 q 376 881 388 888 l 214 769 l 158 851 l 322 963 q 368 985 344 978 q 415 992 392 992 q 497 964 461 992 q 532 878 532 936 q 526 833 532 854 l 358 121 q 362 94 354 104 q 382 85 369 85 q 403 92 392 85 l 563 200 l 618 118 l 458 10 q 365 -19 414 -19 q 284 8 319 -19 q 249 94 249 36 q 254 139 249 118 l 422 853 z "},"m":{"ha":850,"x_min":28,"x_max":831,"o":"m 661 517 q 663 529 663 524 q 664 542 664 535 q 649 588 664 569 q 601 606 633 606 q 538 578 561 606 q 504 500 515 550 l 397 0 l 289 0 l 399 517 q 401 546 401 531 q 388 588 401 571 q 340 606 375 606 q 274 574 296 606 q 242 500 251 542 l 135 0 l 28 0 l 174 689 l 282 689 l 269 631 l 286 631 q 333 690 301 671 q 404 708 365 708 q 474 688 447 708 q 508 631 501 667 l 525 631 q 575 688 544 668 q 650 708 606 708 q 744 672 713 708 q 776 575 776 635 q 775 548 776 563 q 771 522 774 533 l 682 108 q 685 92 679 97 q 699 86 690 86 q 714 92 707 86 l 772 135 l 831 53 l 768 6 q 730 -12 753 -6 q 683 -19 707 -19 q 643 -14 663 -19 q 608 3 624 -8 q 582 34 592 15 q 572 81 572 53 q 573 94 572 88 q 575 108 574 101 l 661 517 z "},"n":{"ha":850,"x_min":8,"x_max":763,"o":"m 574 414 q 579 447 578 433 q 581 474 581 460 q 541 573 581 540 q 431 606 501 606 q 276 538 336 606 q 194 367 217 471 l 117 0 l 8 0 l 156 689 l 264 689 l 243 589 l 260 589 q 351 680 294 651 q 469 708 407 708 q 554 694 514 708 q 624 651 594 679 q 672 583 654 624 q 689 490 689 543 q 681 417 689 456 l 614 108 q 617 92 611 97 q 631 86 622 86 q 646 92 639 86 l 704 135 l 763 53 l 708 13 q 615 -19 667 -19 q 575 -15 594 -19 q 540 2 556 -10 q 515 33 525 14 q 506 82 506 53 q 511 126 506 100 l 574 414 z "},"o":{"ha":850,"x_min":28,"x_max":738,"o":"m 457 708 q 568 688 517 708 q 657 629 619 667 q 716 540 694 592 q 738 425 738 488 q 709 259 738 339 q 626 117 681 179 q 491 18 571 56 q 310 -19 411 -19 q 200 1 251 -19 q 110 57 149 21 q 50 145 72 93 q 28 261 28 197 q 62 444 28 361 q 155 585 96 526 q 292 676 214 643 q 457 708 369 708 m 333 83 q 451 112 397 83 q 544 187 506 140 q 605 293 583 233 q 626 417 626 353 q 576 552 626 499 q 433 606 525 606 q 321 579 374 606 q 228 507 268 553 q 165 401 189 461 q 142 272 142 340 q 192 136 142 189 q 333 83 242 83 z "},"p":{"ha":850,"x_min":0,"x_max":807,"o":"m 107 -278 l 0 -278 l 182 585 q 179 606 185 600 q 163 613 174 613 q 150 608 156 613 l 74 556 l 18 638 l 83 682 q 168 708 122 708 q 256 678 224 708 q 289 589 289 647 l 289 581 l 306 581 q 406 676 347 643 q 547 708 465 708 q 652 688 604 708 q 734 633 700 668 q 788 548 768 597 q 807 442 807 499 q 783 267 807 350 q 710 119 758 183 q 589 18 661 56 q 419 -19 517 -19 q 285 16 342 -19 q 206 106 229 51 l 189 106 l 107 -278 m 406 83 q 527 111 474 83 q 617 185 581 139 q 673 293 654 232 q 692 419 692 354 q 644 558 692 511 q 517 606 596 606 q 401 576 453 606 q 311 500 349 547 q 253 393 274 453 q 232 271 232 333 q 278 133 232 182 q 406 83 324 83 z "},"q":{"ha":850,"x_min":28,"x_max":776,"o":"m 543 97 l 526 97 q 426 10 486 39 q 293 -19 365 -19 q 184 1 233 -19 q 100 57 135 21 q 47 144 65 93 q 28 258 28 196 q 56 436 28 354 q 137 578 85 518 q 262 674 189 639 q 422 708 335 708 q 558 673 504 708 q 628 581 611 638 l 644 581 l 668 689 l 776 689 l 597 -154 q 601 -181 593 -171 q 621 -190 608 -190 q 642 -183 631 -190 l 714 -135 l 769 -217 l 697 -265 q 606 -294 653 -294 q 524 -265 558 -294 q 489 -178 489 -236 q 493 -136 489 -160 l 543 97 m 317 83 q 433 112 381 83 q 524 187 486 140 q 583 293 563 233 q 604 414 604 353 q 556 553 604 500 q 425 606 507 606 q 307 578 360 606 q 217 503 254 550 q 160 396 181 457 q 140 269 140 335 q 185 133 140 183 q 317 83 231 83 z "},"r":{"ha":850,"x_min":0,"x_max":797,"o":"m 269 569 q 265 595 274 586 q 244 604 257 604 q 224 597 233 604 l 97 511 l 42 593 l 165 676 q 261 708 213 708 q 336 684 304 708 q 372 606 368 660 l 389 606 q 479 685 429 663 q 583 708 529 708 q 740 651 683 708 q 797 499 797 593 q 789 425 797 463 l 671 417 q 678 475 678 451 q 641 574 678 542 q 546 606 604 606 q 470 590 504 606 q 411 547 436 574 q 369 483 386 519 q 343 408 351 447 l 278 100 l 442 100 l 442 0 l 0 0 l 0 100 l 169 100 l 269 569 z "},"s":{"ha":850,"x_min":100,"x_max":726,"o":"m 467 611 q 409 604 439 611 q 355 583 379 597 q 315 548 331 569 q 300 497 300 526 q 340 431 300 453 q 476 401 379 408 q 631 351 576 394 q 686 225 686 308 q 662 121 686 167 q 594 44 638 75 q 492 -3 551 13 q 363 -19 433 -19 q 242 -1 292 -19 q 161 49 193 18 q 115 120 129 81 q 100 201 100 160 q 100 216 100 208 q 101 231 100 224 l 210 244 q 208 231 208 233 q 208 222 208 228 q 217 166 208 192 q 247 122 226 140 q 301 92 268 103 q 383 81 335 81 q 449 88 415 81 q 511 112 483 96 q 557 152 539 128 q 575 211 575 176 q 531 284 575 265 q 401 310 488 303 q 247 357 303 317 q 190 483 190 397 q 211 574 190 532 q 270 645 232 615 q 362 692 308 675 q 481 708 415 708 q 591 691 544 708 q 667 646 638 674 q 712 583 697 618 q 726 510 726 547 l 726 494 l 619 479 l 619 485 q 620 490 619 488 q 621 494 621 492 q 581 579 621 547 q 467 611 542 611 z "},"t":{"ha":850,"x_min":118,"x_max":710,"o":"m 118 689 l 357 689 l 421 992 l 529 992 l 465 689 l 710 689 l 710 589 l 443 589 l 344 121 q 348 94 340 104 q 368 85 356 85 q 389 92 378 85 l 574 217 l 629 135 l 444 10 q 353 -19 400 -19 q 269 10 304 -19 q 235 97 235 39 q 236 117 235 107 q 240 139 238 128 l 335 589 l 118 589 l 118 689 z "},"u":{"ha":850,"x_min":47,"x_max":771,"o":"m 507 117 l 490 117 q 394 15 453 50 q 253 -19 336 -19 q 104 33 161 -19 q 47 188 47 85 q 49 230 47 208 q 58 278 51 251 l 150 689 l 258 689 l 169 292 q 160 211 160 249 q 297 83 160 83 q 460 151 393 83 q 553 331 528 218 l 633 689 l 742 689 l 615 117 q 618 99 613 106 q 633 92 624 92 q 653 99 643 92 l 713 142 l 771 61 l 701 8 q 660 -12 685 -6 q 611 -19 636 -19 q 571 -14 590 -19 q 536 4 551 -8 q 512 35 521 17 q 503 81 503 54 q 503 94 503 88 q 506 108 504 101 l 507 117 z "},"v":{"ha":850,"x_min":0,"x_max":792,"o":"m 351 50 l 368 50 l 690 689 l 792 638 l 458 0 l 247 0 l 194 581 q 171 603 192 603 q 146 590 156 603 l 78 504 l 0 567 l 67 653 q 118 694 89 681 q 178 708 147 708 q 260 679 224 708 q 303 592 297 650 l 351 50 z "},"w":{"ha":850,"x_min":25,"x_max":817,"o":"m 121 50 l 138 50 l 351 689 l 553 689 l 499 50 l 515 50 l 722 703 l 817 674 l 596 0 l 401 0 l 453 639 l 436 639 l 219 0 l 25 0 l 88 689 l 186 689 l 121 50 z "},"x":{"ha":850,"x_min":32,"x_max":765,"o":"m 331 350 l 238 575 q 213 593 229 593 q 188 576 196 593 l 126 472 l 40 522 l 103 631 q 152 688 125 668 q 219 708 179 708 q 329 626 294 708 l 411 428 l 692 703 l 765 629 l 454 325 l 544 111 q 569 93 553 93 q 593 108 585 93 l 653 215 l 740 168 l 681 58 q 629 -1 658 18 q 563 -19 600 -19 q 499 -1 529 -19 q 451 60 469 18 l 374 246 l 106 -17 l 32 57 l 331 350 z "},"y":{"ha":850,"x_min":51,"x_max":831,"o":"m 264 292 q 254 211 254 249 q 392 83 254 83 q 556 151 488 83 q 647 331 624 218 l 722 689 l 831 689 l 649 -169 q 603 -247 639 -217 q 519 -278 567 -278 l 143 -278 l 143 -178 l 501 -178 q 547 -136 539 -178 l 600 108 l 583 108 q 484 13 542 46 q 347 -19 426 -19 q 199 36 254 -19 q 143 193 143 92 q 153 278 143 235 l 215 575 q 212 597 218 589 q 196 604 206 604 q 178 597 188 604 l 107 549 l 51 631 l 124 679 q 211 708 167 708 q 290 678 257 708 q 324 593 324 647 q 323 577 324 585 q 319 557 322 569 l 264 292 z "},"z":{"ha":850,"x_min":89,"x_max":747,"o":"m 674 100 l 674 0 l 89 0 l 89 181 l 656 572 l 656 589 l 186 589 l 186 689 l 747 689 l 747 514 l 181 117 l 181 100 l 674 100 z "},"[":{"ha":850,"x_min":239,"x_max":742,"o":"m 497 1081 q 542 1160 508 1131 q 628 1189 575 1189 l 742 1189 l 742 1089 l 646 1089 q 599 1047 607 1089 l 353 -75 q 351 -85 351 -79 l 351 -89 q 383 -117 351 -117 l 476 -117 l 476 -217 l 353 -217 q 271 -192 303 -217 q 239 -119 239 -168 q 243 -83 239 -103 l 497 1081 z "},"]":{"ha":850,"x_min":113,"x_max":615,"o":"m 357 -108 q 313 -187 346 -158 q 226 -217 279 -217 l 113 -217 l 113 -117 l 208 -117 q 256 -75 247 -117 l 501 1047 q 502 1052 501 1050 q 503 1057 503 1054 l 503 1061 q 471 1089 503 1089 l 378 1089 l 378 1189 l 501 1189 q 583 1165 551 1189 q 615 1092 615 1140 q 611 1056 615 1074 l 357 -108 z "},"{":{"ha":850,"x_min":261,"x_max":763,"o":"m 518 1081 q 561 1161 529 1133 q 649 1189 593 1189 l 763 1189 l 763 1089 l 667 1089 q 619 1047 628 1089 l 522 603 q 478 524 511 553 q 392 494 444 494 l 371 494 l 371 478 l 388 478 q 449 456 425 478 q 472 393 472 433 q 472 381 472 386 q 469 364 472 375 l 374 -76 q 372 -89 372 -83 q 407 -117 372 -117 l 497 -117 l 497 -217 l 378 -217 q 294 -192 328 -217 q 261 -115 261 -168 q 262 -95 261 -104 q 265 -75 263 -86 l 363 371 q 364 385 364 378 q 333 411 364 411 l 279 411 l 279 561 l 368 561 q 414 601 406 561 l 518 1081 z "},"}":{"ha":850,"x_min":88,"x_max":589,"o":"m 332 -108 q 289 -189 321 -161 q 201 -217 257 -217 l 88 -217 l 88 -117 l 183 -117 q 231 -75 222 -117 l 328 369 q 372 449 339 419 q 458 478 406 478 l 479 478 l 479 494 l 463 494 q 401 517 425 494 q 378 579 378 539 q 378 592 378 586 q 381 608 378 597 l 476 1049 q 478 1061 478 1056 q 443 1089 478 1089 l 353 1089 l 353 1189 l 472 1189 q 556 1165 522 1189 q 589 1088 589 1140 q 588 1067 589 1076 q 585 1047 588 1058 l 488 601 q 486 588 486 594 q 517 561 486 561 l 571 561 l 571 411 l 482 411 q 436 371 444 411 l 332 -108 z "},"(":{"ha":850,"x_min":108,"x_max":850,"o":"m 574 -114 l 574 -217 l 501 -217 q 347 -190 418 -217 q 222 -112 275 -162 q 138 14 168 -61 q 108 185 108 89 q 125 328 108 250 l 201 686 q 284 918 231 822 q 413 1074 338 1014 q 585 1162 489 1135 q 797 1189 682 1189 l 850 1189 l 850 1086 l 786 1086 q 623 1065 700 1086 q 483 994 546 1044 q 375 862 421 944 q 303 656 329 779 l 232 317 q 218 193 218 253 q 241 58 218 115 q 305 -37 264 1 q 401 -95 346 -76 q 524 -114 457 -114 l 574 -114 z "},")":{"ha":850,"x_min":0,"x_max":742,"o":"m 276 1086 l 276 1189 l 349 1189 q 503 1162 432 1189 q 628 1084 575 1135 q 712 958 682 1033 q 742 788 742 883 q 725 644 742 721 l 649 286 q 566 54 619 150 q 437 -102 513 -42 q 265 -190 361 -162 q 53 -217 168 -217 l 0 -217 l 0 -114 l 64 -114 q 226 -93 150 -114 q 365 -22 303 -72 q 474 110 428 28 q 547 317 521 193 l 618 656 q 632 779 632 719 q 609 913 632 856 q 545 1010 586 971 q 449 1067 504 1049 q 326 1086 393 1086 l 276 1086 z "},"/":{"ha":850,"x_min":54,"x_max":796,"o":"m 713 1119 l 796 1072 l 138 -147 l 54 -99 l 713 1119 z "},"|":{"ha":850,"x_min":219,"x_max":633,"o":"m 322 -217 l 219 -217 l 531 1189 l 633 1189 l 322 -217 z "},"¦":{"ha":850,"x_min":219,"x_max":633,"o":"m 467 436 l 322 -217 l 219 -217 l 364 436 l 467 436 m 386 536 l 531 1189 l 633 1189 l 489 536 l 386 536 z "},"\\":{"ha":850,"x_min":306,"x_max":551,"o":"m 551 -135 l 450 -147 l 306 1107 l 406 1119 l 551 -135 z "},"'":{"ha":850,"x_min":406,"x_max":600,"o":"m 406 894 q 434 963 406 935 q 503 992 463 992 q 572 963 543 992 q 600 894 600 935 q 578 833 600 860 q 522 799 556 806 l 490 650 l 417 665 l 450 813 q 418 848 431 826 q 406 894 406 869 z "},"\"":{"ha":850,"x_min":283,"x_max":731,"o":"m 283 894 q 312 963 283 935 q 381 992 340 992 q 449 963 421 992 q 478 894 478 935 q 456 833 478 860 q 400 799 433 806 l 368 650 l 294 665 l 328 813 q 296 848 308 826 q 283 894 283 869 m 536 894 q 565 963 536 935 q 633 992 593 992 q 702 963 674 992 q 731 894 731 935 q 708 833 731 860 q 653 799 686 806 l 621 650 l 547 665 l 581 813 q 549 848 561 826 q 536 894 536 869 z "},"‘":{"ha":850,"x_min":386,"x_max":614,"o":"m 581 747 q 552 678 581 707 q 483 650 524 650 q 415 678 443 650 q 386 747 386 707 q 388 764 386 757 l 413 883 q 456 964 424 936 q 542 992 488 992 l 614 992 l 614 917 l 532 917 q 485 875 493 917 l 478 844 l 483 844 q 552 816 524 844 q 581 747 581 788 z "},"’":{"ha":850,"x_min":381,"x_max":608,"o":"m 414 894 q 442 963 414 935 q 511 992 471 992 q 580 963 551 992 q 608 894 608 935 q 607 878 608 885 l 582 758 q 539 678 571 706 q 453 650 507 650 l 381 650 l 381 725 l 463 725 q 510 767 501 725 l 517 797 l 511 797 q 442 826 471 797 q 414 894 414 854 z "},"“":{"ha":850,"x_min":267,"x_max":747,"o":"m 461 747 q 433 678 461 707 q 364 650 404 650 q 295 678 324 650 q 267 747 267 707 q 268 764 267 757 l 293 883 q 336 964 304 936 q 422 992 368 992 l 494 992 l 494 917 l 413 917 q 365 875 374 917 l 358 844 l 364 844 q 433 816 404 844 q 461 747 461 788 m 714 747 q 685 678 714 707 q 617 650 657 650 q 548 678 576 650 q 519 747 519 707 q 521 764 519 757 l 546 883 q 589 964 557 936 q 675 992 621 992 l 747 992 l 747 917 l 665 917 q 618 875 626 917 l 611 844 l 617 844 q 685 816 657 844 q 714 747 714 788 z "},"”":{"ha":850,"x_min":258,"x_max":739,"o":"m 292 894 q 320 963 292 935 q 389 992 349 992 q 458 963 429 992 q 486 894 486 935 q 485 878 486 885 l 460 758 q 417 678 449 706 q 331 650 385 650 l 258 650 l 258 725 l 340 725 q 388 767 379 725 l 394 797 l 389 797 q 320 826 349 797 q 292 894 292 854 m 544 894 q 573 963 544 935 q 642 992 601 992 q 710 963 682 992 q 739 894 739 935 q 738 878 739 885 l 713 758 q 669 678 701 706 q 583 650 638 650 l 511 650 l 511 725 l 593 725 q 640 767 632 725 l 647 797 l 642 797 q 573 826 601 797 q 544 894 544 854 z "},"‚":{"ha":850,"x_min":242,"x_max":469,"o":"m 275 97 q 303 166 275 138 q 372 194 332 194 q 441 166 413 194 q 469 97 469 138 q 468 81 469 88 l 443 -39 q 400 -119 432 -92 q 314 -147 368 -147 l 242 -147 l 242 -72 l 324 -72 q 371 -31 363 -72 l 378 0 l 372 0 q 303 28 332 0 q 275 97 275 57 z "},"„":{"ha":850,"x_min":92,"x_max":572,"o":"m 125 97 q 153 166 125 138 q 222 194 182 194 q 291 166 263 194 q 319 97 319 138 q 318 81 319 88 l 293 -39 q 250 -119 282 -92 q 164 -147 218 -147 l 92 -147 l 92 -72 l 174 -72 q 221 -31 213 -72 l 228 0 l 222 0 q 153 28 182 0 q 125 97 125 57 m 378 97 q 406 166 378 138 q 475 194 435 194 q 544 166 515 194 q 572 97 572 138 q 571 81 572 88 l 546 -39 q 503 -119 535 -92 q 417 -147 471 -147 l 344 -147 l 344 -72 l 426 -72 q 474 -31 465 -72 l 481 0 l 475 0 q 406 28 435 0 q 378 97 378 57 z "},".":{"ha":850,"x_min":258,"x_max":453,"o":"m 258 78 q 287 147 258 118 q 356 175 315 175 q 424 147 396 175 q 453 78 453 118 q 424 9 453 38 q 356 -19 396 -19 q 287 9 315 -19 q 258 78 258 38 z "},",":{"ha":850,"x_min":233,"x_max":461,"o":"m 267 78 q 295 147 267 118 q 364 175 324 175 q 433 147 404 175 q 461 78 461 118 q 460 61 461 68 l 435 -58 q 392 -139 424 -111 q 306 -167 360 -167 l 233 -167 l 233 -92 l 315 -92 q 363 -50 354 -92 l 369 -19 l 364 -19 q 295 9 324 -19 q 267 78 267 38 z "},":":{"ha":850,"x_min":247,"x_max":558,"o":"m 247 78 q 276 147 247 118 q 344 175 304 175 q 413 147 385 175 q 442 78 442 118 q 413 9 442 38 q 344 -19 385 -19 q 276 9 304 -19 q 247 78 247 38 m 364 611 q 392 680 364 651 q 461 708 421 708 q 530 680 501 708 q 558 611 558 651 q 530 542 558 571 q 461 514 501 514 q 392 542 421 514 q 364 611 364 571 z "},";":{"ha":850,"x_min":214,"x_max":558,"o":"m 364 611 q 392 680 364 651 q 461 708 421 708 q 530 680 501 708 q 558 611 558 651 q 530 542 558 571 q 461 514 501 514 q 392 542 421 514 q 364 611 364 571 m 247 78 q 276 147 247 118 q 344 175 304 175 q 413 147 385 175 q 442 78 442 118 q 440 61 442 68 l 415 -58 q 372 -139 404 -111 q 286 -167 340 -167 l 214 -167 l 214 -92 l 296 -92 q 343 -50 335 -92 l 350 -19 l 344 -19 q 276 9 304 -19 q 247 78 247 38 z "},"…":{"ha":850,"x_min":83,"x_max":767,"o":"m 83 78 q 112 147 83 118 q 181 175 140 175 q 249 147 221 175 q 278 78 278 118 q 249 9 278 38 q 181 -19 221 -19 q 112 9 140 -19 q 83 78 83 38 m 328 78 q 356 147 328 118 q 425 175 385 175 q 494 147 465 175 q 522 78 522 118 q 494 9 522 38 q 425 -19 465 -19 q 356 9 385 -19 q 328 78 328 38 m 572 78 q 601 147 572 118 q 669 175 629 175 q 738 147 710 175 q 767 78 767 118 q 738 9 767 38 q 669 -19 710 -19 q 601 9 629 -19 q 572 78 572 38 z "},"!":{"ha":850,"x_min":243,"x_max":586,"o":"m 586 972 l 432 258 l 321 258 l 475 972 l 586 972 m 243 78 q 272 147 243 118 q 340 175 300 175 q 409 147 381 175 q 438 78 438 118 q 409 9 438 38 q 340 -19 381 -19 q 272 9 300 -19 q 243 78 243 38 z "},"¡":{"ha":850,"x_min":214,"x_max":565,"o":"m 214 -278 l 376 436 l 488 436 l 325 -278 l 214 -278 m 565 617 q 537 548 565 576 q 468 519 508 519 q 399 548 428 519 q 371 617 371 576 q 399 685 371 657 q 468 714 428 714 q 537 685 508 714 q 565 617 565 657 z "},"?":{"ha":850,"x_min":125,"x_max":800,"o":"m 492 508 q 569 526 535 508 q 628 572 604 543 q 666 640 653 601 q 679 721 679 679 q 633 836 679 789 q 500 883 588 883 q 341 824 406 883 q 254 661 276 765 l 242 603 l 125 603 l 139 669 q 266 905 171 818 q 514 992 361 992 q 631 972 578 992 q 721 917 683 951 q 779 835 758 882 q 800 732 800 788 q 779 613 800 672 q 718 508 758 554 q 619 432 678 461 q 483 403 560 403 l 467 403 q 417 361 425 403 l 396 258 l 285 258 l 313 389 q 360 477 324 446 q 458 508 397 508 l 492 508 m 208 78 q 237 147 208 118 q 306 175 265 175 q 374 147 346 175 q 403 78 403 118 q 374 9 403 38 q 306 -19 346 -19 q 237 9 265 -19 q 208 78 208 38 z "},"¿":{"ha":850,"x_min":13,"x_max":688,"o":"m 321 189 q 243 172 278 189 q 184 125 208 154 q 147 57 160 96 q 133 -24 133 18 q 179 -139 133 -92 q 313 -186 225 -186 q 472 -127 407 -186 q 558 36 536 -68 l 571 94 l 688 94 l 674 28 q 547 -208 642 -121 q 299 -294 451 -294 q 181 -274 233 -294 q 90 -219 128 -254 q 33 -137 53 -185 q 13 -35 13 -90 q 33 83 13 25 q 94 189 54 142 q 194 265 135 236 q 329 294 253 294 l 346 294 q 396 336 388 294 l 417 439 l 528 439 l 500 308 q 452 220 489 251 q 354 189 415 189 l 321 189 m 604 619 q 576 551 604 579 q 507 522 547 522 q 438 551 467 522 q 410 619 410 579 q 438 688 410 660 q 507 717 467 717 q 576 688 547 717 q 604 619 604 660 z "},"‹":{"ha":850,"x_min":214,"x_max":619,"o":"m 471 17 l 214 233 l 214 450 l 611 672 l 619 672 l 619 550 l 256 350 l 256 336 l 479 150 l 479 17 l 471 17 z "},"›":{"ha":850,"x_min":167,"x_max":572,"o":"m 315 672 l 572 456 l 572 239 l 175 17 l 167 17 l 167 139 l 531 339 l 531 353 l 307 539 l 307 672 l 315 672 z "},"«":{"ha":850,"x_min":57,"x_max":794,"o":"m 314 17 l 57 233 l 57 450 l 454 672 l 463 672 l 463 550 l 99 350 l 99 336 l 322 150 l 322 17 l 314 17 m 646 17 l 389 233 l 389 450 l 786 672 l 794 672 l 794 550 l 431 350 l 431 336 l 654 150 l 654 17 l 646 17 z "},"»":{"ha":850,"x_min":7,"x_max":744,"o":"m 488 672 l 744 456 l 744 239 l 347 17 l 339 17 l 339 139 l 703 339 l 703 353 l 479 539 l 479 672 l 488 672 m 156 672 l 413 456 l 413 239 l 15 17 l 7 17 l 7 139 l 371 339 l 371 353 l 147 539 l 147 672 l 156 672 z "},"-":{"ha":850,"x_min":217,"x_max":633,"o":"m 217 411 l 633 411 l 633 311 l 217 311 l 217 411 z "},"–":{"ha":850,"x_min":101,"x_max":749,"o":"m 101 411 l 749 411 l 749 311 l 101 311 l 101 411 z "},"—":{"ha":850,"x_min":17,"x_max":833,"o":"m 17 411 l 833 411 l 833 311 l 17 311 l 17 411 z "},"·":{"ha":850,"x_min":328,"x_max":522,"o":"m 328 486 q 356 555 328 526 q 425 583 385 583 q 494 555 465 583 q 522 486 522 526 q 494 417 522 446 q 425 389 465 389 q 356 417 385 389 q 328 486 328 446 z "},"•":{"ha":850,"x_min":261,"x_max":589,"o":"m 261 486 q 274 549 261 519 q 310 601 288 579 q 362 637 332 624 q 425 650 392 650 q 488 637 458 650 q 540 601 518 624 q 576 549 563 579 q 589 486 589 519 q 576 423 589 453 q 540 371 563 393 q 488 335 518 349 q 425 322 458 322 q 362 335 392 322 q 310 371 332 349 q 274 423 288 393 q 261 486 261 453 z "},"_":{"ha":850,"x_min":6,"x_max":653,"o":"m 6 -67 l 653 -67 l 653 -167 l 6 -167 l 6 -67 z "},"@":{"ha":850,"x_min":6,"x_max":808,"o":"m 146 708 l 146 808 l 571 808 q 674 793 629 808 q 748 751 718 778 q 793 685 778 724 q 808 603 808 647 q 801 542 808 576 l 710 108 q 664 29 699 58 q 579 0 629 0 l 468 0 q 405 20 424 0 q 386 69 386 40 q 389 92 386 78 l 372 92 q 301 10 349 39 q 188 -19 254 -19 q 54 40 103 -19 q 6 196 6 100 q 25 343 6 269 q 83 476 44 417 q 181 572 122 535 q 318 608 240 608 q 413 583 381 608 q 454 514 446 558 l 471 514 l 486 589 l 594 589 l 500 142 q 499 132 499 135 q 499 126 499 129 q 528 100 499 100 l 561 100 q 608 142 600 100 l 692 536 q 699 590 699 568 q 665 677 699 646 q 557 708 632 708 l 146 708 m 231 83 q 326 113 288 83 q 390 186 365 142 q 424 283 414 231 q 435 383 435 336 q 410 471 435 436 q 321 506 385 506 q 233 478 271 506 q 169 408 194 450 q 130 315 143 365 q 117 217 117 264 q 145 119 117 156 q 231 83 174 83 z "},"&":{"ha":850,"x_min":11,"x_max":797,"o":"m 797 433 l 653 433 l 561 0 l 256 0 q 76 60 140 0 q 11 221 11 121 q 69 387 11 318 q 232 479 128 456 l 232 496 q 144 558 179 514 q 108 674 108 603 q 135 795 108 740 q 208 890 161 850 q 318 951 254 929 q 457 972 382 972 l 611 972 l 611 864 l 442 864 q 358 851 397 864 q 287 812 318 838 q 238 749 256 786 q 219 664 219 711 q 259 574 219 606 q 369 542 299 542 l 560 542 l 592 689 l 708 689 l 676 542 l 797 542 l 797 433 m 468 108 l 536 433 l 346 433 q 263 419 303 433 q 193 380 224 406 q 144 319 163 354 q 126 240 126 283 q 169 143 126 178 q 282 108 211 108 l 468 108 z "},"*":{"ha":850,"x_min":78,"x_max":772,"o":"m 742 632 l 596 538 l 521 514 l 524 496 l 589 503 l 772 464 l 751 365 l 568 404 l 511 436 l 501 422 l 561 369 l 654 224 l 571 169 l 476 315 l 453 390 l 435 388 l 442 322 l 403 139 l 304 160 l 343 343 l 375 400 l 361 410 l 308 350 l 163 257 l 108 340 l 254 435 l 329 458 l 326 476 l 261 469 l 78 508 l 99 607 l 282 568 l 339 536 l 349 550 l 289 603 l 196 749 l 279 803 l 374 657 l 397 582 l 415 585 l 408 650 l 447 833 l 546 813 l 507 629 l 475 572 l 489 563 l 542 622 l 688 715 l 742 632 z "},"À":{"ha":850,"x_min":-58,"x_max":715,"o":"m 582 242 l 192 242 l 74 0 l -58 0 l 424 972 l 646 972 l 715 0 l 597 0 l 582 242 m 244 350 l 575 350 l 539 921 l 522 921 l 244 350 m 521 1239 l 578 1075 l 486 1075 l 404 1239 l 521 1239 z "},"Á":{"ha":850,"x_min":-58,"x_max":738,"o":"m 582 242 l 192 242 l 74 0 l -58 0 l 424 972 l 646 972 l 715 0 l 597 0 l 582 242 m 244 350 l 575 350 l 539 921 l 522 921 l 244 350 m 738 1239 l 738 1231 l 594 1075 l 483 1075 l 610 1239 l 738 1239 z "},"Â":{"ha":850,"x_min":-58,"x_max":733,"o":"m 582 242 l 192 242 l 74 0 l -58 0 l 424 972 l 646 972 l 715 0 l 597 0 l 582 242 m 244 350 l 575 350 l 539 921 l 522 921 l 244 350 m 346 1075 l 346 1083 l 485 1239 l 657 1239 l 733 1075 l 629 1075 l 575 1197 l 558 1197 l 464 1075 l 346 1075 z "},"Ã":{"ha":850,"x_min":-58,"x_max":801,"o":"m 582 242 l 192 242 l 74 0 l -58 0 l 424 972 l 646 972 l 715 0 l 597 0 l 582 242 m 244 350 l 575 350 l 539 921 l 522 921 l 244 350 m 607 1175 q 621 1154 614 1161 q 640 1147 628 1147 q 667 1161 654 1147 l 733 1238 l 801 1179 l 744 1111 q 699 1070 725 1088 q 636 1053 672 1053 q 570 1072 593 1053 q 524 1135 547 1092 q 508 1158 514 1151 q 490 1165 501 1165 q 460 1149 475 1165 l 396 1075 l 328 1133 l 385 1201 q 431 1242 404 1225 q 494 1260 457 1260 q 558 1240 535 1260 q 607 1175 582 1219 z "},"Ä":{"ha":850,"x_min":-58,"x_max":792,"o":"m 582 242 l 192 242 l 74 0 l -58 0 l 424 972 l 646 972 l 715 0 l 597 0 l 582 242 m 244 350 l 575 350 l 539 921 l 522 921 l 244 350 m 319 1172 q 348 1241 319 1213 q 417 1269 376 1269 q 485 1241 457 1269 q 514 1172 514 1213 q 485 1103 514 1132 q 417 1075 457 1075 q 348 1103 376 1075 q 319 1172 319 1132 m 597 1172 q 626 1241 597 1213 q 694 1269 654 1269 q 763 1241 735 1269 q 792 1172 792 1213 q 763 1103 792 1132 q 694 1075 735 1075 q 626 1103 654 1075 q 597 1172 597 1132 z "},"Ā":{"ha":850,"x_min":-58,"x_max":735,"o":"m 582 242 l 192 242 l 74 0 l -58 0 l 424 972 l 646 972 l 715 0 l 597 0 l 582 242 m 244 350 l 575 350 l 539 921 l 522 921 l 244 350 m 735 1075 l 343 1075 l 343 1167 l 735 1167 l 735 1075 z "},"Ă":{"ha":850,"x_min":-58,"x_max":733,"o":"m 582 242 l 192 242 l 74 0 l -58 0 l 424 972 l 646 972 l 715 0 l 597 0 l 582 242 m 244 350 l 575 350 l 539 921 l 522 921 l 244 350 m 733 1239 l 729 1219 q 672 1112 714 1149 q 554 1075 629 1075 q 449 1117 485 1075 q 426 1219 414 1158 l 431 1239 l 525 1239 l 521 1224 q 527 1181 514 1197 q 568 1165 540 1165 q 613 1183 599 1165 q 632 1222 626 1200 l 636 1239 l 733 1239 z "},"Å":{"ha":850,"x_min":-58,"x_max":715,"o":"m 582 242 l 192 242 l 74 0 l -58 0 l 424 972 l 646 972 l 715 0 l 597 0 l 582 242 m 244 350 l 575 350 l 539 921 l 522 921 l 244 350 m 406 1214 q 447 1315 406 1274 q 547 1356 488 1356 q 648 1315 607 1356 q 689 1214 689 1274 q 648 1113 689 1154 q 547 1072 607 1072 q 447 1113 488 1072 q 406 1214 406 1154 m 489 1214 q 506 1172 489 1189 q 547 1156 522 1156 q 589 1172 572 1156 q 606 1214 606 1189 q 589 1256 606 1239 q 547 1272 572 1272 q 506 1256 522 1272 q 489 1214 489 1239 z "},"Ǎ":{"ha":850,"x_min":-58,"x_max":774,"o":"m 582 242 l 192 242 l 74 0 l -58 0 l 424 972 l 646 972 l 715 0 l 597 0 l 582 242 m 244 350 l 575 350 l 539 921 l 522 921 l 244 350 m 774 1239 l 774 1231 l 635 1075 l 463 1075 l 386 1239 l 499 1239 l 546 1117 l 563 1117 l 658 1239 l 774 1239 z "},"Ą":{"ha":850,"x_min":-58,"x_max":731,"o":"m 582 242 l 192 242 l 74 0 l -58 0 l 424 972 l 646 972 l 715 0 l 692 0 l 650 -94 q 646 -112 646 -106 q 672 -136 646 -136 l 731 -136 l 731 -228 l 633 -228 q 573 -206 599 -228 q 547 -143 547 -183 q 558 -92 547 -118 l 597 0 l 582 242 m 244 350 l 575 350 l 539 921 l 522 921 l 244 350 z "},"Ạ":{"ha":850,"x_min":-58,"x_max":715,"o":"m 582 242 l 192 242 l 74 0 l -58 0 l 424 972 l 646 972 l 715 0 l 597 0 l 582 242 m 244 350 l 575 350 l 539 921 l 522 921 l 244 350 m 246 -185 q 274 -116 246 -144 q 343 -87 303 -87 q 412 -116 383 -87 q 440 -185 440 -144 q 412 -253 440 -225 q 343 -282 383 -282 q 274 -253 303 -282 q 246 -185 246 -225 z "},"Ả":{"ha":850,"x_min":-58,"x_max":774,"o":"m 500 1042 l 500 1169 l 507 1178 l 607 1178 q 646 1157 619 1157 q 699 1214 699 1157 q 683 1254 699 1239 q 640 1269 668 1269 q 599 1254 615 1269 q 575 1214 582 1239 l 513 1239 q 560 1308 529 1281 q 649 1336 592 1336 q 738 1303 703 1336 q 774 1219 774 1269 q 740 1129 774 1167 q 657 1092 707 1092 q 606 1103 628 1092 q 576 1136 585 1115 l 568 1136 l 568 1042 l 500 1042 m 582 242 l 192 242 l 74 0 l -58 0 l 424 972 l 646 972 l 715 0 l 597 0 l 582 242 m 244 350 l 575 350 l 539 921 l 522 921 l 244 350 z "},"Ấ":{"ha":850,"x_min":-58,"x_max":997,"o":"m 582 242 l 192 242 l 74 0 l -58 0 l 424 972 l 646 972 l 715 0 l 597 0 l 582 242 m 244 350 l 575 350 l 539 921 l 522 921 l 244 350 m 363 1075 l 363 1083 l 501 1239 l 674 1239 l 750 1075 l 646 1075 l 592 1197 l 575 1197 l 481 1075 l 363 1075 m 997 1361 l 997 1353 l 854 1197 l 743 1197 l 869 1361 l 997 1361 z "},"Ầ":{"ha":850,"x_min":-58,"x_max":750,"o":"m 582 242 l 192 242 l 74 0 l -58 0 l 424 972 l 646 972 l 715 0 l 597 0 l 582 242 m 244 350 l 575 350 l 539 921 l 522 921 l 244 350 m 354 1356 l 411 1192 l 319 1192 l 238 1356 l 354 1356 m 363 1075 l 363 1083 l 501 1239 l 674 1239 l 750 1075 l 646 1075 l 592 1197 l 575 1197 l 481 1075 l 363 1075 z "},"Ẩ":{"ha":850,"x_min":-58,"x_max":1019,"o":"m 746 1192 l 746 1319 l 753 1328 l 853 1328 q 892 1307 865 1307 q 944 1364 944 1307 q 929 1404 944 1389 q 886 1419 914 1419 q 844 1404 861 1419 q 821 1364 828 1389 l 758 1389 q 806 1458 775 1431 q 894 1486 838 1486 q 984 1453 949 1486 q 1019 1369 1019 1419 q 986 1279 1019 1317 q 903 1242 953 1242 q 852 1253 874 1242 q 822 1286 831 1265 l 814 1286 l 814 1192 l 746 1192 m 582 242 l 192 242 l 74 0 l -58 0 l 424 972 l 646 972 l 715 0 l 597 0 l 582 242 m 244 350 l 575 350 l 539 921 l 522 921 l 244 350 m 363 1075 l 363 1083 l 501 1239 l 674 1239 l 750 1075 l 646 1075 l 592 1197 l 575 1197 l 481 1075 l 363 1075 z "},"Ẫ":{"ha":850,"x_min":-58,"x_max":843,"o":"m 582 242 l 192 242 l 74 0 l -58 0 l 424 972 l 646 972 l 715 0 l 597 0 l 582 242 m 244 350 l 575 350 l 539 921 l 522 921 l 244 350 m 335 1014 l 335 1022 l 474 1178 l 646 1178 l 722 1014 l 618 1014 l 564 1136 l 547 1136 l 453 1014 l 335 1014 m 649 1342 q 663 1321 656 1328 q 682 1314 669 1314 q 708 1328 696 1314 l 775 1404 l 843 1346 l 786 1278 q 740 1237 767 1254 q 678 1219 714 1219 q 612 1239 635 1219 q 565 1301 589 1258 q 549 1325 556 1318 q 532 1332 543 1332 q 501 1315 517 1332 l 438 1242 l 369 1300 l 426 1368 q 472 1409 446 1392 q 536 1426 499 1426 q 600 1406 576 1426 q 649 1342 624 1386 z "},"Ậ":{"ha":850,"x_min":-58,"x_max":750,"o":"m 582 242 l 192 242 l 74 0 l -58 0 l 424 972 l 646 972 l 715 0 l 597 0 l 582 242 m 244 350 l 575 350 l 539 921 l 522 921 l 244 350 m 363 1075 l 363 1083 l 501 1239 l 674 1239 l 750 1075 l 646 1075 l 592 1197 l 575 1197 l 481 1075 l 363 1075 m 246 -185 q 274 -116 246 -144 q 343 -87 303 -87 q 412 -116 383 -87 q 440 -185 440 -144 q 412 -253 440 -225 q 343 -282 383 -282 q 274 -253 303 -282 q 246 -185 246 -225 z "},"Ắ":{"ha":850,"x_min":-58,"x_max":776,"o":"m 582 242 l 192 242 l 74 0 l -58 0 l 424 972 l 646 972 l 715 0 l 597 0 l 582 242 m 244 350 l 575 350 l 539 921 l 522 921 l 244 350 m 721 1178 l 717 1158 q 659 1051 701 1088 q 542 1014 617 1014 q 437 1056 472 1014 q 414 1158 401 1097 l 418 1178 l 513 1178 l 508 1163 q 515 1120 501 1136 q 556 1104 528 1104 q 600 1122 586 1104 q 619 1161 614 1139 l 624 1178 l 721 1178 m 776 1383 l 776 1375 l 633 1219 l 522 1219 l 649 1383 l 776 1383 z "},"Ằ":{"ha":850,"x_min":-58,"x_max":721,"o":"m 582 242 l 192 242 l 74 0 l -58 0 l 424 972 l 646 972 l 715 0 l 597 0 l 582 242 m 244 350 l 575 350 l 539 921 l 522 921 l 244 350 m 557 1383 l 614 1219 l 522 1219 l 440 1383 l 557 1383 m 721 1178 l 717 1158 q 659 1051 701 1088 q 542 1014 617 1014 q 437 1056 472 1014 q 414 1158 401 1097 l 418 1178 l 513 1178 l 508 1163 q 515 1120 501 1136 q 556 1104 528 1104 q 600 1122 586 1104 q 619 1161 614 1139 l 624 1178 l 721 1178 z "},"Ẳ":{"ha":850,"x_min":-58,"x_max":819,"o":"m 546 1219 l 546 1347 l 553 1356 l 653 1356 q 692 1335 665 1335 q 744 1392 744 1335 q 729 1432 744 1417 q 686 1447 714 1447 q 644 1432 661 1447 q 621 1392 628 1417 l 558 1417 q 606 1486 575 1458 q 694 1514 638 1514 q 784 1481 749 1514 q 819 1397 819 1447 q 786 1307 819 1344 q 703 1269 753 1269 q 652 1281 674 1269 q 622 1314 631 1293 l 614 1314 l 614 1219 l 546 1219 m 582 242 l 192 242 l 74 0 l -58 0 l 424 972 l 646 972 l 715 0 l 597 0 l 582 242 m 244 350 l 575 350 l 539 921 l 522 921 l 244 350 m 721 1178 l 717 1158 q 659 1051 701 1088 q 542 1014 617 1014 q 437 1056 472 1014 q 414 1158 401 1097 l 418 1178 l 513 1178 l 508 1163 q 515 1120 501 1136 q 556 1104 528 1104 q 600 1122 586 1104 q 619 1161 614 1139 l 624 1178 l 721 1178 z "},"Ẵ":{"ha":850,"x_min":-58,"x_max":843,"o":"m 582 242 l 192 242 l 74 0 l -58 0 l 424 972 l 646 972 l 715 0 l 597 0 l 582 242 m 244 350 l 575 350 l 539 921 l 522 921 l 244 350 m 649 1342 q 663 1321 656 1328 q 682 1314 669 1314 q 708 1328 696 1314 l 775 1404 l 843 1346 l 786 1278 q 740 1237 767 1254 q 678 1219 714 1219 q 612 1239 635 1219 q 565 1301 589 1258 q 549 1325 556 1318 q 532 1332 543 1332 q 501 1315 517 1332 l 438 1242 l 369 1300 l 426 1368 q 472 1409 446 1392 q 536 1426 499 1426 q 600 1406 576 1426 q 649 1342 624 1386 m 721 1178 l 717 1158 q 659 1051 701 1088 q 542 1014 617 1014 q 437 1056 472 1014 q 414 1158 401 1097 l 418 1178 l 513 1178 l 508 1163 q 515 1120 501 1136 q 556 1104 528 1104 q 600 1122 586 1104 q 619 1161 614 1139 l 624 1178 l 721 1178 z "},"Ặ":{"ha":850,"x_min":-58,"x_max":733,"o":"m 582 242 l 192 242 l 74 0 l -58 0 l 424 972 l 646 972 l 715 0 l 597 0 l 582 242 m 244 350 l 575 350 l 539 921 l 522 921 l 244 350 m 246 -185 q 274 -116 246 -144 q 343 -87 303 -87 q 412 -116 383 -87 q 440 -185 440 -144 q 412 -253 440 -225 q 343 -282 383 -282 q 274 -253 303 -282 q 246 -185 246 -225 m 733 1239 l 729 1219 q 672 1112 714 1149 q 554 1075 629 1075 q 449 1117 485 1075 q 426 1219 414 1158 l 431 1239 l 525 1239 l 521 1224 q 527 1181 514 1197 q 568 1165 540 1165 q 613 1183 599 1165 q 632 1222 626 1200 l 636 1239 l 733 1239 z "},"Æ":{"ha":850,"x_min":-67,"x_max":832,"o":"m 383 242 l 183 242 l 61 0 l -67 0 l 433 972 l 832 972 l 832 864 l 632 864 l 564 542 l 732 542 l 732 433 l 540 433 l 472 108 l 657 108 l 657 0 l 332 0 l 383 242 m 239 350 l 407 350 l 515 864 l 499 864 l 239 350 z "},"Ƀ":{"ha":850,"x_min":3,"x_max":799,"o":"m 3 108 l 94 108 l 117 217 l 42 217 l 42 325 l 140 325 l 254 864 l 163 864 l 163 972 l 546 972 q 735 908 672 972 q 799 743 799 843 q 783 661 799 701 q 740 588 768 621 q 672 531 713 556 q 581 496 631 507 l 581 479 q 671 415 639 463 q 703 304 703 367 q 676 181 703 238 q 604 85 650 125 q 494 22 558 44 q 356 0 431 0 l 3 0 l 3 108 m 303 542 l 467 542 q 548 555 508 542 q 618 593 588 568 q 667 655 649 618 q 685 739 685 692 q 644 831 685 797 q 531 864 604 864 l 371 864 l 303 542 m 256 325 l 392 325 l 392 217 l 233 217 l 211 108 l 371 108 q 458 122 417 108 q 529 162 499 136 q 577 223 560 188 q 594 300 594 258 q 554 399 594 364 q 443 433 514 433 l 279 433 l 256 325 z "},"Ç":{"ha":850,"x_min":53,"x_max":810,"o":"m 344 89 q 449 107 404 89 q 526 157 494 125 q 580 234 558 189 q 615 333 601 279 l 619 350 l 736 350 l 732 333 q 683 190 713 254 q 608 79 653 125 q 499 8 563 33 q 350 -19 436 -18 l 324 -94 l 332 -94 q 407 -50 356 -50 q 477 -81 453 -50 q 501 -153 501 -111 q 466 -255 501 -215 q 357 -294 431 -294 q 267 -267 300 -294 q 226 -197 233 -240 l 296 -174 q 313 -212 299 -196 q 360 -228 328 -228 q 409 -210 392 -228 q 426 -164 426 -193 q 413 -128 426 -139 q 382 -117 400 -117 q 358 -122 367 -117 q 344 -136 350 -128 l 240 -136 l 240 -119 l 276 -17 q 111 69 169 -1 q 53 247 53 139 q 56 309 53 276 q 67 378 60 342 l 113 594 q 258 892 154 792 q 531 992 361 992 q 649 972 597 992 q 737 919 701 953 q 791 837 772 885 q 810 733 810 789 q 797 639 810 689 l 793 622 l 676 622 l 681 639 q 690 685 688 665 q 692 725 692 706 q 649 842 692 799 q 513 886 607 886 q 411 864 457 886 q 329 802 365 842 q 267 708 293 763 q 228 586 242 653 l 185 386 q 174 326 178 354 q 171 274 171 299 q 213 135 171 181 q 344 89 254 89 z "},"Ć":{"ha":850,"x_min":53,"x_max":810,"o":"m 344 89 q 449 107 404 89 q 526 157 494 125 q 580 234 558 189 q 615 333 601 279 l 619 350 l 736 350 l 732 333 q 680 184 711 250 q 602 73 649 118 q 489 4 556 28 q 331 -19 422 -19 q 211 0 263 -19 q 124 55 160 19 q 71 139 89 90 q 53 247 53 188 q 56 309 53 276 q 67 378 60 342 l 113 594 q 258 892 154 792 q 531 992 361 992 q 649 972 597 992 q 737 919 701 953 q 791 837 772 885 q 810 733 810 789 q 797 639 810 689 l 793 622 l 676 622 l 681 639 q 690 685 688 665 q 692 725 692 706 q 649 842 692 799 q 513 886 607 886 q 411 864 457 886 q 329 802 365 842 q 267 708 293 763 q 228 586 242 653 l 185 386 q 174 326 178 354 q 171 274 171 299 q 213 135 171 181 q 344 89 254 89 m 743 1239 l 743 1231 l 600 1075 l 489 1075 l 615 1239 l 743 1239 z "},"Ĉ":{"ha":850,"x_min":53,"x_max":810,"o":"m 344 89 q 449 107 404 89 q 526 157 494 125 q 580 234 558 189 q 615 333 601 279 l 619 350 l 736 350 l 732 333 q 680 184 711 250 q 602 73 649 118 q 489 4 556 28 q 331 -19 422 -19 q 211 0 263 -19 q 124 55 160 19 q 71 139 89 90 q 53 247 53 188 q 56 309 53 276 q 67 378 60 342 l 113 594 q 258 892 154 792 q 531 992 361 992 q 649 972 597 992 q 737 919 701 953 q 791 837 772 885 q 810 733 810 789 q 797 639 810 689 l 793 622 l 676 622 l 681 639 q 690 685 688 665 q 692 725 692 706 q 649 842 692 799 q 513 886 607 886 q 411 864 457 886 q 329 802 365 842 q 267 708 293 763 q 228 586 242 653 l 185 386 q 174 326 178 354 q 171 274 171 299 q 213 135 171 181 q 344 89 254 89 m 364 1075 l 364 1083 l 503 1239 l 675 1239 l 751 1075 l 647 1075 l 593 1197 l 576 1197 l 482 1075 l 364 1075 z "},"Č":{"ha":850,"x_min":53,"x_max":810,"o":"m 344 89 q 449 107 404 89 q 526 157 494 125 q 580 234 558 189 q 615 333 601 279 l 619 350 l 736 350 l 732 333 q 680 184 711 250 q 602 73 649 118 q 489 4 556 28 q 331 -19 422 -19 q 211 0 263 -19 q 124 55 160 19 q 71 139 89 90 q 53 247 53 188 q 56 309 53 276 q 67 378 60 342 l 113 594 q 258 892 154 792 q 531 992 361 992 q 649 972 597 992 q 737 919 701 953 q 791 837 772 885 q 810 733 810 789 q 797 639 810 689 l 793 622 l 676 622 l 681 639 q 690 685 688 665 q 692 725 692 706 q 649 842 692 799 q 513 886 607 886 q 411 864 457 886 q 329 802 365 842 q 267 708 293 763 q 228 586 242 653 l 185 386 q 174 326 178 354 q 171 274 171 299 q 213 135 171 181 q 344 89 254 89 m 772 1239 l 772 1231 l 633 1075 l 461 1075 l 385 1239 l 497 1239 l 544 1117 l 561 1117 l 657 1239 l 772 1239 z "},"Ċ":{"ha":850,"x_min":53,"x_max":810,"o":"m 344 89 q 449 107 404 89 q 526 157 494 125 q 580 234 558 189 q 615 333 601 279 l 619 350 l 736 350 l 732 333 q 680 184 711 250 q 602 73 649 118 q 489 4 556 28 q 331 -19 422 -19 q 211 0 263 -19 q 124 55 160 19 q 71 139 89 90 q 53 247 53 188 q 56 309 53 276 q 67 378 60 342 l 113 594 q 258 892 154 792 q 531 992 361 992 q 649 972 597 992 q 737 919 701 953 q 791 837 772 885 q 810 733 810 789 q 797 639 810 689 l 793 622 l 676 622 l 681 639 q 690 685 688 665 q 692 725 692 706 q 649 842 692 799 q 513 886 607 886 q 411 864 457 886 q 329 802 365 842 q 267 708 293 763 q 228 586 242 653 l 185 386 q 174 326 178 354 q 171 274 171 299 q 213 135 171 181 q 344 89 254 89 m 467 1178 q 495 1247 467 1218 q 564 1275 524 1275 q 633 1247 604 1275 q 661 1178 661 1218 q 633 1109 661 1138 q 564 1081 604 1081 q 495 1109 524 1081 q 467 1178 467 1138 z "},"Ð":{"ha":850,"x_min":0,"x_max":794,"o":"m 160 972 l 497 972 q 719 906 644 972 q 794 715 794 840 q 791 661 794 689 q 781 603 788 633 l 728 361 q 676 194 707 263 q 599 82 646 125 q 483 19 551 39 q 315 0 414 0 l 0 0 l 0 108 l 92 108 l 160 432 l 76 432 l 76 540 l 183 540 l 251 864 l 160 864 l 160 972 m 314 108 q 427 121 378 108 q 513 163 476 133 q 574 243 549 193 q 614 369 599 293 l 663 603 q 672 663 669 639 q 675 708 675 686 q 625 831 675 797 q 474 864 575 864 l 368 864 l 300 540 l 426 540 l 426 432 l 276 432 l 208 108 l 314 108 z "},"Ď":{"ha":850,"x_min":0,"x_max":794,"o":"m 160 972 l 497 972 q 719 906 644 972 q 794 715 794 840 q 791 661 794 689 q 781 603 788 633 l 728 361 q 676 194 707 263 q 599 82 646 125 q 483 19 551 39 q 315 0 414 0 l 0 0 l 0 108 l 92 108 l 251 864 l 160 864 l 160 972 m 314 108 q 427 121 378 108 q 513 163 476 133 q 574 243 549 193 q 614 369 599 293 l 663 603 q 672 663 669 639 q 675 708 675 686 q 625 831 675 797 q 474 864 575 864 l 368 864 l 208 108 l 314 108 m 729 1239 l 729 1231 l 590 1075 l 418 1075 l 342 1239 l 454 1239 l 501 1117 l 518 1117 l 614 1239 l 729 1239 z "},"Ḍ":{"ha":850,"x_min":0,"x_max":794,"o":"m 160 972 l 497 972 q 719 906 644 972 q 794 715 794 840 q 791 661 794 689 q 781 603 788 633 l 728 361 q 676 194 707 263 q 599 82 646 125 q 483 19 551 39 q 315 0 414 0 l 0 0 l 0 108 l 92 108 l 251 864 l 160 864 l 160 972 m 314 108 q 427 121 378 108 q 513 163 476 133 q 574 243 549 193 q 614 369 599 293 l 663 603 q 672 663 669 639 q 675 708 675 686 q 625 831 675 797 q 474 864 575 864 l 368 864 l 208 108 l 314 108 m 218 -185 q 247 -116 218 -144 q 315 -87 275 -87 q 384 -116 356 -87 q 413 -185 413 -144 q 384 -253 413 -225 q 315 -282 356 -282 q 247 -253 275 -282 q 218 -185 218 -225 z "},"Ḏ":{"ha":850,"x_min":0,"x_max":794,"o":"m 160 972 l 497 972 q 719 906 644 972 q 794 715 794 840 q 791 661 794 689 q 781 603 788 633 l 728 361 q 676 194 707 263 q 599 82 646 125 q 483 19 551 39 q 315 0 414 0 l 0 0 l 0 108 l 92 108 l 251 864 l 160 864 l 160 972 m 314 108 q 427 121 378 108 q 513 163 476 133 q 574 243 549 193 q 614 369 599 293 l 663 603 q 672 663 669 639 q 675 708 675 686 q 625 831 675 797 q 474 864 575 864 l 368 864 l 208 108 l 314 108 m 485 -179 l 93 -179 l 93 -87 l 485 -87 l 485 -179 z "},"Đ":{"ha":850,"x_min":0,"x_max":794,"o":"m 160 972 l 497 972 q 719 906 644 972 q 794 715 794 840 q 791 661 794 689 q 781 603 788 633 l 728 361 q 676 194 707 263 q 599 82 646 125 q 483 19 551 39 q 315 0 414 0 l 0 0 l 0 108 l 92 108 l 160 432 l 76 432 l 76 540 l 183 540 l 251 864 l 160 864 l 160 972 m 314 108 q 427 121 378 108 q 513 163 476 133 q 574 243 549 193 q 614 369 599 293 l 663 603 q 672 663 669 639 q 675 708 675 686 q 625 831 675 797 q 474 864 575 864 l 368 864 l 300 540 l 426 540 l 426 432 l 276 432 l 208 108 l 314 108 z "},"È":{"ha":850,"x_min":39,"x_max":794,"o":"m 246 972 l 794 972 l 794 864 l 339 864 l 271 542 l 694 542 l 694 433 l 247 433 l 179 108 l 619 108 l 619 0 l 39 0 l 246 972 m 533 1239 l 590 1075 l 499 1075 l 417 1239 l 533 1239 z "},"É":{"ha":850,"x_min":39,"x_max":794,"o":"m 246 972 l 794 972 l 794 864 l 339 864 l 271 542 l 694 542 l 694 433 l 247 433 l 179 108 l 619 108 l 619 0 l 39 0 l 246 972 m 733 1239 l 733 1231 l 590 1075 l 479 1075 l 606 1239 l 733 1239 z "},"Ê":{"ha":850,"x_min":39,"x_max":794,"o":"m 246 972 l 794 972 l 794 864 l 339 864 l 271 542 l 694 542 l 694 433 l 247 433 l 179 108 l 619 108 l 619 0 l 39 0 l 246 972 m 350 1075 l 350 1083 l 489 1239 l 661 1239 l 738 1075 l 633 1075 l 579 1197 l 563 1197 l 468 1075 l 350 1075 z "},"Ě":{"ha":850,"x_min":39,"x_max":794,"o":"m 246 972 l 794 972 l 794 864 l 339 864 l 271 542 l 694 542 l 694 433 l 247 433 l 179 108 l 619 108 l 619 0 l 39 0 l 246 972 m 758 1239 l 758 1231 l 619 1075 l 447 1075 l 371 1239 l 483 1239 l 531 1117 l 547 1117 l 643 1239 l 758 1239 z "},"Ë":{"ha":850,"x_min":39,"x_max":794,"o":"m 246 972 l 794 972 l 794 864 l 339 864 l 271 542 l 694 542 l 694 433 l 247 433 l 179 108 l 619 108 l 619 0 l 39 0 l 246 972 m 319 1172 q 348 1241 319 1213 q 417 1269 376 1269 q 485 1241 457 1269 q 514 1172 514 1213 q 485 1103 514 1132 q 417 1075 457 1075 q 348 1103 376 1075 q 319 1172 319 1132 m 597 1172 q 626 1241 597 1213 q 694 1269 654 1269 q 763 1241 735 1269 q 792 1172 792 1213 q 763 1103 792 1132 q 694 1075 735 1075 q 626 1103 654 1075 q 597 1172 597 1132 z "},"Ē":{"ha":850,"x_min":39,"x_max":794,"o":"m 246 972 l 794 972 l 794 864 l 339 864 l 271 542 l 694 542 l 694 433 l 247 433 l 179 108 l 619 108 l 619 0 l 39 0 l 246 972 m 731 1075 l 339 1075 l 339 1167 l 731 1167 l 731 1075 z "},"Ĕ":{"ha":850,"x_min":39,"x_max":794,"o":"m 246 972 l 794 972 l 794 864 l 339 864 l 271 542 l 694 542 l 694 433 l 247 433 l 179 108 l 619 108 l 619 0 l 39 0 l 246 972 m 711 1239 l 707 1219 q 649 1112 692 1149 q 532 1075 607 1075 q 427 1117 463 1075 q 404 1219 392 1158 l 408 1239 l 503 1239 l 499 1224 q 505 1181 492 1197 q 546 1165 518 1165 q 590 1183 576 1165 q 610 1222 604 1200 l 614 1239 l 711 1239 z "},"Ė":{"ha":850,"x_min":39,"x_max":794,"o":"m 246 972 l 794 972 l 794 864 l 339 864 l 271 542 l 694 542 l 694 433 l 247 433 l 179 108 l 619 108 l 619 0 l 39 0 l 246 972 m 442 1178 q 470 1247 442 1218 q 539 1275 499 1275 q 608 1247 579 1275 q 636 1178 636 1218 q 608 1109 636 1138 q 539 1081 579 1081 q 470 1109 499 1081 q 442 1178 442 1138 z "},"Ę":{"ha":850,"x_min":39,"x_max":794,"o":"m 246 972 l 794 972 l 794 864 l 339 864 l 271 542 l 694 542 l 694 433 l 247 433 l 179 108 l 619 108 l 619 0 l 576 -94 q 572 -112 572 -106 q 599 -136 572 -136 l 657 -136 l 657 -228 l 560 -228 q 499 -206 525 -228 q 474 -143 474 -183 q 485 -92 474 -118 l 524 0 l 39 0 l 246 972 z "},"Ẹ":{"ha":850,"x_min":39,"x_max":794,"o":"m 246 972 l 794 972 l 794 864 l 339 864 l 271 542 l 694 542 l 694 433 l 247 433 l 179 108 l 619 108 l 619 0 l 39 0 l 246 972 m 243 -185 q 272 -116 243 -144 q 340 -87 300 -87 q 409 -116 381 -87 q 438 -185 438 -144 q 409 -253 438 -225 q 340 -282 381 -282 q 272 -253 300 -282 q 243 -185 243 -225 z "},"Ẻ":{"ha":850,"x_min":39,"x_max":794,"o":"m 474 1042 l 474 1169 l 481 1178 l 581 1178 q 619 1157 593 1157 q 672 1214 672 1157 q 657 1254 672 1239 q 614 1269 642 1269 q 572 1254 589 1269 q 549 1214 556 1239 l 486 1239 q 534 1308 503 1281 q 622 1336 565 1336 q 712 1303 676 1336 q 747 1219 747 1269 q 714 1129 747 1167 q 631 1092 681 1092 q 580 1103 601 1092 q 550 1136 558 1115 l 542 1136 l 542 1042 l 474 1042 m 246 972 l 794 972 l 794 864 l 339 864 l 271 542 l 694 542 l 694 433 l 247 433 l 179 108 l 619 108 l 619 0 l 39 0 l 246 972 z "},"Ẽ":{"ha":850,"x_min":39,"x_max":794,"o":"m 246 972 l 794 972 l 794 864 l 339 864 l 271 542 l 694 542 l 694 433 l 247 433 l 179 108 l 619 108 l 619 0 l 39 0 l 246 972 m 583 1175 q 597 1154 590 1161 q 617 1147 604 1147 q 643 1161 631 1147 l 710 1238 l 778 1179 l 721 1111 q 675 1070 701 1088 q 613 1053 649 1053 q 547 1072 569 1053 q 500 1135 524 1092 q 484 1158 490 1151 q 467 1165 478 1165 q 436 1149 451 1165 l 372 1075 l 304 1133 l 361 1201 q 407 1242 381 1225 q 471 1260 433 1260 q 535 1240 511 1260 q 583 1175 558 1219 z "},"Ế":{"ha":850,"x_min":39,"x_max":985,"o":"m 246 972 l 794 972 l 794 864 l 339 864 l 271 542 l 694 542 l 694 433 l 247 433 l 179 108 l 619 108 l 619 0 l 39 0 l 246 972 m 985 1361 l 985 1353 l 842 1197 l 731 1197 l 857 1361 l 985 1361 m 350 1075 l 350 1083 l 489 1239 l 661 1239 l 738 1075 l 633 1075 l 579 1197 l 563 1197 l 468 1075 l 350 1075 z "},"Ề":{"ha":850,"x_min":39,"x_max":794,"o":"m 246 972 l 794 972 l 794 864 l 339 864 l 271 542 l 694 542 l 694 433 l 247 433 l 179 108 l 619 108 l 619 0 l 39 0 l 246 972 m 340 1361 l 397 1197 l 306 1197 l 224 1361 l 340 1361 m 350 1075 l 350 1083 l 489 1239 l 661 1239 l 738 1075 l 633 1075 l 579 1197 l 563 1197 l 468 1075 l 350 1075 z "},"Ể":{"ha":850,"x_min":39,"x_max":1007,"o":"m 733 1192 l 733 1319 l 740 1328 l 840 1328 q 879 1307 853 1307 q 932 1364 932 1307 q 917 1404 932 1389 q 874 1419 901 1419 q 832 1404 849 1419 q 808 1364 815 1389 l 746 1389 q 794 1458 763 1431 q 882 1486 825 1486 q 972 1453 936 1486 q 1007 1369 1007 1419 q 974 1279 1007 1317 q 890 1242 940 1242 q 840 1253 861 1242 q 810 1286 818 1265 l 801 1286 l 801 1192 l 733 1192 m 246 972 l 794 972 l 794 864 l 339 864 l 271 542 l 694 542 l 694 433 l 247 433 l 179 108 l 619 108 l 619 0 l 39 0 l 246 972 m 350 1075 l 350 1083 l 489 1239 l 661 1239 l 738 1075 l 633 1075 l 579 1197 l 563 1197 l 468 1075 l 350 1075 z "},"Ễ":{"ha":850,"x_min":39,"x_max":843,"o":"m 246 972 l 794 972 l 794 864 l 339 864 l 271 542 l 694 542 l 694 433 l 247 433 l 179 108 l 619 108 l 619 0 l 39 0 l 246 972 m 339 1014 l 339 1022 l 478 1178 l 650 1178 l 726 1014 l 622 1014 l 568 1136 l 551 1136 l 457 1014 l 339 1014 m 649 1340 q 663 1319 656 1326 q 682 1313 669 1313 q 708 1326 696 1313 l 775 1403 l 843 1344 l 786 1276 q 740 1235 767 1253 q 678 1218 714 1218 q 612 1238 635 1218 q 565 1300 589 1257 q 549 1324 556 1317 q 532 1331 543 1331 q 501 1314 517 1331 l 438 1240 l 369 1299 l 426 1367 q 472 1408 446 1390 q 536 1425 499 1425 q 600 1405 576 1425 q 649 1340 624 1385 z "},"Ệ":{"ha":850,"x_min":39,"x_max":794,"o":"m 246 972 l 794 972 l 794 864 l 339 864 l 271 542 l 694 542 l 694 433 l 247 433 l 179 108 l 619 108 l 619 0 l 39 0 l 246 972 m 350 1075 l 350 1083 l 489 1239 l 661 1239 l 738 1075 l 633 1075 l 579 1197 l 563 1197 l 468 1075 l 350 1075 m 243 -185 q 272 -116 243 -144 q 340 -87 300 -87 q 409 -116 381 -87 q 438 -185 438 -144 q 409 -253 438 -225 q 340 -282 381 -282 q 272 -253 300 -282 q 243 -185 243 -225 z "},"Ĝ":{"ha":850,"x_min":44,"x_max":807,"o":"m 336 467 l 761 467 l 661 0 l 550 0 l 578 117 l 561 117 q 460 18 525 56 q 310 -19 394 -19 q 203 -2 251 -19 q 119 50 154 15 q 64 136 83 85 q 44 254 44 188 q 47 311 44 282 q 58 378 50 340 l 104 594 q 251 890 144 789 q 528 992 358 992 q 647 972 594 992 q 734 915 699 951 q 788 830 769 879 q 807 722 807 781 q 797 639 807 678 l 793 622 l 676 622 l 681 639 q 690 717 690 678 q 647 838 690 790 q 508 886 603 886 q 405 864 451 886 q 322 802 358 842 q 259 708 285 763 q 219 586 233 653 l 176 386 q 164 275 164 324 q 207 135 164 183 q 340 86 250 86 q 517 151 446 86 q 615 325 588 217 l 624 358 l 336 358 l 336 467 m 360 1075 l 360 1083 l 499 1239 l 671 1239 l 747 1075 l 643 1075 l 589 1197 l 572 1197 l 478 1075 l 360 1075 z "},"Ğ":{"ha":850,"x_min":44,"x_max":807,"o":"m 336 467 l 761 467 l 661 0 l 550 0 l 578 117 l 561 117 q 460 18 525 56 q 310 -19 394 -19 q 203 -2 251 -19 q 119 50 154 15 q 64 136 83 85 q 44 254 44 188 q 47 311 44 282 q 58 378 50 340 l 104 594 q 251 890 144 789 q 528 992 358 992 q 647 972 594 992 q 734 915 699 951 q 788 830 769 879 q 807 722 807 781 q 797 639 807 678 l 793 622 l 676 622 l 681 639 q 690 717 690 678 q 647 838 690 790 q 508 886 603 886 q 405 864 451 886 q 322 802 358 842 q 259 708 285 763 q 219 586 233 653 l 176 386 q 164 275 164 324 q 207 135 164 183 q 340 86 250 86 q 517 151 446 86 q 615 325 588 217 l 624 358 l 336 358 l 336 467 m 724 1239 l 719 1219 q 662 1112 704 1149 q 544 1075 619 1075 q 440 1117 475 1075 q 417 1219 404 1158 l 421 1239 l 515 1239 l 511 1224 q 517 1181 504 1197 q 558 1165 531 1165 q 603 1183 589 1165 q 622 1222 617 1200 l 626 1239 l 724 1239 z "},"Ġ":{"ha":850,"x_min":44,"x_max":807,"o":"m 336 467 l 761 467 l 661 0 l 550 0 l 578 117 l 561 117 q 460 18 525 56 q 310 -19 394 -19 q 203 -2 251 -19 q 119 50 154 15 q 64 136 83 85 q 44 254 44 188 q 47 311 44 282 q 58 378 50 340 l 104 594 q 251 890 144 789 q 528 992 358 992 q 647 972 594 992 q 734 915 699 951 q 788 830 769 879 q 807 722 807 781 q 797 639 807 678 l 793 622 l 676 622 l 681 639 q 690 717 690 678 q 647 838 690 790 q 508 886 603 886 q 405 864 451 886 q 322 802 358 842 q 259 708 285 763 q 219 586 233 653 l 176 386 q 164 275 164 324 q 207 135 164 183 q 340 86 250 86 q 517 151 446 86 q 615 325 588 217 l 624 358 l 336 358 l 336 467 m 431 1178 q 459 1247 431 1218 q 528 1275 488 1275 q 597 1247 568 1275 q 625 1178 625 1218 q 597 1109 625 1138 q 528 1081 568 1081 q 459 1109 488 1081 q 431 1178 431 1138 z "},"Ģ":{"ha":850,"x_min":44,"x_max":807,"o":"m 336 467 l 761 467 l 661 0 l 550 0 l 578 117 l 561 117 q 460 18 525 56 q 310 -19 394 -19 q 203 -2 251 -19 q 119 50 154 15 q 64 136 83 85 q 44 254 44 188 q 47 311 44 282 q 58 378 50 340 l 104 594 q 251 890 144 789 q 528 992 358 992 q 647 972 594 992 q 734 915 699 951 q 788 830 769 879 q 807 722 807 781 q 797 639 807 678 l 793 622 l 676 622 l 681 639 q 690 717 690 678 q 647 838 690 790 q 508 886 603 886 q 405 864 451 886 q 322 802 358 842 q 259 708 285 763 q 219 586 233 653 l 176 386 q 164 275 164 324 q 207 135 164 183 q 340 86 250 86 q 517 151 446 86 q 615 325 588 217 l 624 358 l 336 358 l 336 467 m 186 -157 q 215 -88 186 -117 q 283 -60 243 -60 q 352 -88 324 -60 q 381 -157 381 -117 q 379 -174 381 -167 l 354 -293 q 311 -374 343 -346 q 225 -401 279 -401 l 153 -401 l 153 -326 l 235 -326 q 282 -285 274 -326 l 289 -254 l 283 -254 q 215 -226 243 -254 q 186 -157 186 -197 z "},"Ḡ":{"ha":850,"x_min":44,"x_max":807,"o":"m 336 467 l 761 467 l 661 0 l 550 0 l 578 117 l 561 117 q 460 18 525 56 q 310 -19 394 -19 q 203 -2 251 -19 q 119 50 154 15 q 64 136 83 85 q 44 254 44 188 q 47 311 44 282 q 58 378 50 340 l 104 594 q 251 890 144 789 q 528 992 358 992 q 647 972 594 992 q 734 915 699 951 q 788 830 769 879 q 807 722 807 781 q 797 639 807 678 l 793 622 l 676 622 l 681 639 q 690 717 690 678 q 647 838 690 790 q 508 886 603 886 q 405 864 451 886 q 322 802 358 842 q 259 708 285 763 q 219 586 233 653 l 176 386 q 164 275 164 324 q 207 135 164 183 q 340 86 250 86 q 517 151 446 86 q 615 325 588 217 l 624 358 l 336 358 l 336 467 m 728 1075 l 336 1075 l 336 1167 l 728 1167 l 728 1075 z "},"Ǧ":{"ha":850,"x_min":44,"x_max":807,"o":"m 336 467 l 761 467 l 661 0 l 550 0 l 578 117 l 561 117 q 460 18 525 56 q 310 -19 394 -19 q 203 -2 251 -19 q 119 50 154 15 q 64 136 83 85 q 44 254 44 188 q 47 311 44 282 q 58 378 50 340 l 104 594 q 251 890 144 789 q 528 992 358 992 q 647 972 594 992 q 734 915 699 951 q 788 830 769 879 q 807 722 807 781 q 797 639 807 678 l 793 622 l 676 622 l 681 639 q 690 717 690 678 q 647 838 690 790 q 508 886 603 886 q 405 864 451 886 q 322 802 358 842 q 259 708 285 763 q 219 586 233 653 l 176 386 q 164 275 164 324 q 207 135 164 183 q 340 86 250 86 q 517 151 446 86 q 615 325 588 217 l 624 358 l 336 358 l 336 467 m 772 1239 l 772 1231 l 633 1075 l 461 1075 l 385 1239 l 497 1239 l 544 1117 l 561 1117 l 657 1239 l 772 1239 z "},"Ĥ":{"ha":850,"x_min":11,"x_max":839,"o":"m 217 972 l 336 972 l 244 542 l 628 542 l 719 972 l 839 972 l 632 0 l 513 0 l 604 433 l 221 433 l 129 0 l 11 0 l 217 972 m 336 1075 l 336 1083 l 475 1239 l 647 1239 l 724 1075 l 619 1075 l 565 1197 l 549 1197 l 454 1075 l 336 1075 z "},"Ḥ":{"ha":850,"x_min":11,"x_max":839,"o":"m 217 972 l 336 972 l 244 542 l 628 542 l 719 972 l 839 972 l 632 0 l 513 0 l 604 433 l 221 433 l 129 0 l 11 0 l 217 972 m 222 -185 q 251 -116 222 -144 q 319 -87 279 -87 q 388 -116 360 -87 q 417 -185 417 -144 q 388 -253 417 -225 q 319 -282 360 -282 q 251 -253 279 -282 q 222 -185 222 -225 z "},"Ḫ":{"ha":850,"x_min":11,"x_max":839,"o":"m 217 972 l 336 972 l 244 542 l 628 542 l 719 972 l 839 972 l 632 0 l 513 0 l 604 433 l 221 433 l 129 0 l 11 0 l 217 972 m 463 -85 l 458 -104 q 401 -212 443 -175 q 283 -249 358 -249 q 178 -207 214 -249 q 156 -104 143 -165 l 160 -85 l 254 -85 l 250 -100 q 256 -142 243 -126 q 297 -158 269 -158 q 342 -141 328 -158 q 361 -101 356 -124 l 365 -85 l 463 -85 z "},"Ħ":{"ha":850,"x_min":11,"x_max":875,"o":"m 157 689 l 75 689 l 75 797 l 179 797 l 217 972 l 336 972 l 299 797 l 682 797 l 719 972 l 839 972 l 801 797 l 875 797 l 875 689 l 778 689 l 632 0 l 513 0 l 604 433 l 221 433 l 129 0 l 11 0 l 157 689 m 628 542 l 658 689 l 275 689 l 244 542 l 628 542 z "},"Ì":{"ha":850,"x_min":44,"x_max":804,"o":"m 204 972 l 804 972 l 804 864 l 563 864 l 403 108 l 644 108 l 644 0 l 44 0 l 44 108 l 286 108 l 446 864 l 204 864 l 204 972 m 515 1239 l 572 1075 l 481 1075 l 399 1239 l 515 1239 z "},"Í":{"ha":850,"x_min":44,"x_max":804,"o":"m 204 972 l 804 972 l 804 864 l 563 864 l 403 108 l 644 108 l 644 0 l 44 0 l 44 108 l 286 108 l 446 864 l 204 864 l 204 972 m 742 1239 l 742 1231 l 599 1075 l 488 1075 l 614 1239 l 742 1239 z "},"Î":{"ha":850,"x_min":44,"x_max":804,"o":"m 204 972 l 804 972 l 804 864 l 563 864 l 403 108 l 644 108 l 644 0 l 44 0 l 44 108 l 286 108 l 446 864 l 204 864 l 204 972 m 346 1075 l 346 1083 l 485 1239 l 657 1239 l 733 1075 l 629 1075 l 575 1197 l 558 1197 l 464 1075 l 346 1075 z "},"Ĩ":{"ha":850,"x_min":44,"x_max":804,"o":"m 204 972 l 804 972 l 804 864 l 563 864 l 403 108 l 644 108 l 644 0 l 44 0 l 44 108 l 286 108 l 446 864 l 204 864 l 204 972 m 588 1175 q 601 1154 594 1161 q 621 1147 608 1147 q 647 1161 635 1147 l 714 1238 l 782 1179 l 725 1111 q 679 1070 706 1088 q 617 1053 653 1053 q 551 1072 574 1053 q 504 1135 528 1092 q 488 1158 494 1151 q 471 1165 482 1165 q 440 1149 456 1165 l 376 1075 l 308 1133 l 365 1201 q 411 1242 385 1225 q 475 1260 438 1260 q 539 1240 515 1260 q 588 1175 563 1219 z "},"Ï":{"ha":850,"x_min":44,"x_max":804,"o":"m 204 972 l 804 972 l 804 864 l 563 864 l 403 108 l 644 108 l 644 0 l 44 0 l 44 108 l 286 108 l 446 864 l 204 864 l 204 972 m 301 1178 q 330 1247 301 1218 q 399 1275 358 1275 q 467 1247 439 1275 q 496 1178 496 1218 q 467 1109 496 1138 q 399 1081 439 1081 q 330 1109 358 1081 q 301 1178 301 1138 m 579 1178 q 608 1247 579 1218 q 676 1275 636 1275 q 745 1247 717 1275 q 774 1178 774 1218 q 745 1109 774 1138 q 676 1081 717 1081 q 608 1109 636 1081 q 579 1178 579 1138 z "},"Ī":{"ha":850,"x_min":44,"x_max":804,"o":"m 204 972 l 804 972 l 804 864 l 563 864 l 403 108 l 644 108 l 644 0 l 44 0 l 44 108 l 286 108 l 446 864 l 204 864 l 204 972 m 708 1075 l 317 1075 l 317 1167 l 708 1167 l 708 1075 z "},"İ":{"ha":850,"x_min":44,"x_max":804,"o":"m 204 972 l 804 972 l 804 864 l 563 864 l 403 108 l 644 108 l 644 0 l 44 0 l 44 108 l 286 108 l 446 864 l 204 864 l 204 972 m 419 1178 q 448 1247 419 1218 q 517 1275 476 1275 q 585 1247 557 1275 q 614 1178 614 1218 q 585 1109 614 1138 q 517 1081 557 1081 q 448 1109 476 1081 q 419 1178 419 1138 z "},"Ǐ":{"ha":850,"x_min":44,"x_max":804,"o":"m 204 972 l 804 972 l 804 864 l 563 864 l 403 108 l 644 108 l 644 0 l 44 0 l 44 108 l 286 108 l 446 864 l 204 864 l 204 972 m 757 1239 l 757 1231 l 618 1075 l 446 1075 l 369 1239 l 482 1239 l 529 1117 l 546 1117 l 642 1239 l 757 1239 z "},"Į":{"ha":850,"x_min":44,"x_max":804,"o":"m 204 972 l 804 972 l 804 864 l 563 864 l 403 108 l 644 108 l 644 0 l 601 -94 q 597 -112 597 -106 q 624 -136 597 -136 l 682 -136 l 682 -228 l 585 -228 q 524 -206 550 -228 q 499 -143 499 -183 q 510 -92 499 -118 l 549 0 l 44 0 l 44 108 l 286 108 l 446 864 l 204 864 l 204 972 z "},"Ỉ":{"ha":850,"x_min":44,"x_max":804,"o":"m 204 972 l 804 972 l 804 864 l 563 864 l 403 108 l 644 108 l 644 0 l 44 0 l 44 108 l 286 108 l 446 864 l 204 864 l 204 972 m 607 1042 l 574 1136 l 582 1136 q 657 1092 606 1092 q 727 1122 703 1092 q 751 1194 751 1153 q 716 1297 751 1257 q 607 1336 681 1336 q 517 1309 550 1336 q 476 1239 483 1282 l 546 1215 q 563 1253 549 1237 q 610 1269 578 1269 q 659 1252 642 1269 q 676 1206 676 1235 q 663 1169 676 1181 q 632 1158 650 1158 q 608 1164 617 1158 q 594 1178 600 1169 l 490 1178 l 490 1161 l 532 1042 l 607 1042 z "},"Ị":{"ha":850,"x_min":44,"x_max":804,"o":"m 204 972 l 804 972 l 804 864 l 563 864 l 403 108 l 644 108 l 644 0 l 44 0 l 44 108 l 286 108 l 446 864 l 204 864 l 204 972 m 240 -185 q 269 -116 240 -144 q 338 -87 297 -87 q 406 -116 378 -87 q 435 -185 435 -144 q 406 -253 435 -225 q 338 -282 378 -282 q 269 -253 297 -282 q 240 -185 240 -225 z "},"Ĭ":{"ha":850,"x_min":44,"x_max":804,"o":"m 204 972 l 804 972 l 804 864 l 563 864 l 403 108 l 644 108 l 644 0 l 44 0 l 44 108 l 286 108 l 446 864 l 204 864 l 204 972 m 721 1239 l 717 1219 q 659 1112 701 1149 q 542 1075 617 1075 q 437 1117 472 1075 q 414 1219 401 1158 l 418 1239 l 513 1239 l 508 1224 q 515 1181 501 1197 q 556 1165 528 1165 q 600 1183 586 1165 q 619 1222 614 1200 l 624 1239 l 721 1239 z "},"Ĵ":{"ha":850,"x_min":42,"x_max":925,"o":"m 864 864 l 772 864 l 649 286 q 606 158 633 214 q 537 62 579 101 q 436 1 494 22 q 300 -19 378 -19 q 110 44 178 -19 q 42 215 42 108 q 50 292 42 251 l 67 367 l 183 367 l 167 292 q 158 222 158 254 q 315 89 158 89 q 463 145 413 89 q 533 292 514 201 l 656 864 l 547 864 l 547 972 l 864 972 l 864 864 m 538 1075 l 538 1083 l 676 1239 l 849 1239 l 925 1075 l 821 1075 l 767 1197 l 750 1197 l 656 1075 l 538 1075 z "},"Ķ":{"ha":850,"x_min":7,"x_max":850,"o":"m 126 0 l 7 0 l 214 972 l 333 972 l 242 542 l 278 542 l 715 972 l 850 972 l 850 956 l 382 494 l 382 478 l 685 8 l 685 0 l 553 0 l 274 433 l 218 433 l 126 0 m 219 -157 q 248 -88 219 -117 q 317 -60 276 -60 q 385 -88 357 -60 q 414 -157 414 -117 q 413 -174 414 -167 l 388 -293 q 344 -374 376 -346 q 258 -401 313 -401 l 186 -401 l 186 -326 l 268 -326 q 315 -285 307 -326 l 322 -254 l 317 -254 q 248 -226 276 -254 q 219 -157 219 -197 z "},"Ĺ":{"ha":850,"x_min":33,"x_max":674,"o":"m 240 972 l 357 972 l 174 108 l 674 108 l 674 0 l 33 0 l 240 972 m 524 1239 l 524 1231 l 381 1075 l 269 1075 l 396 1239 l 524 1239 z "},"Ľ":{"ha":850,"x_min":33,"x_max":822,"o":"m 240 972 l 357 972 l 174 108 l 674 108 l 674 0 l 33 0 l 240 972 m 628 876 q 656 945 628 917 q 725 974 685 974 q 794 945 765 974 q 822 876 822 917 q 821 860 822 867 l 796 740 q 753 660 785 688 q 667 632 721 632 l 594 632 l 594 707 l 676 707 q 724 749 715 707 l 731 779 l 725 779 q 656 808 685 779 q 628 876 628 836 z "},"Ļ":{"ha":850,"x_min":33,"x_max":674,"o":"m 240 972 l 357 972 l 174 108 l 674 108 l 674 0 l 33 0 l 240 972 m 267 -157 q 295 -88 267 -117 q 364 -60 324 -60 q 433 -88 404 -60 q 461 -157 461 -117 q 460 -174 461 -167 l 435 -293 q 392 -374 424 -346 q 306 -401 360 -401 l 233 -401 l 233 -326 l 315 -326 q 363 -285 354 -326 l 369 -254 l 364 -254 q 295 -226 324 -254 q 267 -157 267 -197 z "},"Ḷ":{"ha":850,"x_min":33,"x_max":674,"o":"m 240 972 l 357 972 l 174 108 l 674 108 l 674 0 l 33 0 l 240 972 m 260 -185 q 288 -116 260 -144 q 357 -87 317 -87 q 426 -116 397 -87 q 454 -185 454 -144 q 426 -253 454 -225 q 357 -282 397 -282 q 288 -253 317 -282 q 260 -185 260 -225 z "},"Ḹ":{"ha":850,"x_min":33,"x_max":749,"o":"m 240 972 l 357 972 l 174 108 l 674 108 l 674 0 l 33 0 l 240 972 m 749 1075 l 357 1075 l 357 1167 l 749 1167 l 749 1075 m 260 -185 q 288 -116 260 -144 q 357 -87 317 -87 q 426 -116 397 -87 q 454 -185 454 -144 q 426 -253 454 -225 q 357 -282 397 -282 q 288 -253 317 -282 q 260 -185 260 -225 z "},"Ḻ":{"ha":850,"x_min":33,"x_max":674,"o":"m 240 972 l 357 972 l 174 108 l 674 108 l 674 0 l 33 0 l 240 972 m 567 -179 l 175 -179 l 175 -87 l 567 -87 l 567 -179 z "},"Ł":{"ha":850,"x_min":17,"x_max":690,"o":"m 133 393 l 44 369 l 17 472 l 158 510 l 257 972 l 374 972 l 282 542 l 394 572 l 422 472 l 257 426 l 190 108 l 690 108 l 690 0 l 50 0 l 133 393 z "},"Ŀ":{"ha":850,"x_min":33,"x_max":771,"o":"m 240 972 l 357 972 l 174 108 l 674 108 l 674 0 l 33 0 l 240 972 m 576 486 q 605 555 576 526 q 674 583 633 583 q 742 555 714 583 q 771 486 771 526 q 742 417 771 446 q 674 389 714 389 q 605 417 633 389 q 576 486 576 446 z "},"Ṃ":{"ha":850,"x_min":-22,"x_max":872,"o":"m 183 972 l 404 972 l 324 50 l 340 50 l 644 972 l 872 972 l 665 0 l 557 0 l 753 922 l 736 922 l 432 0 l 218 0 l 297 922 l 281 922 l 85 0 l -22 0 l 183 972 m 213 -185 q 241 -116 213 -144 q 310 -87 269 -87 q 378 -116 350 -87 q 407 -185 407 -144 q 378 -253 407 -225 q 310 -282 350 -282 q 241 -253 269 -282 q 213 -185 213 -225 z "},"Ń":{"ha":850,"x_min":14,"x_max":835,"o":"m 506 50 l 522 50 l 718 972 l 835 972 l 628 0 l 399 0 l 343 922 l 326 922 l 131 0 l 14 0 l 221 972 l 450 972 l 506 50 m 793 1239 l 793 1231 l 650 1075 l 539 1075 l 665 1239 l 793 1239 z "},"Ň":{"ha":850,"x_min":14,"x_max":835,"o":"m 506 50 l 522 50 l 718 972 l 835 972 l 628 0 l 399 0 l 343 922 l 326 922 l 131 0 l 14 0 l 221 972 l 450 972 l 506 50 m 817 1239 l 817 1231 l 678 1075 l 506 1075 l 429 1239 l 542 1239 l 589 1117 l 606 1117 l 701 1239 l 817 1239 z "},"Ñ":{"ha":850,"x_min":14,"x_max":835,"o":"m 506 50 l 522 50 l 718 972 l 835 972 l 628 0 l 399 0 l 343 922 l 326 922 l 131 0 l 14 0 l 221 972 l 450 972 l 506 50 m 601 1175 q 615 1154 608 1161 q 635 1147 622 1147 q 661 1161 649 1147 l 728 1238 l 796 1179 l 739 1111 q 693 1070 719 1088 q 631 1053 667 1053 q 565 1072 588 1053 q 518 1135 542 1092 q 502 1158 508 1151 q 485 1165 496 1165 q 454 1149 469 1165 l 390 1075 l 322 1133 l 379 1201 q 425 1242 399 1225 q 489 1260 451 1260 q 553 1240 529 1260 q 601 1175 576 1219 z "},"Ņ":{"ha":850,"x_min":14,"x_max":835,"o":"m 506 50 l 522 50 l 718 972 l 835 972 l 628 0 l 399 0 l 343 922 l 326 922 l 131 0 l 14 0 l 221 972 l 450 972 l 506 50 m 165 -157 q 194 -88 165 -117 q 263 -60 222 -60 q 331 -88 303 -60 q 360 -157 360 -117 q 358 -174 360 -167 l 333 -293 q 290 -374 322 -346 q 204 -401 258 -401 l 132 -401 l 132 -326 l 214 -326 q 261 -285 253 -326 l 268 -254 l 263 -254 q 194 -226 222 -254 q 165 -157 165 -197 z "},"Ṅ":{"ha":850,"x_min":14,"x_max":835,"o":"m 506 50 l 522 50 l 718 972 l 835 972 l 628 0 l 399 0 l 343 922 l 326 922 l 131 0 l 14 0 l 221 972 l 450 972 l 506 50 m 481 1172 q 509 1241 481 1213 q 578 1269 538 1269 q 647 1241 618 1269 q 675 1172 675 1213 q 647 1103 675 1132 q 578 1075 618 1075 q 509 1103 538 1075 q 481 1172 481 1132 z "},"Ṇ":{"ha":850,"x_min":14,"x_max":835,"o":"m 506 50 l 522 50 l 718 972 l 835 972 l 628 0 l 399 0 l 343 922 l 326 922 l 131 0 l 14 0 l 221 972 l 450 972 l 506 50 m 158 -185 q 187 -116 158 -144 q 256 -87 215 -87 q 324 -116 296 -87 q 353 -185 353 -144 q 324 -253 353 -225 q 256 -282 296 -282 q 187 -253 215 -282 q 158 -185 158 -225 z "},"Ṉ":{"ha":850,"x_min":14,"x_max":835,"o":"m 506 50 l 522 50 l 718 972 l 835 972 l 628 0 l 399 0 l 343 922 l 326 922 l 131 0 l 14 0 l 221 972 l 450 972 l 506 50 m 507 -179 l 115 -179 l 115 -87 l 507 -87 l 507 -179 z "},"Ò":{"ha":850,"x_min":50,"x_max":801,"o":"m 107 594 q 249 890 147 789 q 524 992 351 992 q 730 915 658 992 q 801 701 801 838 q 798 642 801 674 q 788 579 794 611 l 744 378 q 602 82 704 183 q 328 -19 500 -19 q 122 58 193 -19 q 50 271 50 135 q 53 330 50 299 q 64 393 57 361 l 107 594 m 344 86 q 448 108 401 86 q 530 169 494 129 q 590 263 565 208 q 629 386 614 318 l 674 594 q 685 692 685 650 q 640 834 685 782 q 507 886 596 886 q 322 804 392 886 q 222 586 251 722 l 178 378 q 167 281 167 322 q 211 138 167 190 q 344 86 256 86 m 524 1239 l 581 1075 l 489 1075 l 407 1239 l 524 1239 z "},"Ó":{"ha":850,"x_min":50,"x_max":801,"o":"m 107 594 q 249 890 147 789 q 524 992 351 992 q 730 915 658 992 q 801 701 801 838 q 798 642 801 674 q 788 579 794 611 l 744 378 q 602 82 704 183 q 328 -19 500 -19 q 122 58 193 -19 q 50 271 50 135 q 53 330 50 299 q 64 393 57 361 l 107 594 m 344 86 q 448 108 401 86 q 530 169 494 129 q 590 263 565 208 q 629 386 614 318 l 674 594 q 685 692 685 650 q 640 834 685 782 q 507 886 596 886 q 322 804 392 886 q 222 586 251 722 l 178 378 q 167 281 167 322 q 211 138 167 190 q 344 86 256 86 m 722 1239 l 722 1231 l 579 1075 l 468 1075 l 594 1239 l 722 1239 z "},"Ô":{"ha":850,"x_min":50,"x_max":801,"o":"m 107 594 q 249 890 147 789 q 524 992 351 992 q 730 915 658 992 q 801 701 801 838 q 798 642 801 674 q 788 579 794 611 l 744 378 q 602 82 704 183 q 328 -19 500 -19 q 122 58 193 -19 q 50 271 50 135 q 53 330 50 299 q 64 393 57 361 l 107 594 m 344 86 q 448 108 401 86 q 530 169 494 129 q 590 263 565 208 q 629 386 614 318 l 674 594 q 685 692 685 650 q 640 834 685 782 q 507 886 596 886 q 322 804 392 886 q 222 586 251 722 l 178 378 q 167 281 167 322 q 211 138 167 190 q 344 86 256 86 m 364 1075 l 364 1083 l 503 1239 l 675 1239 l 751 1075 l 647 1075 l 593 1197 l 576 1197 l 482 1075 l 364 1075 z "},"Õ":{"ha":850,"x_min":50,"x_max":819,"o":"m 107 594 q 249 890 147 789 q 524 992 351 992 q 730 915 658 992 q 801 701 801 838 q 798 642 801 674 q 788 579 794 611 l 744 378 q 602 82 704 183 q 328 -19 500 -19 q 122 58 193 -19 q 50 271 50 135 q 53 330 50 299 q 64 393 57 361 l 107 594 m 344 86 q 448 108 401 86 q 530 169 494 129 q 590 263 565 208 q 629 386 614 318 l 674 594 q 685 692 685 650 q 640 834 685 782 q 507 886 596 886 q 322 804 392 886 q 222 586 251 722 l 178 378 q 167 281 167 322 q 211 138 167 190 q 344 86 256 86 m 625 1175 q 639 1154 632 1161 q 658 1147 646 1147 q 685 1161 672 1147 l 751 1238 l 819 1179 l 763 1111 q 717 1070 743 1088 q 654 1053 690 1053 q 588 1072 611 1053 q 542 1135 565 1092 q 526 1158 532 1151 q 508 1165 519 1165 q 478 1149 493 1165 l 414 1075 l 346 1133 l 403 1201 q 449 1242 422 1225 q 513 1260 475 1260 q 576 1240 553 1260 q 625 1175 600 1219 z "},"Ö":{"ha":850,"x_min":50,"x_max":801,"o":"m 107 594 q 249 890 147 789 q 524 992 351 992 q 730 915 658 992 q 801 701 801 838 q 798 642 801 674 q 788 579 794 611 l 744 378 q 602 82 704 183 q 328 -19 500 -19 q 122 58 193 -19 q 50 271 50 135 q 53 330 50 299 q 64 393 57 361 l 107 594 m 344 86 q 448 108 401 86 q 530 169 494 129 q 590 263 565 208 q 629 386 614 318 l 674 594 q 685 692 685 650 q 640 834 685 782 q 507 886 596 886 q 322 804 392 886 q 222 586 251 722 l 178 378 q 167 281 167 322 q 211 138 167 190 q 344 86 256 86 m 329 1178 q 358 1247 329 1218 q 426 1275 386 1275 q 495 1247 467 1275 q 524 1178 524 1218 q 495 1109 524 1138 q 426 1081 467 1081 q 358 1109 386 1081 q 329 1178 329 1138 m 607 1178 q 635 1247 607 1218 q 704 1275 664 1275 q 773 1247 744 1275 q 801 1178 801 1218 q 773 1109 801 1138 q 704 1081 744 1081 q 635 1109 664 1081 q 607 1178 607 1138 z "},"Ō":{"ha":850,"x_min":50,"x_max":801,"o":"m 107 594 q 249 890 147 789 q 524 992 351 992 q 730 915 658 992 q 801 701 801 838 q 798 642 801 674 q 788 579 794 611 l 744 378 q 602 82 704 183 q 328 -19 500 -19 q 122 58 193 -19 q 50 271 50 135 q 53 330 50 299 q 64 393 57 361 l 107 594 m 344 86 q 448 108 401 86 q 530 169 494 129 q 590 263 565 208 q 629 386 614 318 l 674 594 q 685 692 685 650 q 640 834 685 782 q 507 886 596 886 q 322 804 392 886 q 222 586 251 722 l 178 378 q 167 281 167 322 q 211 138 167 190 q 344 86 256 86 m 735 1075 l 343 1075 l 343 1167 l 735 1167 l 735 1075 z "},"Ő":{"ha":850,"x_min":50,"x_max":856,"o":"m 107 594 q 249 890 147 789 q 524 992 351 992 q 730 915 658 992 q 801 701 801 838 q 798 642 801 674 q 788 579 794 611 l 744 378 q 602 82 704 183 q 328 -19 500 -19 q 122 58 193 -19 q 50 271 50 135 q 53 330 50 299 q 64 393 57 361 l 107 594 m 344 86 q 448 108 401 86 q 530 169 494 129 q 590 263 565 208 q 629 386 614 318 l 674 594 q 685 692 685 650 q 640 834 685 782 q 507 886 596 886 q 322 804 392 886 q 222 586 251 722 l 178 378 q 167 281 167 322 q 211 138 167 190 q 344 86 256 86 m 635 1239 l 635 1231 l 492 1075 l 381 1075 l 507 1239 l 635 1239 m 856 1239 l 856 1231 l 713 1075 l 601 1075 l 728 1239 l 856 1239 z "},"Ŏ":{"ha":850,"x_min":50,"x_max":801,"o":"m 107 594 q 249 890 147 789 q 524 992 351 992 q 730 915 658 992 q 801 701 801 838 q 798 642 801 674 q 788 579 794 611 l 744 378 q 602 82 704 183 q 328 -19 500 -19 q 122 58 193 -19 q 50 271 50 135 q 53 330 50 299 q 64 393 57 361 l 107 594 m 344 86 q 448 108 401 86 q 530 169 494 129 q 590 263 565 208 q 629 386 614 318 l 674 594 q 685 692 685 650 q 640 834 685 782 q 507 886 596 886 q 322 804 392 886 q 222 586 251 722 l 178 378 q 167 281 167 322 q 211 138 167 190 q 344 86 256 86 m 739 1239 l 735 1219 q 677 1112 719 1149 q 560 1075 635 1075 q 455 1117 490 1075 q 432 1219 419 1158 l 436 1239 l 531 1239 l 526 1224 q 533 1181 519 1197 q 574 1165 546 1165 q 618 1183 604 1165 q 638 1222 632 1200 l 642 1239 l 739 1239 z "},"Ǒ":{"ha":850,"x_min":50,"x_max":801,"o":"m 107 594 q 249 890 147 789 q 524 992 351 992 q 730 915 658 992 q 801 701 801 838 q 798 642 801 674 q 788 579 794 611 l 744 378 q 602 82 704 183 q 328 -19 500 -19 q 122 58 193 -19 q 50 271 50 135 q 53 330 50 299 q 64 393 57 361 l 107 594 m 344 86 q 448 108 401 86 q 530 169 494 129 q 590 263 565 208 q 629 386 614 318 l 674 594 q 685 692 685 650 q 640 834 685 782 q 507 886 596 886 q 322 804 392 886 q 222 586 251 722 l 178 378 q 167 281 167 322 q 211 138 167 190 q 344 86 256 86 m 758 1239 l 758 1231 l 619 1075 l 447 1075 l 371 1239 l 483 1239 l 531 1117 l 547 1117 l 643 1239 l 758 1239 z "},"Ǫ":{"ha":850,"x_min":50,"x_max":801,"o":"m 107 594 q 249 890 147 789 q 524 992 351 992 q 730 915 658 992 q 801 701 801 838 q 798 642 801 674 q 788 579 794 611 l 744 378 q 680 189 722 274 q 563 50 638 104 l 368 -93 q 354 -117 354 -103 q 376 -136 354 -136 l 497 -136 l 497 -228 l 353 -228 q 278 -198 307 -228 q 250 -128 250 -168 q 264 -76 250 -103 q 307 -29 278 -50 l 321 -19 q 119 60 189 -17 q 50 271 50 136 q 53 330 50 299 q 64 393 57 361 l 107 594 m 344 86 q 448 108 401 86 q 530 169 494 129 q 590 263 565 208 q 629 386 614 318 l 674 594 q 685 692 685 650 q 640 834 685 782 q 507 886 596 886 q 322 804 392 886 q 222 586 251 722 l 178 378 q 167 281 167 322 q 211 138 167 190 q 344 86 256 86 z "},"Ọ":{"ha":850,"x_min":50,"x_max":801,"o":"m 107 594 q 249 890 147 789 q 524 992 351 992 q 730 915 658 992 q 801 701 801 838 q 798 642 801 674 q 788 579 794 611 l 744 378 q 602 82 704 183 q 328 -19 500 -19 q 122 58 193 -19 q 50 271 50 135 q 53 330 50 299 q 64 393 57 361 l 107 594 m 344 86 q 448 108 401 86 q 530 169 494 129 q 590 263 565 208 q 629 386 614 318 l 674 594 q 685 692 685 650 q 640 834 685 782 q 507 886 596 886 q 322 804 392 886 q 222 586 251 722 l 178 378 q 167 281 167 322 q 211 138 167 190 q 344 86 256 86 m 213 -185 q 241 -116 213 -144 q 310 -87 269 -87 q 378 -116 350 -87 q 407 -185 407 -144 q 378 -253 407 -225 q 310 -282 350 -282 q 241 -253 269 -282 q 213 -185 213 -225 z "},"Ỏ":{"ha":850,"x_min":50,"x_max":801,"o":"m 494 1042 l 494 1169 l 501 1178 l 601 1178 q 640 1157 614 1157 q 693 1214 693 1157 q 678 1254 693 1239 q 635 1269 663 1269 q 593 1254 610 1269 q 569 1214 576 1239 l 507 1239 q 555 1308 524 1281 q 643 1336 586 1336 q 733 1303 697 1336 q 768 1219 768 1269 q 735 1129 768 1167 q 651 1092 701 1092 q 601 1103 622 1092 q 571 1136 579 1115 l 563 1136 l 563 1042 l 494 1042 m 107 594 q 249 890 147 789 q 524 992 351 992 q 730 915 658 992 q 801 701 801 838 q 798 642 801 674 q 788 579 794 611 l 744 378 q 602 82 704 183 q 328 -19 500 -19 q 122 58 193 -19 q 50 271 50 135 q 53 330 50 299 q 64 393 57 361 l 107 594 m 344 86 q 448 108 401 86 q 530 169 494 129 q 590 263 565 208 q 629 386 614 318 l 674 594 q 685 692 685 650 q 640 834 685 782 q 507 886 596 886 q 322 804 392 886 q 222 586 251 722 l 178 378 q 167 281 167 322 q 211 138 167 190 q 344 86 256 86 z "},"Ố":{"ha":850,"x_min":50,"x_max":999,"o":"m 107 594 q 249 890 147 789 q 524 992 351 992 q 730 915 658 992 q 801 701 801 838 q 798 642 801 674 q 788 579 794 611 l 744 378 q 602 82 704 183 q 328 -19 500 -19 q 122 58 193 -19 q 50 271 50 135 q 53 330 50 299 q 64 393 57 361 l 107 594 m 344 86 q 448 108 401 86 q 530 169 494 129 q 590 263 565 208 q 629 386 614 318 l 674 594 q 685 692 685 650 q 640 834 685 782 q 507 886 596 886 q 322 804 392 886 q 222 586 251 722 l 178 378 q 167 281 167 322 q 211 138 167 190 q 344 86 256 86 m 364 1075 l 364 1083 l 503 1239 l 675 1239 l 751 1075 l 647 1075 l 593 1197 l 576 1197 l 482 1075 l 364 1075 m 999 1361 l 999 1353 l 856 1197 l 744 1197 l 871 1361 l 999 1361 z "},"Ồ":{"ha":850,"x_min":50,"x_max":801,"o":"m 107 594 q 249 890 147 789 q 524 992 351 992 q 730 915 658 992 q 801 701 801 838 q 798 642 801 674 q 788 579 794 611 l 744 378 q 602 82 704 183 q 328 -19 500 -19 q 122 58 193 -19 q 50 271 50 135 q 53 330 50 299 q 64 393 57 361 l 107 594 m 344 86 q 448 108 401 86 q 530 169 494 129 q 590 263 565 208 q 629 386 614 318 l 674 594 q 685 692 685 650 q 640 834 685 782 q 507 886 596 886 q 322 804 392 886 q 222 586 251 722 l 178 378 q 167 281 167 322 q 211 138 167 190 q 344 86 256 86 m 364 1075 l 364 1083 l 503 1239 l 675 1239 l 751 1075 l 647 1075 l 593 1197 l 576 1197 l 482 1075 l 364 1075 m 356 1361 l 413 1197 l 321 1197 l 239 1361 l 356 1361 z "},"Ổ":{"ha":850,"x_min":50,"x_max":1021,"o":"m 747 1192 l 747 1319 l 754 1328 l 854 1328 q 893 1307 867 1307 q 946 1364 946 1307 q 931 1404 946 1389 q 888 1419 915 1419 q 846 1404 863 1419 q 822 1364 829 1389 l 760 1389 q 808 1458 776 1431 q 896 1486 839 1486 q 985 1453 950 1486 q 1021 1369 1021 1419 q 988 1279 1021 1317 q 904 1242 954 1242 q 853 1253 875 1242 q 824 1286 832 1265 l 815 1286 l 815 1192 l 747 1192 m 107 594 q 249 890 147 789 q 524 992 351 992 q 730 915 658 992 q 801 701 801 838 q 798 642 801 674 q 788 579 794 611 l 744 378 q 602 82 704 183 q 328 -19 500 -19 q 122 58 193 -19 q 50 271 50 135 q 53 330 50 299 q 64 393 57 361 l 107 594 m 344 86 q 448 108 401 86 q 530 169 494 129 q 590 263 565 208 q 629 386 614 318 l 674 594 q 685 692 685 650 q 640 834 685 782 q 507 886 596 886 q 322 804 392 886 q 222 586 251 722 l 178 378 q 167 281 167 322 q 211 138 167 190 q 344 86 256 86 m 364 1075 l 364 1083 l 503 1239 l 675 1239 l 751 1075 l 647 1075 l 593 1197 l 576 1197 l 482 1075 l 364 1075 z "},"Ỗ":{"ha":850,"x_min":50,"x_max":836,"o":"m 107 594 q 249 890 147 789 q 524 992 351 992 q 730 915 658 992 q 801 701 801 838 q 798 642 801 674 q 788 579 794 611 l 744 378 q 602 82 704 183 q 328 -19 500 -19 q 122 58 193 -19 q 50 271 50 135 q 53 330 50 299 q 64 393 57 361 l 107 594 m 344 86 q 448 108 401 86 q 530 169 494 129 q 590 263 565 208 q 629 386 614 318 l 674 594 q 685 692 685 650 q 640 834 685 782 q 507 886 596 886 q 322 804 392 886 q 222 586 251 722 l 178 378 q 167 281 167 322 q 211 138 167 190 q 344 86 256 86 m 332 1014 l 332 1022 l 471 1178 l 643 1178 l 719 1014 l 615 1014 l 561 1136 l 544 1136 l 450 1014 l 332 1014 m 642 1340 q 656 1319 649 1326 q 675 1313 663 1313 q 701 1326 689 1313 l 768 1403 l 836 1344 l 779 1276 q 733 1235 760 1253 q 671 1218 707 1218 q 605 1238 628 1218 q 558 1300 582 1257 q 542 1324 549 1317 q 525 1331 536 1331 q 494 1314 510 1331 l 431 1240 l 363 1299 l 419 1367 q 465 1408 439 1390 q 529 1425 492 1425 q 593 1405 569 1425 q 642 1340 617 1385 z "},"Ộ":{"ha":850,"x_min":50,"x_max":801,"o":"m 107 594 q 249 890 147 789 q 524 992 351 992 q 730 915 658 992 q 801 701 801 838 q 798 642 801 674 q 788 579 794 611 l 744 378 q 602 82 704 183 q 328 -19 500 -19 q 122 58 193 -19 q 50 271 50 135 q 53 330 50 299 q 64 393 57 361 l 107 594 m 344 86 q 448 108 401 86 q 530 169 494 129 q 590 263 565 208 q 629 386 614 318 l 674 594 q 685 692 685 650 q 640 834 685 782 q 507 886 596 886 q 322 804 392 886 q 222 586 251 722 l 178 378 q 167 281 167 322 q 211 138 167 190 q 344 86 256 86 m 364 1075 l 364 1083 l 503 1239 l 675 1239 l 751 1075 l 647 1075 l 593 1197 l 576 1197 l 482 1075 l 364 1075 m 213 -185 q 241 -116 213 -144 q 310 -87 269 -87 q 378 -116 350 -87 q 407 -185 407 -144 q 378 -253 407 -225 q 310 -282 350 -282 q 241 -253 269 -282 q 213 -185 213 -225 z "},"Ơ":{"ha":850,"x_min":19,"x_max":908,"o":"m 714 875 q 742 944 714 915 q 811 972 771 972 q 880 944 851 972 q 908 875 908 915 q 907 858 908 865 l 882 739 q 839 658 871 686 q 753 631 807 631 l 664 631 l 593 303 q 470 57 557 133 q 256 -19 383 -19 q 85 42 151 -19 q 19 224 19 104 q 22 271 19 247 q 31 322 25 294 l 103 661 q 220 905 136 818 q 440 992 304 992 q 541 974 496 992 q 617 926 586 957 q 665 851 649 894 q 682 756 682 807 q 678 706 682 731 l 763 706 q 810 747 801 706 l 817 778 l 811 778 q 742 806 771 778 q 714 875 714 835 m 264 86 q 402 141 350 86 q 479 311 454 196 l 553 661 q 564 750 564 714 q 532 851 564 817 q 429 886 500 886 q 294 827 346 886 q 219 661 243 768 l 146 311 q 135 222 135 258 q 264 86 135 86 z "},"Ớ":{"ha":850,"x_min":19,"x_max":908,"o":"m 714 875 q 742 944 714 915 q 811 972 771 972 q 880 944 851 972 q 908 875 908 915 q 907 858 908 865 l 882 739 q 839 658 871 686 q 753 631 807 631 l 664 631 l 593 303 q 470 57 557 133 q 256 -19 383 -19 q 85 42 151 -19 q 19 224 19 104 q 22 271 19 247 q 31 322 25 294 l 103 661 q 220 905 136 818 q 440 992 304 992 q 541 974 496 992 q 617 926 586 957 q 665 851 649 894 q 682 756 682 807 q 678 706 682 731 l 763 706 q 810 747 801 706 l 817 778 l 811 778 q 742 806 771 778 q 714 875 714 835 m 264 86 q 402 141 350 86 q 479 311 454 196 l 553 661 q 564 750 564 714 q 532 851 564 817 q 429 886 500 886 q 294 827 346 886 q 219 661 243 768 l 146 311 q 135 222 135 258 q 264 86 135 86 m 664 1239 l 664 1231 l 521 1075 l 410 1075 l 536 1239 l 664 1239 z "},"Ờ":{"ha":850,"x_min":19,"x_max":908,"o":"m 714 875 q 742 944 714 915 q 811 972 771 972 q 880 944 851 972 q 908 875 908 915 q 907 858 908 865 l 882 739 q 839 658 871 686 q 753 631 807 631 l 664 631 l 593 303 q 470 57 557 133 q 256 -19 383 -19 q 85 42 151 -19 q 19 224 19 104 q 22 271 19 247 q 31 322 25 294 l 103 661 q 220 905 136 818 q 440 992 304 992 q 541 974 496 992 q 617 926 586 957 q 665 851 649 894 q 682 756 682 807 q 678 706 682 731 l 763 706 q 810 747 801 706 l 817 778 l 811 778 q 742 806 771 778 q 714 875 714 835 m 264 86 q 402 141 350 86 q 479 311 454 196 l 553 661 q 564 750 564 714 q 532 851 564 817 q 429 886 500 886 q 294 827 346 886 q 219 661 243 768 l 146 311 q 135 222 135 258 q 264 86 135 86 m 446 1239 l 503 1075 l 411 1075 l 329 1239 l 446 1239 z "},"Ở":{"ha":850,"x_min":19,"x_max":908,"o":"m 424 1042 l 424 1169 l 431 1178 l 531 1178 q 569 1157 543 1157 q 622 1214 622 1157 q 607 1254 622 1239 q 564 1269 592 1269 q 522 1254 539 1269 q 499 1214 506 1239 l 436 1239 q 484 1308 453 1281 q 572 1336 515 1336 q 662 1303 626 1336 q 697 1219 697 1269 q 664 1129 697 1167 q 581 1092 631 1092 q 530 1103 551 1092 q 500 1136 508 1115 l 492 1136 l 492 1042 l 424 1042 m 714 875 q 742 944 714 915 q 811 972 771 972 q 880 944 851 972 q 908 875 908 915 q 907 858 908 865 l 882 739 q 839 658 871 686 q 753 631 807 631 l 664 631 l 593 303 q 470 57 557 133 q 256 -19 383 -19 q 85 42 151 -19 q 19 224 19 104 q 22 271 19 247 q 31 322 25 294 l 103 661 q 220 905 136 818 q 440 992 304 992 q 541 974 496 992 q 617 926 586 957 q 665 851 649 894 q 682 756 682 807 q 678 706 682 731 l 763 706 q 810 747 801 706 l 817 778 l 811 778 q 742 806 771 778 q 714 875 714 835 m 264 86 q 402 141 350 86 q 479 311 454 196 l 553 661 q 564 750 564 714 q 532 851 564 817 q 429 886 500 886 q 294 827 346 886 q 219 661 243 768 l 146 311 q 135 222 135 258 q 264 86 135 86 z "},"Ỡ":{"ha":850,"x_min":19,"x_max":908,"o":"m 714 875 q 742 944 714 915 q 811 972 771 972 q 880 944 851 972 q 908 875 908 915 q 907 858 908 865 l 882 739 q 839 658 871 686 q 753 631 807 631 l 664 631 l 593 303 q 470 57 557 133 q 256 -19 383 -19 q 85 42 151 -19 q 19 224 19 104 q 22 271 19 247 q 31 322 25 294 l 103 661 q 220 905 136 818 q 440 992 304 992 q 541 974 496 992 q 617 926 586 957 q 665 851 649 894 q 682 756 682 807 q 678 706 682 731 l 763 706 q 810 747 801 706 l 817 778 l 811 778 q 742 806 771 778 q 714 875 714 835 m 264 86 q 402 141 350 86 q 479 311 454 196 l 553 661 q 564 750 564 714 q 532 851 564 817 q 429 886 500 886 q 294 827 346 886 q 219 661 243 768 l 146 311 q 135 222 135 258 q 264 86 135 86 m 543 1175 q 557 1154 550 1161 q 576 1147 564 1147 q 603 1161 590 1147 l 669 1238 l 738 1179 l 681 1111 q 635 1070 661 1088 q 572 1053 608 1053 q 506 1072 529 1053 q 460 1135 483 1092 q 444 1158 450 1151 q 426 1165 438 1165 q 396 1149 411 1165 l 332 1075 l 264 1133 l 321 1201 q 367 1242 340 1225 q 431 1260 393 1260 q 494 1240 471 1260 q 543 1175 518 1219 z "},"Ợ":{"ha":850,"x_min":19,"x_max":908,"o":"m 714 875 q 742 944 714 915 q 811 972 771 972 q 880 944 851 972 q 908 875 908 915 q 907 858 908 865 l 882 739 q 839 658 871 686 q 753 631 807 631 l 664 631 l 593 303 q 470 57 557 133 q 256 -19 383 -19 q 85 42 151 -19 q 19 224 19 104 q 22 271 19 247 q 31 322 25 294 l 103 661 q 220 905 136 818 q 440 992 304 992 q 541 974 496 992 q 617 926 586 957 q 665 851 649 894 q 682 756 682 807 q 678 706 682 731 l 763 706 q 810 747 801 706 l 817 778 l 811 778 q 742 806 771 778 q 714 875 714 835 m 264 86 q 402 141 350 86 q 479 311 454 196 l 553 661 q 564 750 564 714 q 532 851 564 817 q 429 886 500 886 q 294 827 346 886 q 219 661 243 768 l 146 311 q 135 222 135 258 q 264 86 135 86 m 154 -186 q 183 -117 154 -146 q 251 -89 211 -89 q 320 -117 292 -89 q 349 -186 349 -146 q 320 -255 349 -226 q 251 -283 292 -283 q 183 -255 211 -283 q 154 -186 154 -226 z "},"Ø":{"ha":850,"x_min":50,"x_max":801,"o":"m 107 594 q 249 890 147 789 q 524 992 351 992 q 635 974 583 992 l 690 1075 l 774 1028 l 718 925 q 801 701 801 849 q 798 642 801 674 q 788 579 794 611 l 744 378 q 602 82 704 183 q 328 -19 500 -19 q 217 -3 267 -19 l 154 -119 l 71 -71 l 133 46 q 50 271 50 122 q 53 330 50 299 q 64 393 57 361 l 107 594 m 167 281 q 194 160 167 206 l 581 874 q 507 886 549 886 q 322 804 392 886 q 222 586 251 722 l 178 378 q 167 281 167 322 m 344 86 q 448 108 401 86 q 530 169 494 129 q 590 263 565 208 q 629 386 614 318 l 674 594 q 685 692 685 650 q 657 811 685 763 l 271 97 q 344 86 304 86 z "},"Œ":{"ha":850,"x_min":47,"x_max":840,"o":"m 324 0 q 118 73 189 0 q 47 276 47 146 q 51 332 47 304 q 61 397 54 360 l 101 589 q 244 874 140 775 q 521 972 347 972 l 840 972 l 840 864 l 614 864 l 546 542 l 740 542 l 740 433 l 522 433 l 454 108 l 665 108 l 665 0 l 324 0 m 497 864 q 317 791 388 864 q 217 578 247 718 l 176 392 q 166 333 169 360 q 163 282 163 306 q 338 108 163 108 l 497 864 z "},"Ŕ":{"ha":850,"x_min":11,"x_max":808,"o":"m 622 0 l 506 0 l 575 325 q 578 351 578 336 q 565 388 578 375 q 519 400 551 400 l 213 400 l 128 0 l 11 0 l 218 972 l 547 972 q 740 910 671 972 q 808 735 808 847 q 760 576 808 643 q 628 475 711 510 l 628 458 q 682 435 663 456 q 701 381 701 415 q 697 350 701 368 l 622 0 m 236 508 l 450 508 q 546 524 501 508 q 622 569 590 540 q 672 638 654 599 q 690 722 690 676 q 649 828 690 792 q 525 864 607 864 l 311 864 l 236 508 m 690 1239 l 690 1231 l 547 1075 l 436 1075 l 563 1239 l 690 1239 z "},"Ř":{"ha":850,"x_min":11,"x_max":808,"o":"m 622 0 l 506 0 l 575 325 q 578 351 578 336 q 565 388 578 375 q 519 400 551 400 l 213 400 l 128 0 l 11 0 l 218 972 l 547 972 q 740 910 671 972 q 808 735 808 847 q 760 576 808 643 q 628 475 711 510 l 628 458 q 682 435 663 456 q 701 381 701 415 q 697 350 701 368 l 622 0 m 236 508 l 450 508 q 546 524 501 508 q 622 569 590 540 q 672 638 654 599 q 690 722 690 676 q 649 828 690 792 q 525 864 607 864 l 311 864 l 236 508 m 704 1239 l 704 1231 l 565 1075 l 393 1075 l 317 1239 l 429 1239 l 476 1117 l 493 1117 l 589 1239 l 704 1239 z "},"Ŗ":{"ha":850,"x_min":11,"x_max":808,"o":"m 622 0 l 506 0 l 575 325 q 578 351 578 336 q 565 388 578 375 q 519 400 551 400 l 213 400 l 128 0 l 11 0 l 218 972 l 547 972 q 740 910 671 972 q 808 735 808 847 q 760 576 808 643 q 628 475 711 510 l 628 458 q 682 435 663 456 q 701 381 701 415 q 697 350 701 368 l 622 0 m 236 508 l 450 508 q 546 524 501 508 q 622 569 590 540 q 672 638 654 599 q 690 722 690 676 q 649 828 690 792 q 525 864 607 864 l 311 864 l 236 508 m 214 -157 q 242 -88 214 -117 q 311 -60 271 -60 q 380 -88 351 -60 q 408 -157 408 -117 q 407 -174 408 -167 l 382 -293 q 339 -374 371 -346 q 253 -401 307 -401 l 181 -401 l 181 -326 l 263 -326 q 310 -285 301 -326 l 317 -254 l 311 -254 q 242 -226 271 -254 q 214 -157 214 -197 z "},"Ṛ":{"ha":850,"x_min":11,"x_max":808,"o":"m 622 0 l 506 0 l 575 325 q 578 351 578 336 q 565 388 578 375 q 519 400 551 400 l 213 400 l 128 0 l 11 0 l 218 972 l 547 972 q 740 910 671 972 q 808 735 808 847 q 760 576 808 643 q 628 475 711 510 l 628 458 q 682 435 663 456 q 701 381 701 415 q 697 350 701 368 l 622 0 m 236 508 l 450 508 q 546 524 501 508 q 622 569 590 540 q 672 638 654 599 q 690 722 690 676 q 649 828 690 792 q 525 864 607 864 l 311 864 l 236 508 m 219 -185 q 248 -116 219 -144 q 317 -87 276 -87 q 385 -116 357 -87 q 414 -185 414 -144 q 385 -253 414 -225 q 317 -282 357 -282 q 248 -253 276 -282 q 219 -185 219 -225 z "},"Ṝ":{"ha":850,"x_min":11,"x_max":808,"o":"m 622 0 l 506 0 l 575 325 q 578 351 578 336 q 565 388 578 375 q 519 400 551 400 l 213 400 l 128 0 l 11 0 l 218 972 l 547 972 q 740 910 671 972 q 808 735 808 847 q 760 576 808 643 q 628 475 711 510 l 628 458 q 682 435 663 456 q 701 381 701 415 q 697 350 701 368 l 622 0 m 236 508 l 450 508 q 546 524 501 508 q 622 569 590 540 q 672 638 654 599 q 690 722 690 676 q 649 828 690 792 q 525 864 607 864 l 311 864 l 236 508 m 704 1075 l 313 1075 l 313 1167 l 704 1167 l 704 1075 m 219 -185 q 248 -116 219 -144 q 317 -87 276 -87 q 385 -116 357 -87 q 414 -185 414 -144 q 385 -253 414 -225 q 317 -282 357 -282 q 248 -253 276 -282 q 219 -185 219 -225 z "},"Ṟ":{"ha":850,"x_min":11,"x_max":808,"o":"m 622 0 l 506 0 l 575 325 q 578 351 578 336 q 565 388 578 375 q 519 400 551 400 l 213 400 l 128 0 l 11 0 l 218 972 l 547 972 q 740 910 671 972 q 808 735 808 847 q 760 576 808 643 q 628 475 711 510 l 628 458 q 682 435 663 456 q 701 381 701 415 q 697 350 701 368 l 622 0 m 236 508 l 450 508 q 546 524 501 508 q 622 569 590 540 q 672 638 654 599 q 690 722 690 676 q 649 828 690 792 q 525 864 607 864 l 311 864 l 236 508 m 507 -179 l 115 -179 l 115 -87 l 507 -87 l 507 -179 z "},"Ś":{"ha":850,"x_min":26,"x_max":815,"o":"m 690 678 q 696 725 696 706 q 681 795 696 765 q 638 844 665 825 q 576 874 611 864 q 500 883 540 883 q 410 872 454 883 q 331 839 365 861 q 274 785 296 817 q 253 713 253 754 q 269 645 253 672 q 315 599 285 618 q 390 569 346 581 q 490 547 433 557 q 678 465 618 526 q 738 301 738 403 q 708 164 738 224 q 625 63 678 104 q 501 1 572 22 q 346 -19 429 -19 q 206 1 267 -19 q 106 57 146 21 q 47 142 67 93 q 26 251 26 192 q 35 336 26 292 l 43 378 l 160 378 l 153 344 q 144 268 144 303 q 200 133 144 176 q 360 89 256 89 q 456 103 410 89 q 538 142 503 117 q 595 205 574 168 q 617 288 617 242 q 605 353 617 326 q 567 399 593 381 q 498 431 540 418 q 396 453 456 443 q 290 481 338 463 q 207 528 242 499 q 153 598 172 557 q 133 694 133 639 q 163 821 133 765 q 242 914 192 876 q 362 972 293 951 q 510 992 431 992 q 639 972 582 992 q 735 919 696 953 q 794 842 774 886 q 815 747 815 797 q 814 719 815 733 q 810 692 813 706 l 799 642 l 682 642 l 690 678 m 721 1239 l 721 1231 l 578 1075 l 467 1075 l 593 1239 l 721 1239 z "},"Ŝ":{"ha":850,"x_min":26,"x_max":815,"o":"m 690 678 q 696 725 696 706 q 681 795 696 765 q 638 844 665 825 q 576 874 611 864 q 500 883 540 883 q 410 872 454 883 q 331 839 365 861 q 274 785 296 817 q 253 713 253 754 q 269 645 253 672 q 315 599 285 618 q 390 569 346 581 q 490 547 433 557 q 678 465 618 526 q 738 301 738 403 q 708 164 738 224 q 625 63 678 104 q 501 1 572 22 q 346 -19 429 -19 q 206 1 267 -19 q 106 57 146 21 q 47 142 67 93 q 26 251 26 192 q 35 336 26 292 l 43 378 l 160 378 l 153 344 q 144 268 144 303 q 200 133 144 176 q 360 89 256 89 q 456 103 410 89 q 538 142 503 117 q 595 205 574 168 q 617 288 617 242 q 605 353 617 326 q 567 399 593 381 q 498 431 540 418 q 396 453 456 443 q 290 481 338 463 q 207 528 242 499 q 153 598 172 557 q 133 694 133 639 q 163 821 133 765 q 242 914 192 876 q 362 972 293 951 q 510 992 431 992 q 639 972 582 992 q 735 919 696 953 q 794 842 774 886 q 815 747 815 797 q 814 719 815 733 q 810 692 813 706 l 799 642 l 682 642 l 690 678 m 335 1075 l 335 1083 l 474 1239 l 646 1239 l 722 1075 l 618 1075 l 564 1197 l 547 1197 l 453 1075 l 335 1075 z "},"Š":{"ha":850,"x_min":26,"x_max":815,"o":"m 690 678 q 696 725 696 706 q 681 795 696 765 q 638 844 665 825 q 576 874 611 864 q 500 883 540 883 q 410 872 454 883 q 331 839 365 861 q 274 785 296 817 q 253 713 253 754 q 269 645 253 672 q 315 599 285 618 q 390 569 346 581 q 490 547 433 557 q 678 465 618 526 q 738 301 738 403 q 708 164 738 224 q 625 63 678 104 q 501 1 572 22 q 346 -19 429 -19 q 206 1 267 -19 q 106 57 146 21 q 47 142 67 93 q 26 251 26 192 q 35 336 26 292 l 43 378 l 160 378 l 153 344 q 144 268 144 303 q 200 133 144 176 q 360 89 256 89 q 456 103 410 89 q 538 142 503 117 q 595 205 574 168 q 617 288 617 242 q 605 353 617 326 q 567 399 593 381 q 498 431 540 418 q 396 453 456 443 q 290 481 338 463 q 207 528 242 499 q 153 598 172 557 q 133 694 133 639 q 163 821 133 765 q 242 914 192 876 q 362 972 293 951 q 510 992 431 992 q 639 972 582 992 q 735 919 696 953 q 794 842 774 886 q 815 747 815 797 q 814 719 815 733 q 810 692 813 706 l 799 642 l 682 642 l 690 678 m 778 1239 l 778 1231 l 639 1075 l 467 1075 l 390 1239 l 503 1239 l 550 1117 l 567 1117 l 663 1239 l 778 1239 z "},"Ș":{"ha":850,"x_min":26,"x_max":815,"o":"m 690 678 q 696 725 696 706 q 681 795 696 765 q 638 844 665 825 q 576 874 611 864 q 500 883 540 883 q 410 872 454 883 q 331 839 365 861 q 274 785 296 817 q 253 713 253 754 q 269 645 253 672 q 315 599 285 618 q 390 569 346 581 q 490 547 433 557 q 678 465 618 526 q 738 301 738 403 q 708 164 738 224 q 625 63 678 104 q 501 1 572 22 q 346 -19 429 -19 q 206 1 267 -19 q 106 57 146 21 q 47 142 67 93 q 26 251 26 192 q 35 336 26 292 l 43 378 l 160 378 l 153 344 q 144 268 144 303 q 200 133 144 176 q 360 89 256 89 q 456 103 410 89 q 538 142 503 117 q 595 205 574 168 q 617 288 617 242 q 605 353 617 326 q 567 399 593 381 q 498 431 540 418 q 396 453 456 443 q 290 481 338 463 q 207 528 242 499 q 153 598 172 557 q 133 694 133 639 q 163 821 133 765 q 242 914 192 876 q 362 972 293 951 q 510 992 431 992 q 639 972 582 992 q 735 919 696 953 q 794 842 774 886 q 815 747 815 797 q 814 719 815 733 q 810 692 813 706 l 799 642 l 682 642 l 690 678 m 222 -157 q 251 -88 222 -117 q 319 -60 279 -60 q 388 -88 360 -60 q 417 -157 417 -117 q 415 -174 417 -167 l 390 -293 q 347 -374 379 -346 q 261 -401 315 -401 l 189 -401 l 189 -326 l 271 -326 q 318 -285 310 -326 l 325 -254 l 319 -254 q 251 -226 279 -254 q 222 -157 222 -197 z "},"Ş":{"ha":850,"x_min":26,"x_max":815,"o":"m 690 678 q 696 725 696 706 q 681 795 696 765 q 638 844 665 825 q 576 874 611 864 q 500 883 540 883 q 410 872 454 883 q 331 839 365 861 q 274 785 296 817 q 253 713 253 754 q 269 645 253 672 q 315 599 285 618 q 390 569 346 581 q 490 547 433 557 q 678 465 618 526 q 738 301 738 403 q 708 164 738 224 q 625 63 678 104 q 501 1 572 22 q 346 -19 429 -19 l 335 -19 l 308 -94 l 317 -94 q 392 -50 340 -50 q 462 -81 438 -50 q 486 -153 486 -111 q 451 -255 486 -215 q 342 -294 415 -294 q 251 -267 285 -294 q 211 -197 218 -240 l 281 -174 q 298 -212 283 -196 q 344 -228 313 -228 q 394 -210 376 -228 q 411 -164 411 -193 q 398 -128 411 -139 q 367 -117 385 -117 q 343 -122 351 -117 q 329 -136 335 -128 l 225 -136 l 225 -119 l 261 -12 q 85 77 143 7 q 26 251 26 147 q 35 336 26 292 l 43 378 l 160 378 l 153 344 q 144 268 144 303 q 200 133 144 176 q 360 89 256 89 q 456 103 410 89 q 538 142 503 117 q 595 205 574 168 q 617 288 617 242 q 605 353 617 326 q 567 399 593 381 q 498 431 540 418 q 396 453 456 443 q 290 481 338 463 q 207 528 242 499 q 153 598 172 557 q 133 694 133 639 q 163 821 133 765 q 242 914 192 876 q 362 972 293 951 q 510 992 431 992 q 639 972 582 992 q 735 919 696 953 q 794 842 774 886 q 815 747 815 797 q 814 719 815 733 q 810 692 813 706 l 799 642 l 682 642 l 690 678 z "},"Ṡ":{"ha":850,"x_min":26,"x_max":815,"o":"m 690 678 q 696 725 696 706 q 681 795 696 765 q 638 844 665 825 q 576 874 611 864 q 500 883 540 883 q 410 872 454 883 q 331 839 365 861 q 274 785 296 817 q 253 713 253 754 q 269 645 253 672 q 315 599 285 618 q 390 569 346 581 q 490 547 433 557 q 678 465 618 526 q 738 301 738 403 q 708 164 738 224 q 625 63 678 104 q 501 1 572 22 q 346 -19 429 -19 q 206 1 267 -19 q 106 57 146 21 q 47 142 67 93 q 26 251 26 192 q 35 336 26 292 l 43 378 l 160 378 l 153 344 q 144 268 144 303 q 200 133 144 176 q 360 89 256 89 q 456 103 410 89 q 538 142 503 117 q 595 205 574 168 q 617 288 617 242 q 605 353 617 326 q 567 399 593 381 q 498 431 540 418 q 396 453 456 443 q 290 481 338 463 q 207 528 242 499 q 153 598 172 557 q 133 694 133 639 q 163 821 133 765 q 242 914 192 876 q 362 972 293 951 q 510 992 431 992 q 639 972 582 992 q 735 919 696 953 q 794 842 774 886 q 815 747 815 797 q 814 719 815 733 q 810 692 813 706 l 799 642 l 682 642 l 690 678 m 413 1172 q 441 1241 413 1213 q 510 1269 469 1269 q 578 1241 550 1269 q 607 1172 607 1213 q 578 1103 607 1132 q 510 1075 550 1075 q 441 1103 469 1075 q 413 1172 413 1132 z "},"Ṣ":{"ha":850,"x_min":26,"x_max":815,"o":"m 690 678 q 696 725 696 706 q 681 795 696 765 q 638 844 665 825 q 576 874 611 864 q 500 883 540 883 q 410 872 454 883 q 331 839 365 861 q 274 785 296 817 q 253 713 253 754 q 269 645 253 672 q 315 599 285 618 q 390 569 346 581 q 490 547 433 557 q 678 465 618 526 q 738 301 738 403 q 708 164 738 224 q 625 63 678 104 q 501 1 572 22 q 346 -19 429 -19 q 206 1 267 -19 q 106 57 146 21 q 47 142 67 93 q 26 251 26 192 q 35 336 26 292 l 43 378 l 160 378 l 153 344 q 144 268 144 303 q 200 133 144 176 q 360 89 256 89 q 456 103 410 89 q 538 142 503 117 q 595 205 574 168 q 617 288 617 242 q 605 353 617 326 q 567 399 593 381 q 498 431 540 418 q 396 453 456 443 q 290 481 338 463 q 207 528 242 499 q 153 598 172 557 q 133 694 133 639 q 163 821 133 765 q 242 914 192 876 q 362 972 293 951 q 510 992 431 992 q 639 972 582 992 q 735 919 696 953 q 794 842 774 886 q 815 747 815 797 q 814 719 815 733 q 810 692 813 706 l 799 642 l 682 642 l 690 678 m 250 -185 q 278 -116 250 -144 q 347 -87 307 -87 q 416 -116 388 -87 q 444 -185 444 -144 q 416 -253 444 -225 q 347 -282 388 -282 q 278 -253 307 -282 q 250 -185 250 -225 z "},"ẞ":{"ha":850,"x_min":29,"x_max":800,"o":"m 364 483 l 364 650 l 700 849 l 700 864 l 500 864 q 365 822 417 864 q 293 689 313 781 l 146 0 l 29 0 l 153 581 l 69 581 l 69 689 l 176 689 l 181 708 q 508 972 238 972 l 800 972 l 800 800 l 456 592 l 456 575 l 519 575 q 613 560 569 575 q 688 515 656 546 q 738 438 719 485 q 756 328 756 392 q 728 194 756 254 q 648 91 700 135 q 521 24 596 47 q 353 0 446 0 l 254 0 l 254 108 l 374 108 q 481 124 432 108 q 565 167 531 139 q 619 235 600 194 q 639 325 639 275 q 595 445 639 407 q 472 483 551 483 l 364 483 z "},"Ť":{"ha":850,"x_min":143,"x_max":842,"o":"m 143 972 l 842 972 l 842 864 l 560 864 l 376 0 l 260 0 l 443 864 l 143 864 l 143 972 m 754 1239 l 754 1231 l 615 1075 l 443 1075 l 367 1239 l 479 1239 l 526 1117 l 543 1117 l 639 1239 l 754 1239 z "},"Ţ":{"ha":850,"x_min":143,"x_max":842,"o":"m 143 972 l 842 972 l 842 864 l 560 864 l 376 0 l 336 0 l 314 -94 l 322 -94 q 400 -50 346 -50 q 470 -81 446 -50 q 494 -153 494 -111 q 459 -255 494 -215 q 350 -294 424 -294 q 260 -267 293 -294 q 219 -197 226 -240 l 289 -174 q 306 -212 292 -196 q 353 -228 321 -228 q 402 -210 385 -228 q 419 -164 419 -193 q 406 -128 419 -139 q 375 -117 393 -117 q 351 -122 360 -117 q 338 -136 343 -128 l 233 -136 l 233 -119 l 443 864 l 143 864 l 143 972 z "},"Ț":{"ha":850,"x_min":143,"x_max":842,"o":"m 143 972 l 842 972 l 842 864 l 560 864 l 376 0 l 260 0 l 443 864 l 143 864 l 143 972 m 193 -157 q 222 -88 193 -117 q 290 -60 250 -60 q 359 -88 331 -60 q 388 -157 388 -117 q 386 -174 388 -167 l 361 -293 q 318 -374 350 -346 q 232 -401 286 -401 l 160 -401 l 160 -326 l 242 -326 q 289 -285 281 -326 l 296 -254 l 290 -254 q 222 -226 250 -254 q 193 -157 193 -197 z "},"Ṭ":{"ha":850,"x_min":143,"x_max":842,"o":"m 143 972 l 842 972 l 842 864 l 560 864 l 376 0 l 260 0 l 443 864 l 143 864 l 143 972 m 194 -185 q 223 -116 194 -144 q 292 -87 251 -87 q 360 -116 332 -87 q 389 -185 389 -144 q 360 -253 389 -225 q 292 -282 332 -282 q 223 -253 251 -282 q 194 -185 194 -225 z "},"Ṯ":{"ha":850,"x_min":115,"x_max":842,"o":"m 143 972 l 842 972 l 842 864 l 560 864 l 376 0 l 260 0 l 443 864 l 143 864 l 143 972 m 507 -179 l 115 -179 l 115 -87 l 507 -87 l 507 -179 z "},"Ŧ":{"ha":850,"x_min":161,"x_max":843,"o":"m 161 972 l 843 972 l 843 864 l 561 864 l 504 594 l 699 594 l 699 486 l 481 486 l 378 0 l 261 0 l 364 486 l 171 486 l 171 594 l 388 594 l 444 864 l 161 864 l 161 972 z "},"Ù":{"ha":850,"x_min":51,"x_max":856,"o":"m 314 972 l 178 328 q 171 285 174 306 q 168 247 168 265 q 339 86 168 86 q 510 147 443 86 q 603 328 578 208 l 739 972 l 856 972 l 719 328 q 588 67 683 154 q 322 -19 493 -19 q 213 -3 263 -19 q 127 47 163 14 q 72 126 92 79 q 51 236 51 174 q 53 284 51 260 q 63 336 56 308 l 197 972 l 314 972 m 535 1239 l 592 1075 l 500 1075 l 418 1239 l 535 1239 z "},"Ú":{"ha":850,"x_min":51,"x_max":856,"o":"m 314 972 l 178 328 q 171 285 174 306 q 168 247 168 265 q 339 86 168 86 q 510 147 443 86 q 603 328 578 208 l 739 972 l 856 972 l 719 328 q 588 67 683 154 q 322 -19 493 -19 q 213 -3 263 -19 q 127 47 163 14 q 72 126 92 79 q 51 236 51 174 q 53 284 51 260 q 63 336 56 308 l 197 972 l 314 972 m 747 1239 l 747 1231 l 604 1075 l 493 1075 l 619 1239 l 747 1239 z "},"Û":{"ha":850,"x_min":51,"x_max":856,"o":"m 314 972 l 178 328 q 171 285 174 306 q 168 247 168 265 q 339 86 168 86 q 510 147 443 86 q 603 328 578 208 l 739 972 l 856 972 l 719 328 q 588 67 683 154 q 322 -19 493 -19 q 213 -3 263 -19 q 127 47 163 14 q 72 126 92 79 q 51 236 51 174 q 53 284 51 260 q 63 336 56 308 l 197 972 l 314 972 m 344 1075 l 344 1083 l 483 1239 l 656 1239 l 732 1075 l 628 1075 l 574 1197 l 557 1197 l 463 1075 l 344 1075 z "},"Ũ":{"ha":850,"x_min":51,"x_max":856,"o":"m 314 972 l 178 328 q 171 285 174 306 q 168 247 168 265 q 339 86 168 86 q 510 147 443 86 q 603 328 578 208 l 739 972 l 856 972 l 719 328 q 588 67 683 154 q 322 -19 493 -19 q 213 -3 263 -19 q 127 47 163 14 q 72 126 92 79 q 51 236 51 174 q 53 284 51 260 q 63 336 56 308 l 197 972 l 314 972 m 603 1175 q 617 1154 610 1161 q 636 1147 624 1147 q 663 1161 650 1147 l 729 1238 l 797 1179 l 740 1111 q 694 1070 721 1088 q 632 1053 668 1053 q 566 1072 589 1053 q 519 1135 543 1092 q 503 1158 510 1151 q 486 1165 497 1165 q 456 1149 471 1165 l 392 1075 l 324 1133 l 381 1201 q 426 1242 400 1225 q 490 1260 453 1260 q 554 1240 531 1260 q 603 1175 578 1219 z "},"Ü":{"ha":850,"x_min":51,"x_max":856,"o":"m 314 972 l 178 328 q 171 285 174 306 q 168 247 168 265 q 339 86 168 86 q 510 147 443 86 q 603 328 578 208 l 739 972 l 856 972 l 719 328 q 588 67 683 154 q 322 -19 493 -19 q 213 -3 263 -19 q 127 47 163 14 q 72 126 92 79 q 51 236 51 174 q 53 284 51 260 q 63 336 56 308 l 197 972 l 314 972 m 299 1178 q 327 1247 299 1218 q 396 1275 356 1275 q 465 1247 436 1275 q 493 1178 493 1218 q 465 1109 493 1138 q 396 1081 436 1081 q 327 1109 356 1081 q 299 1178 299 1138 m 576 1178 q 605 1247 576 1218 q 674 1275 633 1275 q 742 1247 714 1275 q 771 1178 771 1218 q 742 1109 771 1138 q 674 1081 714 1081 q 605 1109 633 1081 q 576 1178 576 1138 z "},"Ū":{"ha":850,"x_min":51,"x_max":856,"o":"m 314 972 l 178 328 q 171 285 174 306 q 168 247 168 265 q 339 86 168 86 q 510 147 443 86 q 603 328 578 208 l 739 972 l 856 972 l 719 328 q 588 67 683 154 q 322 -19 493 -19 q 213 -3 263 -19 q 127 47 163 14 q 72 126 92 79 q 51 236 51 174 q 53 284 51 260 q 63 336 56 308 l 197 972 l 314 972 m 731 1075 l 339 1075 l 339 1167 l 731 1167 l 731 1075 z "},"Ŭ":{"ha":850,"x_min":51,"x_max":856,"o":"m 314 972 l 178 328 q 171 285 174 306 q 168 247 168 265 q 339 86 168 86 q 510 147 443 86 q 603 328 578 208 l 739 972 l 856 972 l 719 328 q 588 67 683 154 q 322 -19 493 -19 q 213 -3 263 -19 q 127 47 163 14 q 72 126 92 79 q 51 236 51 174 q 53 284 51 260 q 63 336 56 308 l 197 972 l 314 972 m 714 1239 l 710 1219 q 652 1112 694 1149 q 535 1075 610 1075 q 430 1117 465 1075 q 407 1219 394 1158 l 411 1239 l 506 1239 l 501 1224 q 508 1181 494 1197 q 549 1165 521 1165 q 593 1183 579 1165 q 613 1222 607 1200 l 617 1239 l 714 1239 z "},"Ů":{"ha":850,"x_min":51,"x_max":856,"o":"m 314 972 l 178 328 q 171 285 174 306 q 168 247 168 265 q 339 86 168 86 q 510 147 443 86 q 603 328 578 208 l 739 972 l 856 972 l 719 328 q 588 67 683 154 q 322 -19 493 -19 q 213 -3 263 -19 q 127 47 163 14 q 72 126 92 79 q 51 236 51 174 q 53 284 51 260 q 63 336 56 308 l 197 972 l 314 972 m 403 1211 q 444 1312 403 1271 q 544 1353 485 1353 q 645 1312 604 1353 q 686 1211 686 1271 q 645 1110 686 1151 q 544 1069 604 1069 q 444 1110 485 1069 q 403 1211 403 1151 m 486 1211 q 503 1169 486 1186 q 544 1153 519 1153 q 586 1169 569 1153 q 603 1211 603 1186 q 586 1253 603 1236 q 544 1269 569 1269 q 503 1253 519 1269 q 486 1211 486 1236 z "},"Ű":{"ha":850,"x_min":51,"x_max":856,"o":"m 314 972 l 178 328 q 171 285 174 306 q 168 247 168 265 q 339 86 168 86 q 510 147 443 86 q 603 328 578 208 l 739 972 l 856 972 l 719 328 q 588 67 683 154 q 322 -19 493 -19 q 213 -3 263 -19 q 127 47 163 14 q 72 126 92 79 q 51 236 51 174 q 53 284 51 260 q 63 336 56 308 l 197 972 l 314 972 m 618 1239 l 618 1231 l 475 1075 l 364 1075 l 490 1239 l 618 1239 m 839 1239 l 839 1231 l 696 1075 l 585 1075 l 711 1239 l 839 1239 z "},"Ǔ":{"ha":850,"x_min":51,"x_max":856,"o":"m 314 972 l 178 328 q 171 285 174 306 q 168 247 168 265 q 339 86 168 86 q 510 147 443 86 q 603 328 578 208 l 739 972 l 856 972 l 719 328 q 588 67 683 154 q 322 -19 493 -19 q 213 -3 263 -19 q 127 47 163 14 q 72 126 92 79 q 51 236 51 174 q 53 284 51 260 q 63 336 56 308 l 197 972 l 314 972 m 760 1239 l 760 1231 l 621 1075 l 449 1075 l 372 1239 l 485 1239 l 532 1117 l 549 1117 l 644 1239 l 760 1239 z "},"Ų":{"ha":850,"x_min":51,"x_max":856,"o":"m 314 972 l 178 328 q 171 285 174 306 q 168 247 168 265 q 339 86 168 86 q 510 147 443 86 q 603 328 578 208 l 739 972 l 856 972 l 719 328 q 563 47 678 132 l 371 -93 q 361 -103 365 -97 q 357 -117 357 -108 q 379 -136 357 -136 l 500 -136 l 500 -228 l 356 -228 q 281 -198 310 -228 q 253 -128 253 -168 q 267 -76 253 -103 q 310 -29 281 -50 l 324 -19 q 213 -3 263 -19 q 127 47 163 14 q 72 126 92 79 q 51 236 51 174 q 53 284 51 260 q 63 336 56 308 l 197 972 l 314 972 z "},"Ǖ":{"ha":850,"x_min":51,"x_max":856,"o":"m 314 972 l 178 328 q 171 285 174 306 q 168 247 168 265 q 339 86 168 86 q 510 147 443 86 q 603 328 578 208 l 739 972 l 856 972 l 719 328 q 588 67 683 154 q 322 -19 493 -19 q 213 -3 263 -19 q 127 47 163 14 q 72 126 92 79 q 51 236 51 174 q 53 284 51 260 q 63 336 56 308 l 197 972 l 314 972 m 290 1111 q 319 1180 290 1151 q 388 1208 347 1208 q 456 1180 428 1208 q 485 1111 485 1151 q 456 1042 485 1071 q 388 1014 428 1014 q 319 1042 347 1014 q 290 1111 290 1071 m 568 1111 q 597 1180 568 1151 q 665 1208 625 1208 q 734 1180 706 1208 q 763 1111 763 1151 q 734 1042 763 1071 q 665 1014 706 1014 q 597 1042 625 1014 q 568 1111 568 1071 m 722 1250 l 331 1250 l 331 1342 l 722 1342 l 722 1250 z "},"Ǘ":{"ha":850,"x_min":51,"x_max":856,"o":"m 314 972 l 178 328 q 171 285 174 306 q 168 247 168 265 q 339 86 168 86 q 510 147 443 86 q 603 328 578 208 l 739 972 l 856 972 l 719 328 q 588 67 683 154 q 322 -19 493 -19 q 213 -3 263 -19 q 127 47 163 14 q 72 126 92 79 q 51 236 51 174 q 53 284 51 260 q 63 336 56 308 l 197 972 l 314 972 m 725 1414 l 725 1406 l 582 1250 l 471 1250 l 597 1414 l 725 1414 m 290 1111 q 319 1180 290 1151 q 388 1208 347 1208 q 456 1180 428 1208 q 485 1111 485 1151 q 456 1042 485 1071 q 388 1014 428 1014 q 319 1042 347 1014 q 290 1111 290 1071 m 568 1111 q 597 1180 568 1151 q 665 1208 625 1208 q 734 1180 706 1208 q 763 1111 763 1151 q 734 1042 763 1071 q 665 1014 706 1014 q 597 1042 625 1014 q 568 1111 568 1071 z "},"Ǚ":{"ha":850,"x_min":51,"x_max":856,"o":"m 314 972 l 178 328 q 171 285 174 306 q 168 247 168 265 q 339 86 168 86 q 510 147 443 86 q 603 328 578 208 l 739 972 l 856 972 l 719 328 q 588 67 683 154 q 322 -19 493 -19 q 213 -3 263 -19 q 127 47 163 14 q 72 126 92 79 q 51 236 51 174 q 53 284 51 260 q 63 336 56 308 l 197 972 l 314 972 m 761 1414 l 761 1406 l 622 1250 l 450 1250 l 374 1414 l 486 1414 l 533 1292 l 550 1292 l 646 1414 l 761 1414 m 290 1111 q 319 1180 290 1151 q 388 1208 347 1208 q 456 1180 428 1208 q 485 1111 485 1151 q 456 1042 485 1071 q 388 1014 428 1014 q 319 1042 347 1014 q 290 1111 290 1071 m 568 1111 q 597 1180 568 1151 q 665 1208 625 1208 q 734 1180 706 1208 q 763 1111 763 1151 q 734 1042 763 1071 q 665 1014 706 1014 q 597 1042 625 1014 q 568 1111 568 1071 z "},"Ǜ":{"ha":850,"x_min":51,"x_max":856,"o":"m 314 972 l 178 328 q 171 285 174 306 q 168 247 168 265 q 339 86 168 86 q 510 147 443 86 q 603 328 578 208 l 739 972 l 856 972 l 719 328 q 588 67 683 154 q 322 -19 493 -19 q 213 -3 263 -19 q 127 47 163 14 q 72 126 92 79 q 51 236 51 174 q 53 284 51 260 q 63 336 56 308 l 197 972 l 314 972 m 507 1414 l 564 1250 l 472 1250 l 390 1414 l 507 1414 m 290 1111 q 319 1180 290 1151 q 388 1208 347 1208 q 456 1180 428 1208 q 485 1111 485 1151 q 456 1042 485 1071 q 388 1014 428 1014 q 319 1042 347 1014 q 290 1111 290 1071 m 568 1111 q 597 1180 568 1151 q 665 1208 625 1208 q 734 1180 706 1208 q 763 1111 763 1151 q 734 1042 763 1071 q 665 1014 706 1014 q 597 1042 625 1014 q 568 1111 568 1071 z "},"Ụ":{"ha":850,"x_min":51,"x_max":856,"o":"m 314 972 l 178 328 q 171 285 174 306 q 168 247 168 265 q 339 86 168 86 q 510 147 443 86 q 603 328 578 208 l 739 972 l 856 972 l 719 328 q 588 67 683 154 q 322 -19 493 -19 q 213 -3 263 -19 q 127 47 163 14 q 72 126 92 79 q 51 236 51 174 q 53 284 51 260 q 63 336 56 308 l 197 972 l 314 972 m 181 -185 q 209 -116 181 -144 q 278 -87 238 -87 q 347 -116 318 -87 q 375 -185 375 -144 q 347 -253 375 -225 q 278 -282 318 -282 q 209 -253 238 -282 q 181 -185 181 -225 z "},"Ủ":{"ha":850,"x_min":51,"x_max":856,"o":"m 494 1042 l 494 1169 l 501 1178 l 601 1178 q 640 1157 614 1157 q 693 1214 693 1157 q 678 1254 693 1239 q 635 1269 663 1269 q 593 1254 610 1269 q 569 1214 576 1239 l 507 1239 q 555 1308 524 1281 q 643 1336 586 1336 q 733 1303 697 1336 q 768 1219 768 1269 q 735 1129 768 1167 q 651 1092 701 1092 q 601 1103 622 1092 q 571 1136 579 1115 l 563 1136 l 563 1042 l 494 1042 m 314 972 l 178 328 q 171 285 174 306 q 168 247 168 265 q 339 86 168 86 q 510 147 443 86 q 603 328 578 208 l 739 972 l 856 972 l 719 328 q 588 67 683 154 q 322 -19 493 -19 q 213 -3 263 -19 q 127 47 163 14 q 72 126 92 79 q 51 236 51 174 q 53 284 51 260 q 63 336 56 308 l 197 972 l 314 972 z "},"Ư":{"ha":850,"x_min":7,"x_max":932,"o":"m 738 875 q 766 944 738 915 q 835 972 794 972 q 903 944 875 972 q 932 875 932 915 q 931 858 932 865 l 906 739 q 863 658 894 686 q 776 631 831 631 l 638 631 l 564 281 q 517 142 547 199 q 444 49 486 85 q 348 -3 401 13 q 232 -19 294 -19 q 142 -6 183 -19 q 72 36 101 8 q 24 107 42 64 q 7 207 7 150 q 10 252 7 229 q 18 301 13 275 l 160 972 l 276 972 l 131 286 q 122 215 122 246 q 156 117 122 147 q 247 86 190 86 q 375 134 325 86 q 447 286 425 182 l 593 972 l 710 972 l 654 706 l 786 706 q 833 747 825 706 l 840 778 l 835 778 q 766 806 794 778 q 738 875 738 835 z "},"Ứ":{"ha":850,"x_min":7,"x_max":932,"o":"m 633 1239 l 633 1231 l 490 1075 l 379 1075 l 506 1239 l 633 1239 m 738 875 q 766 944 738 915 q 835 972 794 972 q 903 944 875 972 q 932 875 932 915 q 931 858 932 865 l 906 739 q 863 658 894 686 q 776 631 831 631 l 638 631 l 564 281 q 517 142 547 199 q 444 49 486 85 q 348 -3 401 13 q 232 -19 294 -19 q 142 -6 183 -19 q 72 36 101 8 q 24 107 42 64 q 7 207 7 150 q 10 252 7 229 q 18 301 13 275 l 160 972 l 276 972 l 131 286 q 122 215 122 246 q 156 117 122 147 q 247 86 190 86 q 375 134 325 86 q 447 286 425 182 l 593 972 l 710 972 l 654 706 l 786 706 q 833 747 825 706 l 840 778 l 835 778 q 766 806 794 778 q 738 875 738 835 z "},"Ừ":{"ha":850,"x_min":7,"x_max":932,"o":"m 443 1239 l 500 1075 l 408 1075 l 326 1239 l 443 1239 m 738 875 q 766 944 738 915 q 835 972 794 972 q 903 944 875 972 q 932 875 932 915 q 931 858 932 865 l 906 739 q 863 658 894 686 q 776 631 831 631 l 638 631 l 564 281 q 517 142 547 199 q 444 49 486 85 q 348 -3 401 13 q 232 -19 294 -19 q 142 -6 183 -19 q 72 36 101 8 q 24 107 42 64 q 7 207 7 150 q 10 252 7 229 q 18 301 13 275 l 160 972 l 276 972 l 131 286 q 122 215 122 246 q 156 117 122 147 q 247 86 190 86 q 375 134 325 86 q 447 286 425 182 l 593 972 l 710 972 l 654 706 l 786 706 q 833 747 825 706 l 840 778 l 835 778 q 766 806 794 778 q 738 875 738 835 z "},"Ử":{"ha":850,"x_min":7,"x_max":932,"o":"m 397 1042 l 397 1169 l 404 1178 l 504 1178 q 540 1158 514 1158 q 581 1176 565 1158 q 596 1217 596 1193 q 583 1255 596 1240 q 546 1269 569 1269 q 499 1252 515 1269 q 472 1214 482 1235 l 411 1239 q 464 1308 429 1281 q 553 1336 499 1336 q 639 1303 606 1336 q 672 1219 672 1269 q 663 1170 672 1193 q 635 1130 653 1147 q 595 1102 618 1113 q 546 1092 572 1092 q 474 1136 492 1092 l 465 1136 l 465 1042 l 397 1042 m 738 875 q 766 944 738 915 q 835 972 794 972 q 903 944 875 972 q 932 875 932 915 q 931 858 932 865 l 906 739 q 863 658 894 686 q 776 631 831 631 l 638 631 l 564 281 q 517 142 547 199 q 444 49 486 85 q 348 -3 401 13 q 232 -19 294 -19 q 142 -6 183 -19 q 72 36 101 8 q 24 107 42 64 q 7 207 7 150 q 10 252 7 229 q 18 301 13 275 l 160 972 l 276 972 l 131 286 q 122 215 122 246 q 156 117 122 147 q 247 86 190 86 q 375 134 325 86 q 447 286 425 182 l 593 972 l 710 972 l 654 706 l 786 706 q 833 747 825 706 l 840 778 l 835 778 q 766 806 794 778 q 738 875 738 835 z "},"Ữ":{"ha":850,"x_min":7,"x_max":932,"o":"m 499 1175 q 513 1154 506 1161 q 532 1147 519 1147 q 558 1161 546 1147 l 625 1238 l 693 1179 l 636 1111 q 590 1070 617 1088 q 528 1053 564 1053 q 462 1072 485 1053 q 415 1135 439 1092 q 399 1158 406 1151 q 382 1165 393 1165 q 351 1149 367 1165 l 288 1075 l 219 1133 l 276 1201 q 322 1242 296 1225 q 386 1260 349 1260 q 450 1240 426 1260 q 499 1175 474 1219 m 738 875 q 766 944 738 915 q 835 972 794 972 q 903 944 875 972 q 932 875 932 915 q 931 858 932 865 l 906 739 q 863 658 894 686 q 776 631 831 631 l 638 631 l 564 281 q 517 142 547 199 q 444 49 486 85 q 348 -3 401 13 q 232 -19 294 -19 q 142 -6 183 -19 q 72 36 101 8 q 24 107 42 64 q 7 207 7 150 q 10 252 7 229 q 18 301 13 275 l 160 972 l 276 972 l 131 286 q 122 215 122 246 q 156 117 122 147 q 247 86 190 86 q 375 134 325 86 q 447 286 425 182 l 593 972 l 710 972 l 654 706 l 786 706 q 833 747 825 706 l 840 778 l 835 778 q 766 806 794 778 q 738 875 738 835 z "},"Ự":{"ha":850,"x_min":7,"x_max":932,"o":"m 738 875 q 766 944 738 915 q 835 972 794 972 q 903 944 875 972 q 932 875 932 915 q 931 858 932 865 l 906 739 q 863 658 894 686 q 776 631 831 631 l 638 631 l 564 281 q 517 142 547 199 q 444 49 486 85 q 348 -3 401 13 q 232 -19 294 -19 q 142 -6 183 -19 q 72 36 101 8 q 24 107 42 64 q 7 207 7 150 q 10 252 7 229 q 18 301 13 275 l 160 972 l 276 972 l 131 286 q 122 215 122 246 q 156 117 122 147 q 247 86 190 86 q 375 134 325 86 q 447 286 425 182 l 593 972 l 710 972 l 654 706 l 786 706 q 833 747 825 706 l 840 778 l 835 778 q 766 806 794 778 q 738 875 738 835 m 86 -185 q 115 -116 86 -144 q 183 -87 143 -87 q 252 -116 224 -87 q 281 -185 281 -144 q 252 -253 281 -225 q 183 -282 224 -282 q 115 -253 143 -282 q 86 -185 86 -225 z "},"Ŵ":{"ha":850,"x_min":17,"x_max":922,"o":"m 625 0 l 411 0 l 524 922 l 507 922 l 231 0 l 17 0 l 132 972 l 238 972 l 128 50 l 144 50 l 417 972 l 633 972 l 517 50 l 533 50 l 814 972 l 922 972 l 625 0 m 333 1075 l 333 1083 l 472 1239 l 644 1239 l 721 1075 l 617 1075 l 563 1197 l 546 1197 l 451 1075 l 333 1075 z "},"Ẁ":{"ha":850,"x_min":17,"x_max":922,"o":"m 625 0 l 411 0 l 524 922 l 507 922 l 231 0 l 17 0 l 132 972 l 238 972 l 128 50 l 144 50 l 417 972 l 633 972 l 517 50 l 533 50 l 814 972 l 922 972 l 625 0 m 524 1239 l 581 1075 l 489 1075 l 407 1239 l 524 1239 z "},"Ẃ":{"ha":850,"x_min":17,"x_max":922,"o":"m 625 0 l 411 0 l 524 922 l 507 922 l 231 0 l 17 0 l 132 972 l 238 972 l 128 50 l 144 50 l 417 972 l 633 972 l 517 50 l 533 50 l 814 972 l 922 972 l 625 0 m 740 1239 l 740 1231 l 597 1075 l 486 1075 l 613 1239 l 740 1239 z "},"Ẅ":{"ha":850,"x_min":17,"x_max":922,"o":"m 625 0 l 411 0 l 524 922 l 507 922 l 231 0 l 17 0 l 132 972 l 238 972 l 128 50 l 144 50 l 417 972 l 633 972 l 517 50 l 533 50 l 814 972 l 922 972 l 625 0 m 313 1172 q 341 1241 313 1213 q 410 1269 369 1269 q 478 1241 450 1269 q 507 1172 507 1213 q 478 1103 507 1132 q 410 1075 450 1075 q 341 1103 369 1075 q 313 1172 313 1132 m 590 1172 q 619 1241 590 1213 q 688 1269 647 1269 q 756 1241 728 1269 q 785 1172 785 1213 q 756 1103 785 1132 q 688 1075 728 1075 q 619 1103 647 1075 q 590 1172 590 1132 z "},"Ý":{"ha":850,"x_min":133,"x_max":903,"o":"m 328 342 l 303 342 l 133 972 l 254 972 l 390 442 l 407 442 l 768 972 l 903 972 l 903 964 l 469 342 l 444 342 l 372 0 l 256 0 l 328 342 m 714 1239 l 714 1231 l 571 1075 l 460 1075 l 586 1239 l 714 1239 z "},"Ỳ":{"ha":850,"x_min":133,"x_max":903,"o":"m 328 342 l 303 342 l 133 972 l 254 972 l 390 442 l 407 442 l 768 972 l 903 972 l 903 964 l 469 342 l 444 342 l 372 0 l 256 0 l 328 342 m 510 1239 l 567 1075 l 475 1075 l 393 1239 l 510 1239 z "},"Ŷ":{"ha":850,"x_min":133,"x_max":903,"o":"m 328 342 l 303 342 l 133 972 l 254 972 l 390 442 l 407 442 l 768 972 l 903 972 l 903 964 l 469 342 l 444 342 l 372 0 l 256 0 l 328 342 m 315 1075 l 315 1083 l 454 1239 l 626 1239 l 703 1075 l 599 1075 l 544 1197 l 528 1197 l 433 1075 l 315 1075 z "},"Ÿ":{"ha":850,"x_min":133,"x_max":903,"o":"m 328 342 l 303 342 l 133 972 l 254 972 l 390 442 l 407 442 l 768 972 l 903 972 l 903 964 l 469 342 l 444 342 l 372 0 l 256 0 l 328 342 m 283 1178 q 312 1247 283 1218 q 381 1275 340 1275 q 449 1247 421 1275 q 478 1178 478 1218 q 449 1109 478 1138 q 381 1081 421 1081 q 312 1109 340 1081 q 283 1178 283 1138 m 561 1178 q 590 1247 561 1218 q 658 1275 618 1275 q 727 1247 699 1275 q 756 1178 756 1218 q 727 1109 756 1138 q 658 1081 699 1081 q 590 1109 618 1081 q 561 1178 561 1138 z "},"Ẏ":{"ha":850,"x_min":133,"x_max":903,"o":"m 328 342 l 303 342 l 133 972 l 254 972 l 390 442 l 407 442 l 768 972 l 903 972 l 903 964 l 469 342 l 444 342 l 372 0 l 256 0 l 328 342 m 431 1172 q 459 1241 431 1213 q 528 1269 488 1269 q 597 1241 568 1269 q 625 1172 625 1213 q 597 1103 625 1132 q 528 1075 568 1075 q 459 1103 488 1075 q 431 1172 431 1132 z "},"Ỵ":{"ha":850,"x_min":133,"x_max":903,"o":"m 328 342 l 303 342 l 133 972 l 254 972 l 390 442 l 407 442 l 768 972 l 903 972 l 903 964 l 469 342 l 444 342 l 372 0 l 256 0 l 328 342 m 189 -185 q 217 -116 189 -144 q 286 -87 246 -87 q 355 -116 326 -87 q 383 -185 383 -144 q 355 -253 383 -225 q 286 -282 326 -282 q 217 -253 246 -282 q 189 -185 189 -225 z "},"Ỷ":{"ha":850,"x_min":133,"x_max":903,"o":"m 469 1042 l 469 1169 l 476 1178 l 576 1178 q 615 1157 589 1157 q 668 1214 668 1157 q 653 1254 668 1239 q 610 1269 638 1269 q 568 1254 585 1269 q 544 1214 551 1239 l 482 1239 q 530 1308 499 1281 q 618 1336 561 1336 q 708 1303 672 1336 q 743 1219 743 1269 q 710 1129 743 1167 q 626 1092 676 1092 q 576 1103 597 1092 q 546 1136 554 1115 l 538 1136 l 538 1042 l 469 1042 m 328 342 l 303 342 l 133 972 l 254 972 l 390 442 l 407 442 l 768 972 l 903 972 l 903 964 l 469 342 l 444 342 l 372 0 l 256 0 l 328 342 z "},"Ỹ":{"ha":850,"x_min":133,"x_max":903,"o":"m 328 342 l 303 342 l 133 972 l 254 972 l 390 442 l 407 442 l 768 972 l 903 972 l 903 964 l 469 342 l 444 342 l 372 0 l 256 0 l 328 342 m 590 1175 q 604 1154 597 1161 q 624 1147 611 1147 q 650 1161 638 1147 l 717 1238 l 785 1179 l 728 1111 q 682 1070 708 1088 q 619 1053 656 1053 q 553 1072 576 1053 q 507 1135 531 1092 q 491 1158 497 1151 q 474 1165 485 1165 q 443 1149 458 1165 l 379 1075 l 311 1133 l 368 1201 q 414 1242 388 1225 q 478 1260 440 1260 q 542 1240 518 1260 q 590 1175 565 1219 z "},"Ź":{"ha":850,"x_min":7,"x_max":822,"o":"m 186 972 l 822 972 l 822 797 l 107 125 l 107 108 l 693 108 l 693 0 l 7 0 l 7 175 l 722 847 l 722 864 l 186 864 l 186 972 m 693 1239 l 693 1231 l 550 1075 l 439 1075 l 565 1239 l 693 1239 z "},"Ž":{"ha":850,"x_min":7,"x_max":822,"o":"m 186 972 l 822 972 l 822 797 l 107 125 l 107 108 l 693 108 l 693 0 l 7 0 l 7 175 l 722 847 l 722 864 l 186 864 l 186 972 m 740 1239 l 740 1231 l 601 1075 l 429 1075 l 353 1239 l 465 1239 l 513 1117 l 529 1117 l 625 1239 l 740 1239 z "},"Ż":{"ha":850,"x_min":7,"x_max":822,"o":"m 186 972 l 822 972 l 822 797 l 107 125 l 107 108 l 693 108 l 693 0 l 7 0 l 7 175 l 722 847 l 722 864 l 186 864 l 186 972 m 421 1178 q 449 1247 421 1218 q 518 1275 478 1275 q 587 1247 558 1275 q 615 1178 615 1218 q 587 1109 615 1138 q 518 1081 558 1081 q 449 1109 478 1081 q 421 1178 421 1138 z "},"Ẓ":{"ha":850,"x_min":7,"x_max":822,"o":"m 186 972 l 822 972 l 822 797 l 107 125 l 107 108 l 693 108 l 693 0 l 7 0 l 7 175 l 722 847 l 722 864 l 186 864 l 186 972 m 254 -185 q 283 -116 254 -144 q 351 -87 311 -87 q 420 -116 392 -87 q 449 -185 449 -144 q 420 -253 449 -225 q 351 -282 392 -282 q 283 -253 311 -282 q 254 -185 254 -225 z "},"Þ":{"ha":850,"x_min":17,"x_max":767,"o":"m 178 208 l 133 0 l 17 0 l 224 972 l 340 972 l 300 781 l 500 781 q 612 763 563 781 q 695 715 661 746 q 748 642 729 685 q 767 549 767 599 q 742 414 767 476 q 669 306 717 351 q 553 234 621 260 q 400 208 485 208 l 178 208 m 201 317 l 410 317 q 505 331 461 317 q 580 373 549 346 q 629 440 611 400 q 647 528 647 479 q 605 637 647 601 q 483 672 563 672 l 276 672 l 201 317 z "},"Ə":{"ha":850,"x_min":39,"x_max":794,"o":"m 82 503 l 649 503 l 668 596 q 677 646 675 625 q 679 689 679 667 q 634 831 679 776 q 492 886 589 886 q 394 867 438 886 q 317 817 350 849 q 261 741 283 785 q 228 647 239 697 l 222 622 l 107 622 l 114 656 q 160 788 128 726 q 240 894 192 849 q 353 966 288 940 q 503 992 419 992 q 626 970 572 992 q 718 910 681 949 q 775 816 756 871 q 794 693 794 761 q 782 578 794 638 l 739 378 q 597 78 694 175 q 332 -19 499 -19 q 205 1 260 -19 q 113 60 150 22 q 58 148 76 97 q 39 258 39 199 q 41 301 39 279 q 49 347 43 324 l 82 503 m 350 86 q 526 165 458 86 q 624 386 593 243 l 625 394 l 175 394 l 163 333 q 157 297 158 313 q 156 264 156 281 q 166 194 156 226 q 199 138 176 163 q 259 100 222 114 q 350 86 296 86 z "},"Ŋ":{"ha":850,"x_min":14,"x_max":835,"o":"m 506 50 l 522 50 l 718 972 l 835 972 l 604 -111 q 535 -240 585 -201 q 403 -278 485 -278 l 178 -278 l 178 -169 l 400 -169 q 463 -153 442 -169 q 492 -94 483 -136 l 511 0 l 399 0 l 343 922 l 326 922 l 131 0 l 14 0 l 221 972 l 450 972 l 506 50 z "},"Ĳ":{"ha":850,"x_min":53,"x_max":875,"o":"m 207 972 l 324 972 l 218 475 l 101 475 l 207 972 m 875 864 l 783 864 l 660 286 q 617 158 644 214 q 548 62 590 101 q 447 1 506 22 q 311 -19 389 -19 q 121 44 189 -19 q 53 215 53 108 q 61 292 53 251 l 78 367 l 194 367 l 178 292 q 169 222 169 254 q 326 89 169 89 q 474 145 424 89 q 544 292 525 201 l 667 864 l 558 864 l 558 972 l 875 972 l 875 864 z "},"à":{"ha":850,"x_min":17,"x_max":754,"o":"m 482 108 q 380 8 439 35 q 256 -19 321 -19 q 156 1 200 -19 q 81 57 111 21 q 33 144 50 93 q 17 256 17 194 q 42 425 17 343 q 115 569 67 507 q 233 670 163 632 q 397 708 304 708 q 518 676 468 708 q 583 581 568 643 l 600 581 l 622 689 l 731 689 l 608 117 q 611 98 606 104 q 626 92 617 92 q 646 99 636 92 l 696 135 l 754 53 l 692 6 q 653 -12 676 -6 q 607 -19 631 -19 q 567 -14 586 -19 q 531 3 547 -8 q 506 34 515 15 q 496 81 496 53 q 497 94 496 88 q 499 108 497 101 l 482 108 m 289 83 q 394 109 344 83 q 480 179 443 135 q 538 284 517 224 q 558 415 558 344 q 519 553 558 501 q 399 606 481 606 q 284 578 333 606 q 200 503 235 550 q 148 396 165 457 q 131 269 131 335 q 171 131 131 178 q 289 83 211 83 m 415 956 l 472 792 l 381 792 l 299 956 l 415 956 z "},"á":{"ha":850,"x_min":17,"x_max":754,"o":"m 482 108 q 380 8 439 35 q 256 -19 321 -19 q 156 1 200 -19 q 81 57 111 21 q 33 144 50 93 q 17 256 17 194 q 42 425 17 343 q 115 569 67 507 q 233 670 163 632 q 397 708 304 708 q 518 676 468 708 q 583 581 568 643 l 600 581 l 622 689 l 731 689 l 608 117 q 611 98 606 104 q 626 92 617 92 q 646 99 636 92 l 696 135 l 754 53 l 692 6 q 653 -12 676 -6 q 607 -19 631 -19 q 567 -14 586 -19 q 531 3 547 -8 q 506 34 515 15 q 496 81 496 53 q 497 94 496 88 q 499 108 497 101 l 482 108 m 289 83 q 394 109 344 83 q 480 179 443 135 q 538 284 517 224 q 558 415 558 344 q 519 553 558 501 q 399 606 481 606 q 284 578 333 606 q 200 503 235 550 q 148 396 165 457 q 131 269 131 335 q 171 131 131 178 q 289 83 211 83 m 629 956 l 629 947 l 486 792 l 375 792 l 501 956 l 629 956 z "},"â":{"ha":850,"x_min":17,"x_max":754,"o":"m 482 108 q 380 8 439 35 q 256 -19 321 -19 q 156 1 200 -19 q 81 57 111 21 q 33 144 50 93 q 17 256 17 194 q 42 425 17 343 q 115 569 67 507 q 233 670 163 632 q 397 708 304 708 q 518 676 468 708 q 583 581 568 643 l 600 581 l 622 689 l 731 689 l 608 117 q 611 98 606 104 q 626 92 617 92 q 646 99 636 92 l 696 135 l 754 53 l 692 6 q 653 -12 676 -6 q 607 -19 631 -19 q 567 -14 586 -19 q 531 3 547 -8 q 506 34 515 15 q 496 81 496 53 q 497 94 496 88 q 499 108 497 101 l 482 108 m 289 83 q 394 109 344 83 q 480 179 443 135 q 538 284 517 224 q 558 415 558 344 q 519 553 558 501 q 399 606 481 606 q 284 578 333 606 q 200 503 235 550 q 148 396 165 457 q 131 269 131 335 q 171 131 131 178 q 289 83 211 83 m 243 792 l 243 800 l 382 956 l 554 956 l 631 792 l 526 792 l 472 914 l 456 914 l 361 792 l 243 792 z "},"ã":{"ha":850,"x_min":17,"x_max":754,"o":"m 482 108 q 380 8 439 35 q 256 -19 321 -19 q 156 1 200 -19 q 81 57 111 21 q 33 144 50 93 q 17 256 17 194 q 42 425 17 343 q 115 569 67 507 q 233 670 163 632 q 397 708 304 708 q 518 676 468 708 q 583 581 568 643 l 600 581 l 622 689 l 731 689 l 608 117 q 611 98 606 104 q 626 92 617 92 q 646 99 636 92 l 696 135 l 754 53 l 692 6 q 653 -12 676 -6 q 607 -19 631 -19 q 567 -14 586 -19 q 531 3 547 -8 q 506 34 515 15 q 496 81 496 53 q 497 94 496 88 q 499 108 497 101 l 482 108 m 289 83 q 394 109 344 83 q 480 179 443 135 q 538 284 517 224 q 558 415 558 344 q 519 553 558 501 q 399 606 481 606 q 284 578 333 606 q 200 503 235 550 q 148 396 165 457 q 131 269 131 335 q 171 131 131 178 q 289 83 211 83 m 515 888 q 529 867 522 874 q 549 860 536 860 q 575 874 563 860 l 642 950 l 710 892 l 653 824 q 607 783 633 800 q 544 765 581 765 q 478 785 501 765 q 432 847 456 804 q 416 871 422 864 q 399 878 410 878 q 368 861 383 878 l 304 788 l 236 846 l 293 914 q 339 955 313 938 q 403 972 365 972 q 467 952 443 972 q 515 888 490 932 z "},"ä":{"ha":850,"x_min":17,"x_max":754,"o":"m 482 108 q 380 8 439 35 q 256 -19 321 -19 q 156 1 200 -19 q 81 57 111 21 q 33 144 50 93 q 17 256 17 194 q 42 425 17 343 q 115 569 67 507 q 233 670 163 632 q 397 708 304 708 q 518 676 468 708 q 583 581 568 643 l 600 581 l 622 689 l 731 689 l 608 117 q 611 98 606 104 q 626 92 617 92 q 646 99 636 92 l 696 135 l 754 53 l 692 6 q 653 -12 676 -6 q 607 -19 631 -19 q 567 -14 586 -19 q 531 3 547 -8 q 506 34 515 15 q 496 81 496 53 q 497 94 496 88 q 499 108 497 101 l 482 108 m 289 83 q 394 109 344 83 q 480 179 443 135 q 538 284 517 224 q 558 415 558 344 q 519 553 558 501 q 399 606 481 606 q 284 578 333 606 q 200 503 235 550 q 148 396 165 457 q 131 269 131 335 q 171 131 131 178 q 289 83 211 83 m 189 894 q 217 963 189 935 q 286 992 246 992 q 355 963 326 992 q 383 894 383 935 q 355 826 383 854 q 286 797 326 797 q 217 826 246 797 q 189 894 189 854 m 467 894 q 495 963 467 935 q 564 992 524 992 q 633 963 604 992 q 661 894 661 935 q 633 826 661 854 q 564 797 604 797 q 495 826 524 797 q 467 894 467 854 z "},"ā":{"ha":850,"x_min":17,"x_max":754,"o":"m 482 108 q 380 8 439 35 q 256 -19 321 -19 q 156 1 200 -19 q 81 57 111 21 q 33 144 50 93 q 17 256 17 194 q 42 425 17 343 q 115 569 67 507 q 233 670 163 632 q 397 708 304 708 q 518 676 468 708 q 583 581 568 643 l 600 581 l 622 689 l 731 689 l 608 117 q 611 98 606 104 q 626 92 617 92 q 646 99 636 92 l 696 135 l 754 53 l 692 6 q 653 -12 676 -6 q 607 -19 631 -19 q 567 -14 586 -19 q 531 3 547 -8 q 506 34 515 15 q 496 81 496 53 q 497 94 496 88 q 499 108 497 101 l 482 108 m 289 83 q 394 109 344 83 q 480 179 443 135 q 538 284 517 224 q 558 415 558 344 q 519 553 558 501 q 399 606 481 606 q 284 578 333 606 q 200 503 235 550 q 148 396 165 457 q 131 269 131 335 q 171 131 131 178 q 289 83 211 83 m 621 792 l 229 792 l 229 883 l 621 883 l 621 792 z "},"ă":{"ha":850,"x_min":17,"x_max":754,"o":"m 482 108 q 380 8 439 35 q 256 -19 321 -19 q 156 1 200 -19 q 81 57 111 21 q 33 144 50 93 q 17 256 17 194 q 42 425 17 343 q 115 569 67 507 q 233 670 163 632 q 397 708 304 708 q 518 676 468 708 q 583 581 568 643 l 600 581 l 622 689 l 731 689 l 608 117 q 611 98 606 104 q 626 92 617 92 q 646 99 636 92 l 696 135 l 754 53 l 692 6 q 653 -12 676 -6 q 607 -19 631 -19 q 567 -14 586 -19 q 531 3 547 -8 q 506 34 515 15 q 496 81 496 53 q 497 94 496 88 q 499 108 497 101 l 482 108 m 289 83 q 394 109 344 83 q 480 179 443 135 q 538 284 517 224 q 558 415 558 344 q 519 553 558 501 q 399 606 481 606 q 284 578 333 606 q 200 503 235 550 q 148 396 165 457 q 131 269 131 335 q 171 131 131 178 q 289 83 211 83 m 617 956 l 613 936 q 555 828 597 865 q 438 792 513 792 q 333 833 368 792 q 310 936 297 875 l 314 956 l 408 956 l 404 940 q 410 898 397 914 q 451 882 424 882 q 496 899 482 882 q 515 939 510 917 l 519 956 l 617 956 z "},"å":{"ha":850,"x_min":17,"x_max":754,"o":"m 482 108 q 380 8 439 35 q 256 -19 321 -19 q 156 1 200 -19 q 81 57 111 21 q 33 144 50 93 q 17 256 17 194 q 42 425 17 343 q 115 569 67 507 q 233 670 163 632 q 397 708 304 708 q 518 676 468 708 q 583 581 568 643 l 600 581 l 622 689 l 731 689 l 608 117 q 611 98 606 104 q 626 92 617 92 q 646 99 636 92 l 696 135 l 754 53 l 692 6 q 653 -12 676 -6 q 607 -19 631 -19 q 567 -14 586 -19 q 531 3 547 -8 q 506 34 515 15 q 496 81 496 53 q 497 94 496 88 q 499 108 497 101 l 482 108 m 289 83 q 394 109 344 83 q 480 179 443 135 q 538 284 517 224 q 558 415 558 344 q 519 553 558 501 q 399 606 481 606 q 284 578 333 606 q 200 503 235 550 q 148 396 165 457 q 131 269 131 335 q 171 131 131 178 q 289 83 211 83 m 318 933 q 359 1034 318 993 q 460 1075 400 1075 q 560 1034 519 1075 q 601 933 601 993 q 560 833 601 874 q 460 792 519 792 q 359 833 400 792 q 318 933 318 874 m 401 933 q 418 892 401 908 q 460 875 435 875 q 501 892 485 875 q 518 933 518 908 q 501 975 518 958 q 460 992 485 992 q 418 975 435 992 q 401 933 401 958 z "},"ǎ":{"ha":850,"x_min":17,"x_max":754,"o":"m 482 108 q 380 8 439 35 q 256 -19 321 -19 q 156 1 200 -19 q 81 57 111 21 q 33 144 50 93 q 17 256 17 194 q 42 425 17 343 q 115 569 67 507 q 233 670 163 632 q 397 708 304 708 q 518 676 468 708 q 583 581 568 643 l 600 581 l 622 689 l 731 689 l 608 117 q 611 98 606 104 q 626 92 617 92 q 646 99 636 92 l 696 135 l 754 53 l 692 6 q 653 -12 676 -6 q 607 -19 631 -19 q 567 -14 586 -19 q 531 3 547 -8 q 506 34 515 15 q 496 81 496 53 q 497 94 496 88 q 499 108 497 101 l 482 108 m 289 83 q 394 109 344 83 q 480 179 443 135 q 538 284 517 224 q 558 415 558 344 q 519 553 558 501 q 399 606 481 606 q 284 578 333 606 q 200 503 235 550 q 148 396 165 457 q 131 269 131 335 q 171 131 131 178 q 289 83 211 83 m 644 956 l 644 947 l 506 792 l 333 792 l 257 956 l 369 956 l 417 833 l 433 833 l 529 956 l 644 956 z "},"ą":{"ha":850,"x_min":17,"x_max":754,"o":"m 482 108 q 380 8 439 35 q 256 -19 321 -19 q 156 1 200 -19 q 81 57 111 21 q 33 144 50 93 q 17 256 17 194 q 42 425 17 343 q 115 569 67 507 q 233 670 163 632 q 397 708 304 708 q 518 676 468 708 q 583 581 568 643 l 600 581 l 622 689 l 731 689 l 608 117 q 611 98 606 104 q 626 92 617 92 q 646 99 636 92 l 696 135 l 754 53 l 558 -93 q 543 -117 543 -104 q 565 -136 543 -136 l 686 -136 l 686 -228 l 542 -228 q 467 -198 496 -228 q 439 -128 439 -168 q 453 -76 439 -103 q 496 -29 467 -50 l 536 0 q 507 31 518 11 q 496 81 496 51 q 497 94 496 88 q 499 108 497 101 l 482 108 m 289 83 q 394 109 344 83 q 480 179 443 135 q 538 284 517 224 q 558 415 558 344 q 519 553 558 501 q 399 606 481 606 q 284 578 333 606 q 200 503 235 550 q 148 396 165 457 q 131 269 131 335 q 171 131 131 178 q 289 83 211 83 z "},"ạ":{"ha":850,"x_min":17,"x_max":754,"o":"m 482 108 q 380 8 439 35 q 256 -19 321 -19 q 156 1 200 -19 q 81 57 111 21 q 33 144 50 93 q 17 256 17 194 q 42 425 17 343 q 115 569 67 507 q 233 670 163 632 q 397 708 304 708 q 518 676 468 708 q 583 581 568 643 l 600 581 l 622 689 l 731 689 l 608 117 q 611 98 606 104 q 626 92 617 92 q 646 99 636 92 l 696 135 l 754 53 l 692 6 q 653 -12 676 -6 q 607 -19 631 -19 q 567 -14 586 -19 q 531 3 547 -8 q 506 34 515 15 q 496 81 496 53 q 497 94 496 88 q 499 108 497 101 l 482 108 m 289 83 q 394 109 344 83 q 480 179 443 135 q 538 284 517 224 q 558 415 558 344 q 519 553 558 501 q 399 606 481 606 q 284 578 333 606 q 200 503 235 550 q 148 396 165 457 q 131 269 131 335 q 171 131 131 178 q 289 83 211 83 m 160 -185 q 188 -116 160 -144 q 257 -87 217 -87 q 326 -116 297 -87 q 354 -185 354 -144 q 326 -253 354 -225 q 257 -282 297 -282 q 188 -253 217 -282 q 160 -185 160 -225 z "},"ả":{"ha":850,"x_min":17,"x_max":754,"o":"m 364 758 l 364 886 l 371 894 l 471 894 q 510 874 483 874 q 563 931 563 874 q 547 971 563 956 q 504 986 532 986 q 463 971 479 986 q 439 931 446 956 l 376 956 q 424 1025 393 997 q 513 1053 456 1053 q 602 1019 567 1053 q 638 936 638 986 q 604 846 638 883 q 521 808 571 808 q 470 820 492 808 q 440 853 449 832 l 432 853 l 432 758 l 364 758 m 482 108 q 380 8 439 35 q 256 -19 321 -19 q 156 1 200 -19 q 81 57 111 21 q 33 144 50 93 q 17 256 17 194 q 42 425 17 343 q 115 569 67 507 q 233 670 163 632 q 397 708 304 708 q 518 676 468 708 q 583 581 568 643 l 600 581 l 622 689 l 731 689 l 608 117 q 611 98 606 104 q 626 92 617 92 q 646 99 636 92 l 696 135 l 754 53 l 692 6 q 653 -12 676 -6 q 607 -19 631 -19 q 567 -14 586 -19 q 531 3 547 -8 q 506 34 515 15 q 496 81 496 53 q 497 94 496 88 q 499 108 497 101 l 482 108 m 289 83 q 394 109 344 83 q 480 179 443 135 q 538 284 517 224 q 558 415 558 344 q 519 553 558 501 q 399 606 481 606 q 284 578 333 606 q 200 503 235 550 q 148 396 165 457 q 131 269 131 335 q 171 131 131 178 q 289 83 211 83 z "},"ấ":{"ha":850,"x_min":17,"x_max":857,"o":"m 482 108 q 380 8 439 35 q 256 -19 321 -19 q 156 1 200 -19 q 81 57 111 21 q 33 144 50 93 q 17 256 17 194 q 42 425 17 343 q 115 569 67 507 q 233 670 163 632 q 397 708 304 708 q 518 676 468 708 q 583 581 568 643 l 600 581 l 622 689 l 731 689 l 608 117 q 611 98 606 104 q 626 92 617 92 q 646 99 636 92 l 696 135 l 754 53 l 692 6 q 653 -12 676 -6 q 607 -19 631 -19 q 567 -14 586 -19 q 531 3 547 -8 q 506 34 515 15 q 496 81 496 53 q 497 94 496 88 q 499 108 497 101 l 482 108 m 289 83 q 394 109 344 83 q 480 179 443 135 q 538 284 517 224 q 558 415 558 344 q 519 553 558 501 q 399 606 481 606 q 284 578 333 606 q 200 503 235 550 q 148 396 165 457 q 131 269 131 335 q 171 131 131 178 q 289 83 211 83 m 857 1078 l 857 1069 l 714 914 l 603 914 l 729 1078 l 857 1078 m 224 792 l 224 800 l 363 956 l 535 956 l 611 792 l 507 792 l 453 914 l 436 914 l 342 792 l 224 792 z "},"ầ":{"ha":850,"x_min":17,"x_max":754,"o":"m 482 108 q 380 8 439 35 q 256 -19 321 -19 q 156 1 200 -19 q 81 57 111 21 q 33 144 50 93 q 17 256 17 194 q 42 425 17 343 q 115 569 67 507 q 233 670 163 632 q 397 708 304 708 q 518 676 468 708 q 583 581 568 643 l 600 581 l 622 689 l 731 689 l 608 117 q 611 98 606 104 q 626 92 617 92 q 646 99 636 92 l 696 135 l 754 53 l 692 6 q 653 -12 676 -6 q 607 -19 631 -19 q 567 -14 586 -19 q 531 3 547 -8 q 506 34 515 15 q 496 81 496 53 q 497 94 496 88 q 499 108 497 101 l 482 108 m 289 83 q 394 109 344 83 q 480 179 443 135 q 538 284 517 224 q 558 415 558 344 q 519 553 558 501 q 399 606 481 606 q 284 578 333 606 q 200 503 235 550 q 148 396 165 457 q 131 269 131 335 q 171 131 131 178 q 289 83 211 83 m 218 1078 l 275 914 l 183 914 l 101 1078 l 218 1078 m 224 792 l 224 800 l 363 956 l 535 956 l 611 792 l 507 792 l 453 914 l 436 914 l 342 792 l 224 792 z "},"ẩ":{"ha":850,"x_min":17,"x_max":876,"o":"m 603 914 l 603 1042 l 610 1050 l 710 1050 q 749 1029 722 1029 q 801 1086 801 1029 q 786 1126 801 1111 q 743 1142 771 1142 q 701 1126 718 1142 q 678 1086 685 1111 l 615 1111 q 663 1181 632 1153 q 751 1208 694 1208 q 841 1175 806 1208 q 876 1092 876 1142 q 843 1001 876 1039 q 760 964 810 964 q 709 976 731 964 q 679 1008 688 988 l 671 1008 l 671 914 l 603 914 m 482 108 q 380 8 439 35 q 256 -19 321 -19 q 156 1 200 -19 q 81 57 111 21 q 33 144 50 93 q 17 256 17 194 q 42 425 17 343 q 115 569 67 507 q 233 670 163 632 q 397 708 304 708 q 518 676 468 708 q 583 581 568 643 l 600 581 l 622 689 l 731 689 l 608 117 q 611 98 606 104 q 626 92 617 92 q 646 99 636 92 l 696 135 l 754 53 l 692 6 q 653 -12 676 -6 q 607 -19 631 -19 q 567 -14 586 -19 q 531 3 547 -8 q 506 34 515 15 q 496 81 496 53 q 497 94 496 88 q 499 108 497 101 l 482 108 m 289 83 q 394 109 344 83 q 480 179 443 135 q 538 284 517 224 q 558 415 558 344 q 519 553 558 501 q 399 606 481 606 q 284 578 333 606 q 200 503 235 550 q 148 396 165 457 q 131 269 131 335 q 171 131 131 178 q 289 83 211 83 m 222 792 l 222 800 l 361 956 l 533 956 l 610 792 l 506 792 l 451 914 l 435 914 l 340 792 l 222 792 z "},"ẫ":{"ha":850,"x_min":17,"x_max":754,"o":"m 526 1119 q 540 1099 533 1106 q 560 1092 547 1092 q 586 1106 574 1092 l 653 1182 l 721 1124 l 664 1056 q 618 1015 644 1032 q 556 997 592 997 q 490 1017 513 997 q 443 1079 467 1036 q 427 1103 433 1096 q 410 1110 421 1110 q 379 1093 394 1110 l 315 1019 l 247 1078 l 304 1146 q 350 1187 324 1169 q 414 1204 376 1204 q 478 1184 454 1204 q 526 1119 501 1164 m 482 108 q 380 8 439 35 q 256 -19 321 -19 q 156 1 200 -19 q 81 57 111 21 q 33 144 50 93 q 17 256 17 194 q 42 425 17 343 q 115 569 67 507 q 233 670 163 632 q 397 708 304 708 q 518 676 468 708 q 583 581 568 643 l 600 581 l 622 689 l 731 689 l 608 117 q 611 98 606 104 q 626 92 617 92 q 646 99 636 92 l 696 135 l 754 53 l 692 6 q 653 -12 676 -6 q 607 -19 631 -19 q 567 -14 586 -19 q 531 3 547 -8 q 506 34 515 15 q 496 81 496 53 q 497 94 496 88 q 499 108 497 101 l 482 108 m 289 83 q 394 109 344 83 q 480 179 443 135 q 538 284 517 224 q 558 415 558 344 q 519 553 558 501 q 399 606 481 606 q 284 578 333 606 q 200 503 235 550 q 148 396 165 457 q 131 269 131 335 q 171 131 131 178 q 289 83 211 83 m 224 792 l 224 800 l 363 956 l 535 956 l 611 792 l 507 792 l 453 914 l 436 914 l 342 792 l 224 792 z "},"ậ":{"ha":850,"x_min":17,"x_max":754,"o":"m 482 108 q 380 8 439 35 q 256 -19 321 -19 q 156 1 200 -19 q 81 57 111 21 q 33 144 50 93 q 17 256 17 194 q 42 425 17 343 q 115 569 67 507 q 233 670 163 632 q 397 708 304 708 q 518 676 468 708 q 583 581 568 643 l 600 581 l 622 689 l 731 689 l 608 117 q 611 98 606 104 q 626 92 617 92 q 646 99 636 92 l 696 135 l 754 53 l 692 6 q 653 -12 676 -6 q 607 -19 631 -19 q 567 -14 586 -19 q 531 3 547 -8 q 506 34 515 15 q 496 81 496 53 q 497 94 496 88 q 499 108 497 101 l 482 108 m 289 83 q 394 109 344 83 q 480 179 443 135 q 538 284 517 224 q 558 415 558 344 q 519 553 558 501 q 399 606 481 606 q 284 578 333 606 q 200 503 235 550 q 148 396 165 457 q 131 269 131 335 q 171 131 131 178 q 289 83 211 83 m 224 792 l 224 800 l 363 956 l 535 956 l 611 792 l 507 792 l 453 914 l 436 914 l 342 792 l 224 792 m 160 -185 q 188 -116 160 -144 q 257 -87 217 -87 q 326 -116 297 -87 q 354 -185 354 -144 q 326 -253 354 -225 q 257 -282 297 -282 q 188 -253 217 -282 q 160 -185 160 -225 z "},"ắ":{"ha":850,"x_min":17,"x_max":754,"o":"m 482 108 q 380 8 439 35 q 256 -19 321 -19 q 156 1 200 -19 q 81 57 111 21 q 33 144 50 93 q 17 256 17 194 q 42 425 17 343 q 115 569 67 507 q 233 670 163 632 q 397 708 304 708 q 518 676 468 708 q 583 581 568 643 l 600 581 l 622 689 l 731 689 l 608 117 q 611 98 606 104 q 626 92 617 92 q 646 99 636 92 l 696 135 l 754 53 l 692 6 q 653 -12 676 -6 q 607 -19 631 -19 q 567 -14 586 -19 q 531 3 547 -8 q 506 34 515 15 q 496 81 496 53 q 497 94 496 88 q 499 108 497 101 l 482 108 m 289 83 q 394 109 344 83 q 480 179 443 135 q 538 284 517 224 q 558 415 558 344 q 519 553 558 501 q 399 606 481 606 q 284 578 333 606 q 200 503 235 550 q 148 396 165 457 q 131 269 131 335 q 171 131 131 178 q 289 83 211 83 m 617 956 l 613 936 q 555 828 597 865 q 438 792 513 792 q 333 833 368 792 q 310 936 297 875 l 314 956 l 408 956 l 404 940 q 410 898 397 914 q 451 882 424 882 q 496 899 482 882 q 515 939 510 917 l 519 956 l 617 956 m 672 1161 l 672 1153 l 529 997 l 418 997 l 544 1161 l 672 1161 z "},"ằ":{"ha":850,"x_min":17,"x_max":754,"o":"m 458 1161 l 515 997 l 424 997 l 342 1161 l 458 1161 m 617 956 l 613 936 q 555 828 597 865 q 438 792 513 792 q 333 833 368 792 q 310 936 297 875 l 314 956 l 408 956 l 404 940 q 410 898 397 914 q 451 882 424 882 q 496 899 482 882 q 515 939 510 917 l 519 956 l 617 956 m 482 108 q 380 8 439 35 q 256 -19 321 -19 q 156 1 200 -19 q 81 57 111 21 q 33 144 50 93 q 17 256 17 194 q 42 425 17 343 q 115 569 67 507 q 233 670 163 632 q 397 708 304 708 q 518 676 468 708 q 583 581 568 643 l 600 581 l 622 689 l 731 689 l 608 117 q 611 98 606 104 q 626 92 617 92 q 646 99 636 92 l 696 135 l 754 53 l 692 6 q 653 -12 676 -6 q 607 -19 631 -19 q 567 -14 586 -19 q 531 3 547 -8 q 506 34 515 15 q 496 81 496 53 q 497 94 496 88 q 499 108 497 101 l 482 108 m 289 83 q 394 109 344 83 q 480 179 443 135 q 538 284 517 224 q 558 415 558 344 q 519 553 558 501 q 399 606 481 606 q 284 578 333 606 q 200 503 235 550 q 148 396 165 457 q 131 269 131 335 q 171 131 131 178 q 289 83 211 83 z "},"ẳ":{"ha":850,"x_min":17,"x_max":754,"o":"m 433 997 l 433 1125 l 440 1133 l 540 1133 q 576 1114 550 1114 q 617 1131 601 1114 q 632 1172 632 1149 q 619 1210 632 1196 q 582 1225 606 1225 q 535 1208 551 1225 q 508 1169 518 1190 l 447 1194 q 500 1264 465 1236 q 589 1292 535 1292 q 675 1258 642 1292 q 708 1175 708 1225 q 699 1126 708 1149 q 672 1085 689 1103 q 631 1058 654 1068 q 582 1047 608 1047 q 510 1092 528 1047 l 501 1092 l 501 997 l 433 997 m 615 956 l 611 936 q 553 828 596 865 q 436 792 511 792 q 331 833 367 792 q 308 936 296 875 l 313 956 l 407 956 l 403 940 q 409 898 396 914 q 450 882 422 882 q 494 899 481 882 q 514 939 508 917 l 518 956 l 615 956 m 482 108 q 380 8 439 35 q 256 -19 321 -19 q 156 1 200 -19 q 81 57 111 21 q 33 144 50 93 q 17 256 17 194 q 42 425 17 343 q 115 569 67 507 q 233 670 163 632 q 397 708 304 708 q 518 676 468 708 q 583 581 568 643 l 600 581 l 622 689 l 731 689 l 608 117 q 611 98 606 104 q 626 92 617 92 q 646 99 636 92 l 696 135 l 754 53 l 692 6 q 653 -12 676 -6 q 607 -19 631 -19 q 567 -14 586 -19 q 531 3 547 -8 q 506 34 515 15 q 496 81 496 53 q 497 94 496 88 q 499 108 497 101 l 482 108 m 289 83 q 394 109 344 83 q 480 179 443 135 q 538 284 517 224 q 558 415 558 344 q 519 553 558 501 q 399 606 481 606 q 284 578 333 606 q 200 503 235 550 q 148 396 165 457 q 131 269 131 335 q 171 131 131 178 q 289 83 211 83 z "},"ẵ":{"ha":850,"x_min":17,"x_max":754,"o":"m 482 108 q 380 8 439 35 q 256 -19 321 -19 q 156 1 200 -19 q 81 57 111 21 q 33 144 50 93 q 17 256 17 194 q 42 425 17 343 q 115 569 67 507 q 233 670 163 632 q 397 708 304 708 q 518 676 468 708 q 583 581 568 643 l 600 581 l 622 689 l 731 689 l 608 117 q 611 98 606 104 q 626 92 617 92 q 646 99 636 92 l 696 135 l 754 53 l 692 6 q 653 -12 676 -6 q 607 -19 631 -19 q 567 -14 586 -19 q 531 3 547 -8 q 506 34 515 15 q 496 81 496 53 q 497 94 496 88 q 499 108 497 101 l 482 108 m 289 83 q 394 109 344 83 q 480 179 443 135 q 538 284 517 224 q 558 415 558 344 q 519 553 558 501 q 399 606 481 606 q 284 578 333 606 q 200 503 235 550 q 148 396 165 457 q 131 269 131 335 q 171 131 131 178 q 289 83 211 83 m 526 1119 q 540 1099 533 1106 q 560 1092 547 1092 q 586 1106 574 1092 l 653 1182 l 721 1124 l 664 1056 q 618 1015 644 1032 q 556 997 592 997 q 490 1017 513 997 q 443 1079 467 1036 q 427 1103 433 1096 q 410 1110 421 1110 q 379 1093 394 1110 l 315 1019 l 247 1078 l 304 1146 q 350 1187 324 1169 q 414 1204 376 1204 q 478 1184 454 1204 q 526 1119 501 1164 m 617 956 l 613 936 q 555 828 597 865 q 438 792 513 792 q 333 833 368 792 q 310 936 297 875 l 314 956 l 408 956 l 404 940 q 410 898 397 914 q 451 882 424 882 q 496 899 482 882 q 515 939 510 917 l 519 956 l 617 956 z "},"ặ":{"ha":850,"x_min":17,"x_max":754,"o":"m 482 108 q 380 8 439 35 q 256 -19 321 -19 q 156 1 200 -19 q 81 57 111 21 q 33 144 50 93 q 17 256 17 194 q 42 425 17 343 q 115 569 67 507 q 233 670 163 632 q 397 708 304 708 q 518 676 468 708 q 583 581 568 643 l 600 581 l 622 689 l 731 689 l 608 117 q 611 98 606 104 q 626 92 617 92 q 646 99 636 92 l 696 135 l 754 53 l 692 6 q 653 -12 676 -6 q 607 -19 631 -19 q 567 -14 586 -19 q 531 3 547 -8 q 506 34 515 15 q 496 81 496 53 q 497 94 496 88 q 499 108 497 101 l 482 108 m 289 83 q 394 109 344 83 q 480 179 443 135 q 538 284 517 224 q 558 415 558 344 q 519 553 558 501 q 399 606 481 606 q 284 578 333 606 q 200 503 235 550 q 148 396 165 457 q 131 269 131 335 q 171 131 131 178 q 289 83 211 83 m 617 956 l 613 936 q 555 828 597 865 q 438 792 513 792 q 333 833 368 792 q 310 936 297 875 l 314 956 l 408 956 l 404 940 q 410 898 397 914 q 451 882 424 882 q 496 899 482 882 q 515 939 510 917 l 519 956 l 617 956 m 163 -185 q 191 -116 163 -144 q 260 -87 219 -87 q 328 -116 300 -87 q 357 -185 357 -144 q 328 -253 357 -225 q 260 -282 300 -282 q 191 -253 219 -282 q 163 -185 163 -225 z "},"æ":{"ha":850,"x_min":22,"x_max":728,"o":"m 443 708 q 565 686 513 708 q 654 627 618 664 q 709 542 690 590 q 728 444 728 494 q 721 386 728 418 l 704 311 l 428 311 l 381 86 q 502 134 453 94 q 575 225 551 174 l 672 197 q 537 41 628 101 q 310 -19 446 -19 l 249 -19 q 158 -7 200 -19 q 86 29 117 6 q 39 88 56 53 q 22 169 22 124 q 43 268 22 224 q 102 344 64 313 q 194 394 140 376 q 315 411 249 411 l 342 411 l 383 607 q 275 563 321 600 q 206 458 229 525 l 114 497 q 157 576 131 538 q 224 643 183 614 q 318 690 264 672 q 443 708 372 708 m 304 311 q 242 303 272 311 q 188 279 211 296 q 149 237 164 263 q 135 175 135 211 q 165 105 135 129 q 254 81 196 81 l 271 81 l 319 311 l 304 311 m 618 411 q 620 426 619 418 q 621 444 621 435 q 585 548 621 507 q 490 600 550 589 l 450 411 l 618 411 z "},"ƀ":{"ha":850,"x_min":50,"x_max":792,"o":"m 367 992 l 343 881 l 581 881 l 581 781 l 321 781 l 279 581 l 296 581 q 396 673 335 638 q 539 708 457 708 q 640 690 593 708 q 719 635 686 671 q 772 551 753 600 q 792 442 792 501 q 761 250 792 335 q 678 105 731 165 q 553 13 625 44 q 400 -19 482 -19 q 276 12 335 -19 q 196 106 218 43 l 179 106 l 157 0 l 50 0 l 215 781 l 142 781 l 142 881 l 236 881 l 260 992 l 367 992 m 397 83 q 506 108 454 83 q 595 176 557 132 q 656 283 633 221 q 678 421 678 346 q 633 556 678 506 q 504 606 588 606 q 392 579 443 606 q 303 507 340 553 q 244 401 265 461 q 224 275 224 342 q 269 133 224 183 q 397 83 315 83 z "},"ç":{"ha":850,"x_min":36,"x_max":750,"o":"m 708 236 q 660 139 692 185 q 583 59 629 93 q 478 4 538 25 q 343 -19 418 -17 l 317 -94 l 325 -94 q 400 -50 349 -50 q 470 -81 446 -50 q 494 -153 494 -111 q 459 -255 494 -215 q 350 -294 424 -294 q 260 -267 293 -294 q 219 -197 226 -240 l 289 -174 q 306 -212 292 -196 q 353 -228 321 -228 q 402 -210 385 -228 q 419 -164 419 -193 q 406 -128 419 -139 q 375 -117 393 -117 q 351 -122 360 -117 q 338 -136 343 -128 l 233 -136 l 233 -119 l 269 -15 q 99 74 161 0 q 36 267 36 149 q 67 438 36 357 q 156 578 99 518 q 293 674 213 639 q 472 708 374 708 q 588 690 536 708 q 675 640 639 672 q 731 562 711 607 q 750 463 750 517 q 750 456 750 460 q 749 442 750 453 l 638 425 q 639 438 639 433 q 639 447 639 442 q 628 509 639 481 q 595 559 618 538 q 537 593 572 581 q 453 606 501 606 q 333 579 388 606 q 237 508 278 553 q 173 403 196 463 q 150 278 150 343 q 203 131 150 179 q 347 83 256 83 q 446 99 403 83 q 521 141 489 115 q 574 200 553 167 q 606 269 594 233 l 708 236 z "},"ć":{"ha":850,"x_min":36,"x_max":750,"o":"m 708 236 q 658 137 690 183 q 578 56 626 90 q 467 1 531 21 q 325 -19 404 -19 q 206 1 260 -19 q 115 58 153 21 q 57 149 78 96 q 36 267 36 201 q 67 438 36 357 q 156 578 99 518 q 293 674 213 639 q 472 708 374 708 q 588 690 536 708 q 675 640 639 672 q 731 562 711 607 q 750 463 750 517 q 750 456 750 460 q 749 442 750 453 l 638 425 q 639 438 639 433 q 639 447 639 442 q 628 509 639 481 q 595 559 618 538 q 537 593 572 581 q 453 606 501 606 q 333 579 388 606 q 237 508 278 553 q 173 403 196 463 q 150 278 150 343 q 203 131 150 179 q 347 83 256 83 q 446 99 403 83 q 521 141 489 115 q 574 200 553 167 q 606 269 594 233 l 708 236 m 676 956 l 676 947 l 533 792 l 422 792 l 549 956 l 676 956 z "},"ĉ":{"ha":850,"x_min":36,"x_max":750,"o":"m 708 236 q 658 137 690 183 q 578 56 626 90 q 467 1 531 21 q 325 -19 404 -19 q 206 1 260 -19 q 115 58 153 21 q 57 149 78 96 q 36 267 36 201 q 67 438 36 357 q 156 578 99 518 q 293 674 213 639 q 472 708 374 708 q 588 690 536 708 q 675 640 639 672 q 731 562 711 607 q 750 463 750 517 q 750 456 750 460 q 749 442 750 453 l 638 425 q 639 438 639 433 q 639 447 639 442 q 628 509 639 481 q 595 559 618 538 q 537 593 572 581 q 453 606 501 606 q 333 579 388 606 q 237 508 278 553 q 173 403 196 463 q 150 278 150 343 q 203 131 150 179 q 347 83 256 83 q 446 99 403 83 q 521 141 489 115 q 574 200 553 167 q 606 269 594 233 l 708 236 m 300 792 l 300 800 l 439 956 l 611 956 l 688 792 l 583 792 l 529 914 l 513 914 l 418 792 l 300 792 z "},"č":{"ha":850,"x_min":36,"x_max":750,"o":"m 708 236 q 658 137 690 183 q 578 56 626 90 q 467 1 531 21 q 325 -19 404 -19 q 206 1 260 -19 q 115 58 153 21 q 57 149 78 96 q 36 267 36 201 q 67 438 36 357 q 156 578 99 518 q 293 674 213 639 q 472 708 374 708 q 588 690 536 708 q 675 640 639 672 q 731 562 711 607 q 750 463 750 517 q 750 456 750 460 q 749 442 750 453 l 638 425 q 639 438 639 433 q 639 447 639 442 q 628 509 639 481 q 595 559 618 538 q 537 593 572 581 q 453 606 501 606 q 333 579 388 606 q 237 508 278 553 q 173 403 196 463 q 150 278 150 343 q 203 131 150 179 q 347 83 256 83 q 446 99 403 83 q 521 141 489 115 q 574 200 553 167 q 606 269 594 233 l 708 236 m 717 956 l 717 947 l 578 792 l 406 792 l 329 956 l 442 956 l 489 833 l 506 833 l 601 956 l 717 956 z "},"ċ":{"ha":850,"x_min":36,"x_max":750,"o":"m 708 236 q 658 137 690 183 q 578 56 626 90 q 467 1 531 21 q 325 -19 404 -19 q 206 1 260 -19 q 115 58 153 21 q 57 149 78 96 q 36 267 36 201 q 67 438 36 357 q 156 578 99 518 q 293 674 213 639 q 472 708 374 708 q 588 690 536 708 q 675 640 639 672 q 731 562 711 607 q 750 463 750 517 q 750 456 750 460 q 749 442 750 453 l 638 425 q 639 438 639 433 q 639 447 639 442 q 628 509 639 481 q 595 559 618 538 q 537 593 572 581 q 453 606 501 606 q 333 579 388 606 q 237 508 278 553 q 173 403 196 463 q 150 278 150 343 q 203 131 150 179 q 347 83 256 83 q 446 99 403 83 q 521 141 489 115 q 574 200 553 167 q 606 269 594 233 l 708 236 m 376 894 q 405 963 376 935 q 474 992 433 992 q 542 963 514 992 q 571 894 571 935 q 542 826 571 854 q 474 797 514 797 q 405 826 433 797 q 376 894 376 854 z "},"ð":{"ha":850,"x_min":28,"x_max":757,"o":"m 443 858 q 313 888 385 879 l 333 992 q 417 976 378 986 q 492 953 456 967 l 518 1003 l 604 960 l 578 908 q 712 755 667 850 q 757 522 757 660 q 732 326 757 422 q 653 152 707 229 q 515 28 599 75 q 315 -19 432 -19 q 202 0 254 -19 q 111 57 150 19 q 50 149 72 94 q 28 276 28 204 q 58 441 28 363 q 142 578 88 519 q 272 673 196 638 q 438 708 347 708 q 563 678 517 708 q 626 606 608 647 l 643 606 q 608 728 638 676 q 529 814 578 781 l 501 760 l 414 803 l 443 858 m 329 83 q 447 112 393 83 q 542 185 501 140 q 605 288 582 231 q 628 401 628 344 q 576 552 628 499 q 440 606 524 606 q 321 578 375 606 q 226 504 267 550 q 164 399 186 458 q 142 278 142 340 q 192 135 142 186 q 329 83 242 83 z "},"ď":{"ha":850,"x_min":-11,"x_max":911,"o":"m 504 117 q 522 92 500 92 q 540 99 531 92 l 590 135 l 650 53 l 588 6 q 549 -12 572 -6 q 503 -19 526 -19 q 426 3 461 -19 q 392 81 392 26 l 392 89 l 375 89 q 305 10 353 40 q 199 -19 257 -19 q 47 42 106 -19 q -11 239 -11 104 q 10 397 -11 314 q 74 549 31 481 q 183 663 117 618 q 340 708 250 708 q 438 681 403 708 q 485 614 474 654 l 501 614 l 581 992 l 689 992 l 504 117 m 231 83 q 335 120 292 83 q 406 211 378 157 q 446 326 433 265 q 458 435 458 386 q 335 606 458 606 q 228 570 272 606 q 155 481 183 535 q 114 366 126 428 q 101 251 101 304 q 135 126 101 168 q 231 83 168 83 m 717 875 q 745 944 717 915 q 814 972 774 972 q 883 944 854 972 q 911 875 911 915 q 910 858 911 865 l 885 739 q 842 658 874 686 q 756 631 810 631 l 683 631 l 683 706 l 765 706 q 813 747 804 706 l 819 778 l 814 778 q 745 806 774 778 q 717 875 717 835 z "},"ḍ":{"ha":850,"x_min":6,"x_max":800,"o":"m 488 108 q 382 8 443 35 q 253 -19 321 -19 q 151 0 197 -19 q 74 55 106 19 q 24 141 42 90 q 6 253 6 192 q 32 421 6 339 q 108 567 58 503 q 231 669 158 631 q 399 708 304 708 q 522 678 472 708 q 589 581 571 647 l 606 581 l 692 992 l 800 992 l 614 117 q 632 92 610 92 q 650 99 640 92 l 700 135 l 760 53 l 697 6 q 660 -12 682 -6 q 613 -19 639 -19 q 572 -14 592 -19 q 537 3 553 -8 q 511 34 521 15 q 501 81 501 53 q 502 94 501 88 q 504 108 503 101 l 488 108 m 286 83 q 392 109 342 83 q 481 179 443 135 q 542 284 519 224 q 564 415 564 344 q 521 553 564 501 q 396 606 478 606 q 280 577 331 606 q 193 502 229 549 q 138 394 157 456 q 119 268 119 333 q 286 83 119 83 m 157 -185 q 185 -116 157 -144 q 254 -87 214 -87 q 323 -116 294 -87 q 351 -185 351 -144 q 323 -253 351 -225 q 254 -282 294 -282 q 185 -253 214 -282 q 157 -185 157 -225 z "},"ḏ":{"ha":850,"x_min":6,"x_max":800,"o":"m 488 108 q 382 8 443 35 q 253 -19 321 -19 q 151 0 197 -19 q 74 55 106 19 q 24 141 42 90 q 6 253 6 192 q 32 421 6 339 q 108 567 58 503 q 231 669 158 631 q 399 708 304 708 q 522 678 472 708 q 589 581 571 647 l 606 581 l 692 992 l 800 992 l 614 117 q 632 92 610 92 q 650 99 640 92 l 700 135 l 760 53 l 697 6 q 660 -12 682 -6 q 613 -19 639 -19 q 572 -14 592 -19 q 537 3 553 -8 q 511 34 521 15 q 501 81 501 53 q 502 94 501 88 q 504 108 503 101 l 488 108 m 286 83 q 392 109 342 83 q 481 179 443 135 q 542 284 519 224 q 564 415 564 344 q 521 553 564 501 q 396 606 478 606 q 280 577 331 606 q 193 502 229 549 q 138 394 157 456 q 119 268 119 333 q 286 83 119 83 m 450 -179 l 58 -179 l 58 -87 l 450 -87 l 450 -179 z "},"đ":{"ha":850,"x_min":6,"x_max":860,"o":"m 424 881 l 668 881 l 692 992 l 800 992 l 776 881 l 860 881 l 860 781 l 754 781 l 614 117 q 632 92 610 92 q 650 99 640 92 l 700 135 l 760 53 l 697 6 q 660 -12 682 -6 q 613 -19 639 -19 q 572 -14 592 -19 q 537 3 553 -8 q 511 34 521 15 q 501 81 501 53 q 502 94 501 88 q 504 108 503 101 l 488 108 q 382 8 443 35 q 253 -19 321 -19 q 151 0 197 -19 q 74 55 106 19 q 24 141 42 90 q 6 253 6 192 q 32 421 6 339 q 108 567 58 503 q 231 669 158 631 q 399 708 304 708 q 522 678 472 708 q 589 581 571 647 l 606 581 l 647 781 l 424 781 l 424 881 m 286 83 q 392 109 342 83 q 481 179 443 135 q 542 284 519 224 q 564 415 564 344 q 521 553 564 501 q 396 606 478 606 q 280 577 331 606 q 193 502 229 549 q 138 394 157 456 q 119 268 119 333 q 286 83 119 83 z "},"è":{"ha":850,"x_min":44,"x_max":732,"o":"m 156 311 q 151 286 153 300 q 150 257 150 272 q 194 131 150 181 q 336 82 239 82 q 423 93 385 82 q 489 124 461 104 q 537 170 517 144 q 571 225 557 196 l 660 175 q 611 99 640 135 q 542 38 582 64 q 449 -4 501 11 q 328 -19 396 -19 q 213 -1 265 -19 q 124 53 161 18 q 65 140 86 89 q 44 257 44 192 q 72 426 44 344 q 153 569 100 507 q 283 670 206 632 q 460 708 361 708 q 581 687 529 708 q 665 628 632 665 q 715 545 699 592 q 732 449 732 499 q 724 376 732 411 l 708 311 l 156 311 m 446 606 q 355 591 397 606 q 278 550 313 576 q 218 488 243 524 q 179 411 193 453 l 621 411 q 625 453 625 433 q 574 567 625 528 q 446 606 522 606 m 461 956 l 518 792 l 426 792 l 344 956 l 461 956 z "},"é":{"ha":850,"x_min":44,"x_max":732,"o":"m 156 311 q 151 286 153 300 q 150 257 150 272 q 194 131 150 181 q 336 82 239 82 q 423 93 385 82 q 489 124 461 104 q 537 170 517 144 q 571 225 557 196 l 660 175 q 611 99 640 135 q 542 38 582 64 q 449 -4 501 11 q 328 -19 396 -19 q 213 -1 265 -19 q 124 53 161 18 q 65 140 86 89 q 44 257 44 192 q 72 426 44 344 q 153 569 100 507 q 283 670 206 632 q 460 708 361 708 q 581 687 529 708 q 665 628 632 665 q 715 545 699 592 q 732 449 732 499 q 724 376 732 411 l 708 311 l 156 311 m 446 606 q 355 591 397 606 q 278 550 313 576 q 218 488 243 524 q 179 411 193 453 l 621 411 q 625 453 625 433 q 574 567 625 528 q 446 606 522 606 m 675 956 l 675 947 l 532 792 l 421 792 l 547 956 l 675 956 z "},"ê":{"ha":850,"x_min":44,"x_max":732,"o":"m 156 311 q 151 286 153 300 q 150 257 150 272 q 194 131 150 181 q 336 82 239 82 q 423 93 385 82 q 489 124 461 104 q 537 170 517 144 q 571 225 557 196 l 660 175 q 611 99 640 135 q 542 38 582 64 q 449 -4 501 11 q 328 -19 396 -19 q 213 -1 265 -19 q 124 53 161 18 q 65 140 86 89 q 44 257 44 192 q 72 426 44 344 q 153 569 100 507 q 283 670 206 632 q 460 708 361 708 q 581 687 529 708 q 665 628 632 665 q 715 545 699 592 q 732 449 732 499 q 724 376 732 411 l 708 311 l 156 311 m 446 606 q 355 591 397 606 q 278 550 313 576 q 218 488 243 524 q 179 411 193 453 l 621 411 q 625 453 625 433 q 574 567 625 528 q 446 606 522 606 m 296 792 l 296 800 l 435 956 l 607 956 l 683 792 l 579 792 l 525 914 l 508 914 l 414 792 l 296 792 z "},"ě":{"ha":850,"x_min":44,"x_max":732,"o":"m 156 311 q 151 286 153 300 q 150 257 150 272 q 194 131 150 181 q 336 82 239 82 q 423 93 385 82 q 489 124 461 104 q 537 170 517 144 q 571 225 557 196 l 660 175 q 611 99 640 135 q 542 38 582 64 q 449 -4 501 11 q 328 -19 396 -19 q 213 -1 265 -19 q 124 53 161 18 q 65 140 86 89 q 44 257 44 192 q 72 426 44 344 q 153 569 100 507 q 283 670 206 632 q 460 708 361 708 q 581 687 529 708 q 665 628 632 665 q 715 545 699 592 q 732 449 732 499 q 724 376 732 411 l 708 311 l 156 311 m 446 606 q 355 591 397 606 q 278 550 313 576 q 218 488 243 524 q 179 411 193 453 l 621 411 q 625 453 625 433 q 574 567 625 528 q 446 606 522 606 m 708 956 l 708 947 l 569 792 l 397 792 l 321 956 l 433 956 l 481 833 l 497 833 l 593 956 l 708 956 z "},"ë":{"ha":850,"x_min":44,"x_max":732,"o":"m 156 311 q 151 286 153 300 q 150 257 150 272 q 194 131 150 181 q 336 82 239 82 q 423 93 385 82 q 489 124 461 104 q 537 170 517 144 q 571 225 557 196 l 660 175 q 611 99 640 135 q 542 38 582 64 q 449 -4 501 11 q 328 -19 396 -19 q 213 -1 265 -19 q 124 53 161 18 q 65 140 86 89 q 44 257 44 192 q 72 426 44 344 q 153 569 100 507 q 283 670 206 632 q 460 708 361 708 q 581 687 529 708 q 665 628 632 665 q 715 545 699 592 q 732 449 732 499 q 724 376 732 411 l 708 311 l 156 311 m 446 606 q 355 591 397 606 q 278 550 313 576 q 218 488 243 524 q 179 411 193 453 l 621 411 q 625 453 625 433 q 574 567 625 528 q 446 606 522 606 m 224 894 q 252 963 224 935 q 321 992 281 992 q 390 963 361 992 q 418 894 418 935 q 390 826 418 854 q 321 797 361 797 q 252 826 281 797 q 224 894 224 854 m 501 894 q 530 963 501 935 q 599 992 558 992 q 667 963 639 992 q 696 894 696 935 q 667 826 696 854 q 599 797 639 797 q 530 826 558 797 q 501 894 501 854 z "},"ē":{"ha":850,"x_min":44,"x_max":732,"o":"m 156 311 q 151 286 153 300 q 150 257 150 272 q 194 131 150 181 q 336 82 239 82 q 423 93 385 82 q 489 124 461 104 q 537 170 517 144 q 571 225 557 196 l 660 175 q 611 99 640 135 q 542 38 582 64 q 449 -4 501 11 q 328 -19 396 -19 q 213 -1 265 -19 q 124 53 161 18 q 65 140 86 89 q 44 257 44 192 q 72 426 44 344 q 153 569 100 507 q 283 670 206 632 q 460 708 361 708 q 581 687 529 708 q 665 628 632 665 q 715 545 699 592 q 732 449 732 499 q 724 376 732 411 l 708 311 l 156 311 m 446 606 q 355 591 397 606 q 278 550 313 576 q 218 488 243 524 q 179 411 193 453 l 621 411 q 625 453 625 433 q 574 567 625 528 q 446 606 522 606 m 664 792 l 272 792 l 272 883 l 664 883 l 664 792 z "},"ĕ":{"ha":850,"x_min":44,"x_max":732,"o":"m 156 311 q 151 286 153 300 q 150 257 150 272 q 194 131 150 181 q 336 82 239 82 q 423 93 385 82 q 489 124 461 104 q 537 170 517 144 q 571 225 557 196 l 660 175 q 611 99 640 135 q 542 38 582 64 q 449 -4 501 11 q 328 -19 396 -19 q 213 -1 265 -19 q 124 53 161 18 q 65 140 86 89 q 44 257 44 192 q 72 426 44 344 q 153 569 100 507 q 283 670 206 632 q 460 708 361 708 q 581 687 529 708 q 665 628 632 665 q 715 545 699 592 q 732 449 732 499 q 724 376 732 411 l 708 311 l 156 311 m 446 606 q 355 591 397 606 q 278 550 313 576 q 218 488 243 524 q 179 411 193 453 l 621 411 q 625 453 625 433 q 574 567 625 528 q 446 606 522 606 m 678 956 l 674 936 q 616 828 658 865 q 499 792 574 792 q 394 833 429 792 q 371 936 358 875 l 375 956 l 469 956 l 465 940 q 472 898 458 914 q 513 882 485 882 q 557 899 543 882 q 576 939 571 917 l 581 956 l 678 956 z "},"ę":{"ha":850,"x_min":44,"x_max":732,"o":"m 156 311 q 151 286 153 300 q 150 257 150 272 q 194 131 150 181 q 336 82 239 82 q 423 93 385 82 q 489 124 461 104 q 537 170 517 144 q 571 225 557 196 l 660 175 q 635 131 647 150 q 609 96 624 113 q 576 63 594 79 q 531 31 557 47 l 343 -93 q 330 -122 324 -107 q 351 -136 336 -136 l 472 -136 l 472 -228 l 324 -228 q 265 -208 288 -228 q 235 -158 242 -187 q 241 -96 228 -129 q 292 -35 254 -62 l 313 -19 q 206 1 256 -18 q 121 56 157 21 q 65 142 85 92 q 44 257 44 193 q 72 426 44 344 q 153 569 100 507 q 283 670 206 632 q 460 708 361 708 q 581 687 529 708 q 665 628 632 665 q 715 545 699 592 q 732 449 732 499 q 724 376 732 411 l 708 311 l 156 311 m 446 606 q 355 591 397 606 q 278 550 313 576 q 218 488 243 524 q 179 411 193 453 l 621 411 q 625 453 625 433 q 574 567 625 528 q 446 606 522 606 z "},"ė":{"ha":850,"x_min":44,"x_max":732,"o":"m 156 311 q 151 286 153 300 q 150 257 150 272 q 194 131 150 181 q 336 82 239 82 q 423 93 385 82 q 489 124 461 104 q 537 170 517 144 q 571 225 557 196 l 660 175 q 611 99 640 135 q 542 38 582 64 q 449 -4 501 11 q 328 -19 396 -19 q 213 -1 265 -19 q 124 53 161 18 q 65 140 86 89 q 44 257 44 192 q 72 426 44 344 q 153 569 100 507 q 283 670 206 632 q 460 708 361 708 q 581 687 529 708 q 665 628 632 665 q 715 545 699 592 q 732 449 732 499 q 724 376 732 411 l 708 311 l 156 311 m 446 606 q 355 591 397 606 q 278 550 313 576 q 218 488 243 524 q 179 411 193 453 l 621 411 q 625 453 625 433 q 574 567 625 528 q 446 606 522 606 m 407 894 q 435 963 407 935 q 504 992 464 992 q 573 963 544 992 q 601 894 601 935 q 573 826 601 854 q 504 797 544 797 q 435 826 464 797 q 407 894 407 854 z "},"ẹ":{"ha":850,"x_min":44,"x_max":732,"o":"m 156 311 q 151 286 153 300 q 150 257 150 272 q 194 131 150 181 q 336 82 239 82 q 423 93 385 82 q 489 124 461 104 q 537 170 517 144 q 571 225 557 196 l 660 175 q 611 99 640 135 q 542 38 582 64 q 449 -4 501 11 q 328 -19 396 -19 q 213 -1 265 -19 q 124 53 161 18 q 65 140 86 89 q 44 257 44 192 q 72 426 44 344 q 153 569 100 507 q 283 670 206 632 q 460 708 361 708 q 581 687 529 708 q 665 628 632 665 q 715 545 699 592 q 732 449 732 499 q 724 376 732 411 l 708 311 l 156 311 m 446 606 q 355 591 397 606 q 278 550 313 576 q 218 488 243 524 q 179 411 193 453 l 621 411 q 625 453 625 433 q 574 567 625 528 q 446 606 522 606 m 185 -185 q 213 -116 185 -144 q 282 -87 242 -87 q 351 -116 322 -87 q 379 -185 379 -144 q 351 -253 379 -225 q 282 -282 322 -282 q 213 -253 242 -282 q 185 -185 185 -225 z "},"ẻ":{"ha":850,"x_min":44,"x_max":732,"o":"m 428 758 l 428 886 l 435 894 l 535 894 q 574 874 547 874 q 626 931 626 874 q 611 971 626 956 q 568 986 596 986 q 526 971 543 986 q 503 931 510 956 l 440 956 q 488 1025 457 997 q 576 1053 519 1053 q 666 1019 631 1053 q 701 936 701 986 q 668 846 701 883 q 585 808 635 808 q 534 820 556 808 q 504 853 513 832 l 496 853 l 496 758 l 428 758 m 156 311 q 151 286 153 300 q 150 257 150 272 q 194 131 150 181 q 336 82 239 82 q 423 93 385 82 q 489 124 461 104 q 537 170 517 144 q 571 225 557 196 l 660 175 q 611 99 640 135 q 542 38 582 64 q 449 -4 501 11 q 328 -19 396 -19 q 213 -1 265 -19 q 124 53 161 18 q 65 140 86 89 q 44 257 44 192 q 72 426 44 344 q 153 569 100 507 q 283 670 206 632 q 460 708 361 708 q 581 687 529 708 q 665 628 632 665 q 715 545 699 592 q 732 449 732 499 q 724 376 732 411 l 708 311 l 156 311 m 446 606 q 355 591 397 606 q 278 550 313 576 q 218 488 243 524 q 179 411 193 453 l 621 411 q 625 453 625 433 q 574 567 625 528 q 446 606 522 606 z "},"ẽ":{"ha":850,"x_min":44,"x_max":760,"o":"m 156 311 q 151 286 153 300 q 150 257 150 272 q 194 131 150 181 q 336 82 239 82 q 423 93 385 82 q 489 124 461 104 q 537 170 517 144 q 571 225 557 196 l 660 175 q 611 99 640 135 q 542 38 582 64 q 449 -4 501 11 q 328 -19 396 -19 q 213 -1 265 -19 q 124 53 161 18 q 65 140 86 89 q 44 257 44 192 q 72 426 44 344 q 153 569 100 507 q 283 670 206 632 q 460 708 361 708 q 581 687 529 708 q 665 628 632 665 q 715 545 699 592 q 732 449 732 499 q 724 376 732 411 l 708 311 l 156 311 m 446 606 q 355 591 397 606 q 278 550 313 576 q 218 488 243 524 q 179 411 193 453 l 621 411 q 625 453 625 433 q 574 567 625 528 q 446 606 522 606 m 565 888 q 579 867 572 874 q 599 860 586 860 q 625 874 613 860 l 692 950 l 760 892 l 703 824 q 657 783 683 800 q 594 765 631 765 q 528 785 551 765 q 482 847 506 804 q 466 871 472 864 q 449 878 460 878 q 418 861 433 878 l 354 788 l 286 846 l 343 914 q 389 955 363 938 q 453 972 415 972 q 517 952 493 972 q 565 888 540 932 z "},"ế":{"ha":850,"x_min":44,"x_max":925,"o":"m 156 311 q 151 286 153 300 q 150 257 150 272 q 194 131 150 181 q 336 82 239 82 q 423 93 385 82 q 489 124 461 104 q 537 170 517 144 q 571 225 557 196 l 660 175 q 611 99 640 135 q 542 38 582 64 q 449 -4 501 11 q 328 -19 396 -19 q 213 -1 265 -19 q 124 53 161 18 q 65 140 86 89 q 44 257 44 192 q 72 426 44 344 q 153 569 100 507 q 283 670 206 632 q 460 708 361 708 q 581 687 529 708 q 665 628 632 665 q 715 545 699 592 q 732 449 732 499 q 724 376 732 411 l 708 311 l 156 311 m 446 606 q 355 591 397 606 q 278 550 313 576 q 218 488 243 524 q 179 411 193 453 l 621 411 q 625 453 625 433 q 574 567 625 528 q 446 606 522 606 m 296 792 l 296 800 l 435 956 l 607 956 l 683 792 l 579 792 l 525 914 l 508 914 l 414 792 l 296 792 m 925 1078 l 925 1069 l 782 914 l 671 914 l 797 1078 l 925 1078 z "},"ề":{"ha":850,"x_min":44,"x_max":732,"o":"m 156 311 q 151 286 153 300 q 150 257 150 272 q 194 131 150 181 q 336 82 239 82 q 423 93 385 82 q 489 124 461 104 q 537 170 517 144 q 571 225 557 196 l 660 175 q 611 99 640 135 q 542 38 582 64 q 449 -4 501 11 q 328 -19 396 -19 q 213 -1 265 -19 q 124 53 161 18 q 65 140 86 89 q 44 257 44 192 q 72 426 44 344 q 153 569 100 507 q 283 670 206 632 q 460 708 361 708 q 581 687 529 708 q 665 628 632 665 q 715 545 699 592 q 732 449 732 499 q 724 376 732 411 l 708 311 l 156 311 m 446 606 q 355 591 397 606 q 278 550 313 576 q 218 488 243 524 q 179 411 193 453 l 621 411 q 625 453 625 433 q 574 567 625 528 q 446 606 522 606 m 296 792 l 296 800 l 435 956 l 607 956 l 683 792 l 579 792 l 525 914 l 508 914 l 414 792 l 296 792 m 271 1078 l 328 914 l 236 914 l 154 1078 l 271 1078 z "},"ể":{"ha":850,"x_min":44,"x_max":957,"o":"m 682 914 l 682 1042 l 689 1050 l 789 1050 q 825 1031 799 1031 q 865 1048 850 1031 q 881 1089 881 1065 q 867 1127 881 1113 q 831 1142 854 1142 q 783 1124 800 1142 q 757 1086 767 1107 l 696 1111 q 749 1181 714 1153 q 838 1208 783 1208 q 924 1175 890 1208 q 957 1092 957 1142 q 947 1042 957 1065 q 920 1002 938 1019 q 880 974 903 985 q 831 964 857 964 q 758 1008 776 964 l 750 1008 l 750 914 l 682 914 m 156 311 q 151 286 153 300 q 150 257 150 272 q 194 131 150 181 q 336 82 239 82 q 423 93 385 82 q 489 124 461 104 q 537 170 517 144 q 571 225 557 196 l 660 175 q 611 99 640 135 q 542 38 582 64 q 449 -4 501 11 q 328 -19 396 -19 q 213 -1 265 -19 q 124 53 161 18 q 65 140 86 89 q 44 257 44 192 q 72 426 44 344 q 153 569 100 507 q 283 670 206 632 q 460 708 361 708 q 581 687 529 708 q 665 628 632 665 q 715 545 699 592 q 732 449 732 499 q 724 376 732 411 l 708 311 l 156 311 m 446 606 q 355 591 397 606 q 278 550 313 576 q 218 488 243 524 q 179 411 193 453 l 621 411 q 625 453 625 433 q 574 567 625 528 q 446 606 522 606 m 296 792 l 296 800 l 435 956 l 607 956 l 683 792 l 579 792 l 525 914 l 508 914 l 414 792 l 296 792 z "},"ễ":{"ha":850,"x_min":44,"x_max":779,"o":"m 156 311 q 151 286 153 300 q 150 257 150 272 q 194 131 150 181 q 336 82 239 82 q 423 93 385 82 q 489 124 461 104 q 537 170 517 144 q 571 225 557 196 l 660 175 q 611 99 640 135 q 542 38 582 64 q 449 -4 501 11 q 328 -19 396 -19 q 213 -1 265 -19 q 124 53 161 18 q 65 140 86 89 q 44 257 44 192 q 72 426 44 344 q 153 569 100 507 q 283 670 206 632 q 460 708 361 708 q 581 687 529 708 q 665 628 632 665 q 715 545 699 592 q 732 449 732 499 q 724 376 732 411 l 708 311 l 156 311 m 446 606 q 355 591 397 606 q 278 550 313 576 q 218 488 243 524 q 179 411 193 453 l 621 411 q 625 453 625 433 q 574 567 625 528 q 446 606 522 606 m 296 792 l 296 800 l 435 956 l 607 956 l 683 792 l 579 792 l 525 914 l 508 914 l 414 792 l 296 792 m 585 1119 q 599 1099 592 1106 q 618 1092 606 1092 q 644 1106 632 1092 l 711 1182 l 779 1124 l 722 1056 q 676 1015 703 1032 q 614 997 650 997 q 548 1017 571 997 q 501 1079 525 1036 q 485 1103 492 1096 q 468 1110 479 1110 q 438 1093 453 1110 l 374 1019 l 306 1078 l 363 1146 q 408 1187 382 1169 q 472 1204 435 1204 q 536 1184 513 1204 q 585 1119 560 1164 z "},"ệ":{"ha":850,"x_min":44,"x_max":732,"o":"m 156 311 q 151 286 153 300 q 150 257 150 272 q 194 131 150 181 q 336 82 239 82 q 423 93 385 82 q 489 124 461 104 q 537 170 517 144 q 571 225 557 196 l 660 175 q 611 99 640 135 q 542 38 582 64 q 449 -4 501 11 q 328 -19 396 -19 q 213 -1 265 -19 q 124 53 161 18 q 65 140 86 89 q 44 257 44 192 q 72 426 44 344 q 153 569 100 507 q 283 670 206 632 q 460 708 361 708 q 581 687 529 708 q 665 628 632 665 q 715 545 699 592 q 732 449 732 499 q 724 376 732 411 l 708 311 l 156 311 m 446 606 q 355 591 397 606 q 278 550 313 576 q 218 488 243 524 q 179 411 193 453 l 621 411 q 625 453 625 433 q 574 567 625 528 q 446 606 522 606 m 171 -185 q 199 -116 171 -144 q 268 -87 228 -87 q 337 -116 308 -87 q 365 -185 365 -144 q 337 -253 365 -225 q 268 -282 308 -282 q 199 -253 228 -282 q 171 -185 171 -225 m 296 792 l 296 800 l 435 956 l 607 956 l 683 792 l 579 792 l 525 914 l 508 914 l 414 792 l 296 792 z "},"ĝ":{"ha":850,"x_min":33,"x_max":782,"o":"m 549 97 l 532 97 q 431 10 492 39 q 299 -19 371 -19 q 190 1 239 -19 q 106 57 140 21 q 52 144 71 93 q 33 258 33 196 q 62 436 33 354 q 142 578 90 518 q 267 674 194 639 q 428 708 340 708 q 563 673 510 708 q 633 581 617 638 l 650 581 l 674 689 l 782 689 l 600 -169 q 553 -247 589 -217 q 469 -278 517 -278 l 50 -278 l 50 -178 l 451 -178 q 499 -136 490 -178 l 549 97 m 322 83 q 439 112 386 83 q 530 187 492 140 q 589 293 568 233 q 610 414 610 353 q 561 553 610 500 q 431 606 513 606 q 313 578 365 606 q 223 503 260 550 q 166 396 186 457 q 146 269 146 335 q 191 133 146 183 q 322 83 236 83 m 271 792 l 271 800 l 410 956 l 582 956 l 658 792 l 554 792 l 500 914 l 483 914 l 389 792 l 271 792 z "},"ğ":{"ha":850,"x_min":33,"x_max":782,"o":"m 549 97 l 532 97 q 431 10 492 39 q 299 -19 371 -19 q 190 1 239 -19 q 106 57 140 21 q 52 144 71 93 q 33 258 33 196 q 62 436 33 354 q 142 578 90 518 q 267 674 194 639 q 428 708 340 708 q 563 673 510 708 q 633 581 617 638 l 650 581 l 674 689 l 782 689 l 600 -169 q 553 -247 589 -217 q 469 -278 517 -278 l 50 -278 l 50 -178 l 451 -178 q 499 -136 490 -178 l 549 97 m 322 83 q 439 112 386 83 q 530 187 492 140 q 589 293 568 233 q 610 414 610 353 q 561 553 610 500 q 431 606 513 606 q 313 578 365 606 q 223 503 260 550 q 166 396 186 457 q 146 269 146 335 q 191 133 146 183 q 322 83 236 83 m 647 956 l 643 936 q 585 828 628 865 q 468 792 543 792 q 363 833 399 792 q 340 936 328 875 l 344 956 l 439 956 l 435 940 q 441 898 428 914 q 482 882 454 882 q 526 899 513 882 q 546 939 540 917 l 550 956 l 647 956 z "},"ġ":{"ha":850,"x_min":33,"x_max":782,"o":"m 549 97 l 532 97 q 431 10 492 39 q 299 -19 371 -19 q 190 1 239 -19 q 106 57 140 21 q 52 144 71 93 q 33 258 33 196 q 62 436 33 354 q 142 578 90 518 q 267 674 194 639 q 428 708 340 708 q 563 673 510 708 q 633 581 617 638 l 650 581 l 674 689 l 782 689 l 600 -169 q 553 -247 589 -217 q 469 -278 517 -278 l 50 -278 l 50 -178 l 451 -178 q 499 -136 490 -178 l 549 97 m 322 83 q 439 112 386 83 q 530 187 492 140 q 589 293 568 233 q 610 414 610 353 q 561 553 610 500 q 431 606 513 606 q 313 578 365 606 q 223 503 260 550 q 166 396 186 457 q 146 269 146 335 q 191 133 146 183 q 322 83 236 83 m 385 894 q 413 963 385 935 q 482 992 442 992 q 551 963 522 992 q 579 894 579 935 q 551 826 579 854 q 482 797 522 797 q 413 826 442 797 q 385 894 385 854 z "},"ģ":{"ha":850,"x_min":33,"x_max":782,"o":"m 549 97 l 532 97 q 431 10 492 39 q 299 -19 371 -19 q 190 1 239 -19 q 106 57 140 21 q 52 144 71 93 q 33 258 33 196 q 62 436 33 354 q 142 578 90 518 q 267 674 194 639 q 428 708 340 708 q 563 673 510 708 q 633 581 617 638 l 650 581 l 674 689 l 782 689 l 600 -169 q 553 -247 589 -217 q 469 -278 517 -278 l 50 -278 l 50 -178 l 451 -178 q 499 -136 490 -178 l 549 97 m 322 83 q 439 112 386 83 q 530 187 492 140 q 589 293 568 233 q 610 414 610 353 q 561 553 610 500 q 431 606 513 606 q 313 578 365 606 q 223 503 260 550 q 166 396 186 457 q 146 269 146 335 q 191 133 146 183 q 322 83 236 83 m 571 894 q 542 826 571 854 q 474 797 514 797 q 405 826 433 797 q 376 894 376 854 q 378 911 376 904 l 403 1031 q 446 1111 414 1083 q 532 1139 478 1139 l 604 1139 l 604 1064 l 522 1064 q 475 1022 483 1064 l 468 992 l 474 992 q 542 963 514 992 q 571 894 571 935 z "},"ḡ":{"ha":850,"x_min":33,"x_max":782,"o":"m 549 97 l 532 97 q 431 10 492 39 q 299 -19 371 -19 q 190 1 239 -19 q 106 57 140 21 q 52 144 71 93 q 33 258 33 196 q 62 436 33 354 q 142 578 90 518 q 267 674 194 639 q 428 708 340 708 q 563 673 510 708 q 633 581 617 638 l 650 581 l 674 689 l 782 689 l 600 -169 q 553 -247 589 -217 q 469 -278 517 -278 l 50 -278 l 50 -178 l 451 -178 q 499 -136 490 -178 l 549 97 m 322 83 q 439 112 386 83 q 530 187 492 140 q 589 293 568 233 q 610 414 610 353 q 561 553 610 500 q 431 606 513 606 q 313 578 365 606 q 223 503 260 550 q 166 396 186 457 q 146 269 146 335 q 191 133 146 183 q 322 83 236 83 m 688 792 l 296 792 l 296 883 l 688 883 l 688 792 z "},"ǧ":{"ha":850,"x_min":33,"x_max":782,"o":"m 703 956 l 703 947 l 564 792 l 392 792 l 315 956 l 428 956 l 475 833 l 492 833 l 588 956 l 703 956 m 549 97 l 532 97 q 431 10 492 39 q 299 -19 371 -19 q 190 1 239 -19 q 106 57 140 21 q 52 144 71 93 q 33 258 33 196 q 62 436 33 354 q 142 578 90 518 q 267 674 194 639 q 428 708 340 708 q 563 673 510 708 q 633 581 617 638 l 650 581 l 674 689 l 782 689 l 600 -169 q 553 -247 589 -217 q 469 -278 517 -278 l 50 -278 l 50 -178 l 451 -178 q 499 -136 490 -178 l 549 97 m 322 83 q 439 112 386 83 q 530 187 492 140 q 589 293 568 233 q 610 414 610 353 q 561 553 610 500 q 431 606 513 606 q 313 578 365 606 q 223 503 260 550 q 166 396 186 457 q 146 269 146 335 q 191 133 146 183 q 322 83 236 83 z "},"ĥ":{"ha":850,"x_min":31,"x_max":783,"o":"m 594 408 q 601 442 599 428 q 603 472 603 457 q 560 575 603 544 q 456 606 518 606 q 299 538 361 606 q 214 358 238 471 l 138 0 l 31 0 l 242 992 l 346 992 l 263 586 l 279 586 q 369 680 314 651 q 494 708 425 708 q 647 651 586 708 q 707 489 707 593 q 697 400 707 444 l 636 110 q 654 89 632 89 q 671 96 663 89 l 725 135 l 783 53 l 719 7 q 635 -19 682 -19 q 559 6 592 -19 q 526 83 526 31 q 531 119 526 99 l 594 408 m 261 1075 l 261 1083 l 400 1239 l 572 1239 l 649 1075 l 544 1075 l 490 1197 l 474 1197 l 379 1075 l 261 1075 z "},"ḥ":{"ha":850,"x_min":31,"x_max":783,"o":"m 594 408 q 601 442 599 428 q 603 472 603 457 q 560 575 603 544 q 456 606 518 606 q 299 538 361 606 q 214 358 238 471 l 138 0 l 31 0 l 242 992 l 346 992 l 263 586 l 279 586 q 369 680 314 651 q 494 708 425 708 q 647 651 586 708 q 707 489 707 593 q 697 400 707 444 l 636 110 q 654 89 632 89 q 671 96 663 89 l 725 135 l 783 53 l 719 7 q 635 -19 682 -19 q 559 6 592 -19 q 526 83 526 31 q 531 119 526 99 l 594 408 m 221 -185 q 249 -116 221 -144 q 318 -87 278 -87 q 387 -116 358 -87 q 415 -185 415 -144 q 387 -253 415 -225 q 318 -282 358 -282 q 249 -253 278 -282 q 221 -185 221 -225 z "},"ḫ":{"ha":850,"x_min":31,"x_max":783,"o":"m 594 408 q 601 442 599 428 q 603 472 603 457 q 560 575 603 544 q 456 606 518 606 q 299 538 361 606 q 214 358 238 471 l 138 0 l 31 0 l 242 992 l 346 992 l 263 586 l 279 586 q 369 680 314 651 q 494 708 425 708 q 647 651 586 708 q 707 489 707 593 q 697 400 707 444 l 636 110 q 654 89 632 89 q 671 96 663 89 l 725 135 l 783 53 l 719 7 q 635 -19 682 -19 q 559 6 592 -19 q 526 83 526 31 q 531 119 526 99 l 594 408 m 479 -87 l 475 -107 q 417 -215 460 -178 q 300 -251 375 -251 q 195 -210 231 -251 q 172 -107 160 -168 l 176 -87 l 271 -87 l 267 -103 q 273 -145 260 -129 q 314 -161 286 -161 q 358 -144 344 -161 q 378 -104 372 -126 l 382 -87 l 479 -87 z "},"ħ":{"ha":850,"x_min":31,"x_max":783,"o":"m 124 881 l 218 881 l 238 972 l 342 972 l 322 881 l 563 881 l 563 781 l 301 781 l 263 586 l 279 586 q 369 680 314 651 q 494 708 425 708 q 647 651 586 708 q 707 489 707 593 q 697 400 707 444 l 636 110 q 654 89 632 89 q 671 96 663 89 l 725 135 l 783 53 l 719 7 q 635 -19 682 -19 q 559 6 592 -19 q 526 83 526 31 q 531 119 526 99 l 594 408 q 601 442 599 428 q 603 472 603 457 q 560 575 603 544 q 456 606 518 606 q 299 538 361 606 q 214 358 238 471 l 138 0 l 31 0 l 196 781 l 124 781 l 124 881 z "},"ì":{"ha":850,"x_min":135,"x_max":660,"o":"m 399 568 q 395 592 401 582 q 374 603 389 603 q 353 597 363 603 l 190 486 l 135 568 l 299 679 q 392 708 342 708 q 474 681 439 708 q 508 594 508 653 q 503 550 508 572 l 400 121 q 403 94 396 104 q 424 85 411 85 q 444 92 433 85 l 604 200 l 660 118 l 500 10 q 407 -19 456 -19 q 325 8 360 -19 q 290 94 290 36 q 296 139 290 117 l 399 568 m 444 956 l 501 792 l 410 792 l 328 956 l 444 956 z "},"í":{"ha":850,"x_min":135,"x_max":660,"o":"m 399 568 q 395 592 401 582 q 374 603 389 603 q 353 597 363 603 l 190 486 l 135 568 l 299 679 q 392 708 342 708 q 474 681 439 708 q 508 594 508 653 q 503 550 508 572 l 400 121 q 403 94 396 104 q 424 85 411 85 q 444 92 433 85 l 604 200 l 660 118 l 500 10 q 407 -19 456 -19 q 325 8 360 -19 q 290 94 290 36 q 296 139 290 117 l 399 568 m 649 956 l 649 947 l 506 792 l 394 792 l 521 956 l 649 956 z "},"î":{"ha":850,"x_min":135,"x_max":660,"o":"m 399 568 q 395 592 401 582 q 374 603 389 603 q 353 597 363 603 l 190 486 l 135 568 l 299 679 q 392 708 342 708 q 474 681 439 708 q 508 594 508 653 q 503 550 508 572 l 400 121 q 403 94 396 104 q 424 85 411 85 q 444 92 433 85 l 604 200 l 660 118 l 500 10 q 407 -19 456 -19 q 325 8 360 -19 q 290 94 290 36 q 296 139 290 117 l 399 568 m 249 792 l 249 800 l 388 956 l 560 956 l 636 792 l 532 792 l 478 914 l 461 914 l 367 792 l 249 792 z "},"ĩ":{"ha":850,"x_min":135,"x_max":706,"o":"m 399 568 q 395 592 401 582 q 374 603 389 603 q 353 597 363 603 l 190 486 l 135 568 l 299 679 q 392 708 342 708 q 474 681 439 708 q 508 594 508 653 q 503 550 508 572 l 400 121 q 403 94 396 104 q 424 85 411 85 q 444 92 433 85 l 604 200 l 660 118 l 500 10 q 407 -19 456 -19 q 325 8 360 -19 q 290 94 290 36 q 296 139 290 117 l 399 568 m 511 888 q 525 867 518 874 q 544 860 532 860 q 571 874 558 860 l 638 950 l 706 892 l 649 824 q 603 783 629 800 q 540 765 576 765 q 474 785 497 765 q 428 847 451 804 q 412 871 418 864 q 394 878 406 878 q 364 861 379 878 l 300 788 l 232 846 l 289 914 q 335 955 308 938 q 399 972 361 972 q 463 952 439 972 q 511 888 486 932 z "},"ï":{"ha":850,"x_min":135,"x_max":692,"o":"m 399 568 q 395 592 401 582 q 374 603 389 603 q 353 597 363 603 l 190 486 l 135 568 l 299 679 q 392 708 342 708 q 474 681 439 708 q 508 594 508 653 q 503 550 508 572 l 400 121 q 403 94 396 104 q 424 85 411 85 q 444 92 433 85 l 604 200 l 660 118 l 500 10 q 407 -19 456 -19 q 325 8 360 -19 q 290 94 290 36 q 296 139 290 117 l 399 568 m 219 894 q 248 963 219 935 q 317 992 276 992 q 385 963 357 992 q 414 894 414 935 q 385 826 414 854 q 317 797 357 797 q 248 826 276 797 q 219 894 219 854 m 497 894 q 526 963 497 935 q 594 992 554 992 q 663 963 635 992 q 692 894 692 935 q 663 826 692 854 q 594 797 635 797 q 526 826 554 797 q 497 894 497 854 z "},"ī":{"ha":850,"x_min":135,"x_max":660,"o":"m 399 568 q 395 592 401 582 q 374 603 389 603 q 353 597 363 603 l 190 486 l 135 568 l 299 679 q 392 708 342 708 q 474 681 439 708 q 508 594 508 653 q 503 550 508 572 l 400 121 q 403 94 396 104 q 424 85 411 85 q 444 92 433 85 l 604 200 l 660 118 l 500 10 q 407 -19 456 -19 q 325 8 360 -19 q 290 94 290 36 q 296 139 290 117 l 399 568 m 621 792 l 229 792 l 229 883 l 621 883 l 621 792 z "},"ǐ":{"ha":850,"x_min":135,"x_max":699,"o":"m 399 568 q 395 592 401 582 q 374 603 389 603 q 353 597 363 603 l 190 486 l 135 568 l 299 679 q 392 708 342 708 q 474 681 439 708 q 508 594 508 653 q 503 550 508 572 l 400 121 q 403 94 396 104 q 424 85 411 85 q 444 92 433 85 l 604 200 l 660 118 l 500 10 q 407 -19 456 -19 q 325 8 360 -19 q 290 94 290 36 q 296 139 290 117 l 399 568 m 699 956 l 699 947 l 560 792 l 388 792 l 311 956 l 424 956 l 471 833 l 488 833 l 583 956 l 699 956 z "},"į":{"ha":850,"x_min":135,"x_max":660,"o":"m 399 568 q 395 592 401 582 q 374 603 389 603 q 353 597 363 603 l 190 486 l 135 568 l 299 679 q 392 708 342 708 q 474 681 439 708 q 508 594 508 653 q 503 550 508 572 l 400 121 q 403 94 396 104 q 424 85 411 85 q 444 92 433 85 l 604 200 l 660 118 l 349 -93 q 335 -115 335 -103 q 340 -130 335 -124 q 357 -136 346 -136 l 478 -136 l 478 -228 l 329 -228 q 263 -201 288 -228 q 238 -137 238 -174 q 251 -85 238 -111 q 297 -35 265 -58 l 342 -1 q 304 35 318 11 q 290 94 290 60 q 296 139 290 117 l 399 568 m 421 894 q 449 963 421 935 q 518 992 478 992 q 587 963 558 992 q 615 894 615 935 q 587 826 615 854 q 518 797 558 797 q 449 826 478 797 q 421 894 421 854 z "},"ỉ":{"ha":850,"x_min":135,"x_max":706,"o":"m 431 758 l 431 886 l 438 894 l 538 894 q 574 875 547 875 q 614 892 599 875 q 629 933 629 910 q 616 972 629 957 q 579 986 603 986 q 532 969 549 986 q 506 931 515 951 l 444 956 q 497 1025 463 997 q 586 1053 532 1053 q 672 1019 639 1053 q 706 936 706 986 q 696 887 706 910 q 669 847 686 864 q 628 819 651 829 q 579 808 606 808 q 507 853 525 808 l 499 853 l 499 758 l 431 758 m 399 568 q 395 592 401 582 q 374 603 389 603 q 353 597 363 603 l 190 486 l 135 568 l 299 679 q 392 708 342 708 q 474 681 439 708 q 508 594 508 653 q 503 550 508 572 l 400 121 q 403 94 396 104 q 424 85 411 85 q 444 92 433 85 l 604 200 l 660 118 l 500 10 q 407 -19 456 -19 q 325 8 360 -19 q 290 94 290 36 q 296 139 290 117 l 399 568 z "},"ị":{"ha":850,"x_min":135,"x_max":660,"o":"m 421 894 q 449 963 421 935 q 518 992 478 992 q 587 963 558 992 q 615 894 615 935 q 587 826 615 854 q 518 797 558 797 q 449 826 478 797 q 421 894 421 854 m 399 568 q 395 592 401 582 q 374 603 389 603 q 353 597 363 603 l 190 486 l 135 568 l 299 679 q 392 708 342 708 q 474 681 439 708 q 508 594 508 653 q 503 550 508 572 l 400 121 q 403 94 396 104 q 424 85 411 85 q 444 92 433 85 l 604 200 l 660 118 l 500 10 q 407 -19 456 -19 q 325 8 360 -19 q 290 94 290 36 q 296 139 290 117 l 399 568 m 193 -185 q 222 -116 193 -144 q 290 -87 250 -87 q 359 -116 331 -87 q 388 -185 388 -144 q 359 -253 388 -225 q 290 -282 331 -282 q 222 -253 250 -282 q 193 -185 193 -225 z "},"ĭ":{"ha":850,"x_min":135,"x_max":660,"o":"m 399 568 q 395 592 401 582 q 374 603 389 603 q 353 597 363 603 l 190 486 l 135 568 l 299 679 q 392 708 342 708 q 474 681 439 708 q 508 594 508 653 q 503 550 508 572 l 400 121 q 403 94 396 104 q 424 85 411 85 q 444 92 433 85 l 604 200 l 660 118 l 500 10 q 407 -19 456 -19 q 325 8 360 -19 q 290 94 290 36 q 296 139 290 117 l 399 568 m 647 956 l 643 936 q 585 828 628 865 q 468 792 543 792 q 363 833 399 792 q 340 936 328 875 l 344 956 l 439 956 l 435 940 q 441 898 428 914 q 482 882 454 882 q 526 899 513 882 q 546 939 540 917 l 550 956 l 647 956 z "},"ı":{"ha":850,"x_min":135,"x_max":660,"o":"m 399 568 q 395 592 401 582 q 374 603 389 603 q 353 597 363 603 l 190 486 l 135 568 l 299 679 q 392 708 342 708 q 474 681 439 708 q 508 594 508 653 q 503 550 508 572 l 400 121 q 403 94 396 104 q 424 85 411 85 q 444 92 433 85 l 604 200 l 660 118 l 500 10 q 407 -19 456 -19 q 325 8 360 -19 q 290 94 290 36 q 296 139 290 117 l 399 568 z "},"ĵ":{"ha":850,"x_min":0,"x_max":722,"o":"m 439 -169 q 393 -247 429 -217 q 310 -278 357 -278 l 0 -278 l 0 -178 l 292 -178 q 338 -136 329 -178 l 489 572 q 485 595 492 588 q 468 603 478 603 q 451 597 460 603 l 289 486 l 233 568 l 397 679 q 485 708 440 708 q 564 677 531 708 q 597 593 597 646 q 593 557 597 578 l 439 -169 m 335 792 l 335 800 l 474 956 l 646 956 l 722 792 l 618 792 l 564 914 l 547 914 l 453 792 l 335 792 z "},"ķ":{"ha":850,"x_min":69,"x_max":725,"o":"m 388 990 l 264 403 l 281 403 l 625 706 l 692 635 l 385 365 l 385 340 l 564 96 q 582 86 572 86 q 600 93 590 86 l 667 142 l 725 60 l 663 13 q 622 -11 643 -3 q 578 -19 601 -19 q 524 -6 550 -19 q 475 40 499 8 l 283 303 l 242 303 l 178 0 l 69 0 l 279 990 l 388 990 m 261 -157 q 290 -88 261 -117 q 358 -60 318 -60 q 427 -88 399 -60 q 456 -157 456 -117 q 454 -174 456 -167 l 429 -293 q 386 -374 418 -346 q 300 -401 354 -401 l 228 -401 l 228 -326 l 310 -326 q 357 -285 349 -326 l 364 -254 l 358 -254 q 290 -226 318 -254 q 261 -157 261 -197 z "}}}
